{
.appVersion = "850";
DisplayStrings = (
E
);
copyright = "Copyright (c) 2012, Eduardo Tunni (http://www.tipo.net.ar), with Reserved Font Name Changa"";
customParameters = (
{
name = licenseURL;
value = "http://scripts.sil.org/OFL";
},
{
name = trademark;
value = "Changa is a trademark of Eduardo Rodriguez Tunni.";
},
{
name = license;
value = "This Font Software is licensed under the SIL Open Font License, Version 1.1. This license is available with a FAQ at: http://scripts.sil.org/OFL";
},
{
name = openTypeOS2VendorID;
value = TIPO;
}
);
date = "2016-02-27 15:08:35 +0000";
designer = "Eduardo Rodriguez Tunni";
designerURL = "http://www.tipo.net.ar";
familyName = "Changa";
featurePrefixes = (
{
automatic = 1;
code = "languagesystem DFLT dflt;\012languagesystem arab dflt;\012languagesystem latn dflt;\012languagesystem latn CAT;\012languagesystem latn ROM;\012languagesystem latn MOL;\012languagesystem latn KAZ;\012languagesystem latn TAT;\012languagesystem latn TRK;\012languagesystem latn CRT;\012languagesystem latn AZE;\012languagesystem arab URD;\012";
name = Languagesystems;
}
);
features = (
{
automatic = 1;
code = "feature ccmp;\012feature locl;\012feature subs;\012feature sups;\012feature numr;\012feature dnom;\012feature frac;\012feature ordn;\012feature init;\012feature medi;\012feature fina;\012feature rlig;\012";
name = aalt;
},
{
automatic = 1;

glyphs = (
{
color = 10;
glyphname = A;
layers = (
{
anchors = (
{
name = bottom;
position = "{260, 0}";
},
{
name = ogonek;
position = "{505, 0}";
},
{
name = top;
position = "{260, 625}";
}
);
hints = (
{
horizontal = 1;
origin = "{1, 3}";
target = "{1, 2}";
},
{
horizontal = 1;
origin = "{0, 1}";
target = "{0, 6}";
},
{
horizontal = 1;
origin = "{0, 7}";
target = up;
type = BottomGhost;
},
{
horizontal = 1;
origin = "{0, 6}";
target = down;
type = TopGhost;
}
);
layerId = "FC85C3E9-DF31-40AF-806C-BAFB081E1A8E";
paths = (
{
closed = 1;
nodes = (
"83 0 LINE",
"255 568 LINE",
"264 568 LINE",
"436 0 LINE",
"501 0 LINE",
"307 625 LINE",
"212 625 LINE",
"18 0 LINE"
);
},
{
closed = 1;
nodes = (
"421 154 LINE",
"421 210 LINE",
"102 210 LINE",
"102 154 LINE"
);
}
);
width = 520;
}
);
leftKerningGroup = A;
rightKerningGroup = A;
unicode = 0041;
},
{
color = 10;
glyphname = AE;
lastChange = "2016-02-27 16:05:17 +0000";
layers = (
{
anchors = (
{
name = bottom;
position = "{365, 0}";
},
{
name = top;
position = "{365, 625}";
}
);
hints = (
{
horizontal = 1;
origin = "{0, 15}";
target = "{0, 6}";
},
{
horizontal = 1;
origin = "{0, 1}";
target = "{1, 3}";
},
{
horizontal = 1;
origin = "{0, 7}";
target = "{0, 10}";
},
{
horizontal = 1;
origin = "{0, 14}";
target = "{0, 11}";
},
{
horizontal = 1;
origin = "{0, 15}";
target = up;
type = BottomGhost;
},
{
horizontal = 1;
origin = "{0, 14}";
target = down;
type = TopGhost;
}
);
layerId = "FC85C3E9-DF31-40AF-806C-BAFB081E1A8E";
paths = (
{
closed = 1;
nodes = (
"87 0 LINE",
"124 150 LINE",
"382 150 LINE",
"420 0 LINE",
"673 0 LINE",
"673 66 LINE",
"471 66 LINE",
"417 277 LINE",
"580 277 LINE",
"580 341 LINE",
"401 341 LINE",
"344 560 LINE",
"611 560 LINE",
"623 625 LINE",
"180 625 LINE",
"18 0 LINE"
);
},
{
closed = 1;
nodes = (
"228 568 LINE",
"279 568 LINE",
"365 216 LINE",
"141 216 LINE"
);
}
);
width = 728;
}
);
leftKerningGroup = A;
leftMetricsKey = A;
rightKerningGroup = E;
rightMetricsKey = E;
unicode = 00C6;
},
{
color = 10;
glyphname = B;
lastChange = "2016-02-27 16:05:39 +0000";
layers = (
{
hints = (
{
horizontal = 1;
origin = "{0, 0}";
target = "{1, 18}";
},
{
horizontal = 1;
origin = "{1, 10}";
target = "{1, 9}";
},
{
horizontal = 1;
origin = "{0, 15}";
target = "{1, 1}";
},
{
origin = "{0, 0}";
target = "{1, 19}";
},
{
origin = "{1, 14}";
target = "{0, 4}";
},
{
origin = "{1, 5}";
target = "{0, 11}";
},
{
horizontal = 1;
origin = "{0, 0}";
target = up;
type = BottomGhost;
},
{
horizontal = 1;
origin = "{0, 15}";
target = down;
type = TopGhost;
}
);
layerId = "FC85C3E9-DF31-40AF-806C-BAFB081E1A8E";
paths = (
{
closed = 1;
nodes = (
"104 0 LINE",
"360 0 LINE SMOOTH",
"463 0 OFFCURVE",
"518 62 OFFCURVE",
"518 176 CURVE SMOOTH",
"518 246 OFFCURVE",
"489 294 OFFCURVE",
"429 317 CURVE",
"429 323 LINE",
"473 355 OFFCURVE",
"487 394 OFFCURVE",
"487 474 CURVE SMOOTH",
"487 576 OFFCURVE",
"435 625 OFFCURVE",
"329 625 CURVE SMOOTH",
"104 625 LINE"
);
},
{
closed = 1;
nodes = (
"169 610 LINE",
"137 577 LINE",
"330 577 LINE SMOOTH",
"400 577 OFFCURVE",
"422 547 OFFCURVE",
"422 456 CURVE SMOOTH",
"422 367 OFFCURVE",
"399 337 OFFCURVE",
"329 337 CURVE SMOOTH",
"153 337 LINE",
"153 292 LINE",
"359 292 LINE SMOOTH",
"428 292 OFFCURVE",
"456 259 OFFCURVE",
"456 177 CURVE SMOOTH",
"456 85 OFFCURVE",
"427 48 OFFCURVE",
"358 48 CURVE SMOOTH",
"137 48 LINE",
"169 15 LINE"
);
}
);
width = 579;
}
);
leftKerningGroup = H;
leftMetricsKey = H;
rightKerningGroup = B;
unicode = 0042;
},
{
color = 10;
glyphname = C;
layers = (
{
anchors = (
{
name = bottom;
position = "{258, 0}";
},
{
name = top;
position = "{282, 625}";
}
);
hints = (
{
horizontal = 1;
origin = "{0, 23}";
target = "{0, 3}";
},
{
horizontal = 1;
origin = "{0, 17}";
target = "{0, 10}";
},
{
origin = "{0, 20}";
target = "{0, 6}";
}
);
layerId = "FC85C3E9-DF31-40AF-806C-BAFB081E1A8E";
paths = (
{
closed = 1;
nodes = (
"446 63 LINE",
"391 48 OFFCURVE",
"336 38 OFFCURVE",
"279 38 CURVE SMOOTH",
"230 38 OFFCURVE",
"182 43 OFFCURVE",
"146 55 CURVE",
"146 505 LINE SMOOTH",
"146 574 OFFCURVE",
"183 583 OFFCURVE",
"262 583 CURVE SMOOTH",
"297 583 OFFCURVE",
"374 578 OFFCURVE",
"428 565 CURVE",
"437 621 LINE",
"398 633 OFFCURVE",
"334 640 OFFCURVE",
"297 640 CURVE SMOOTH",
"113 640 OFFCURVE",
"77 576 OFFCURVE",
"77 312 CURVE SMOOTH",
"77 52 OFFCURVE",
"112 -15 OFFCURVE",
"290 -15 CURVE SMOOTH",
"358 -15 OFFCURVE",
"406 -8 OFFCURVE",
"455 11 CURVE"
);
}
);
width = 482;
}
);
leftKerningGroup = O;
leftMetricsKey = O;
rightKerningGroup = C;
unicode = 0043;
},
{
color = 10;
glyphname = D;
lastChange = "2016-02-27 16:05:56 +0000";
layers = (
{
anchors = (
{
name = bottom;
position = "{306, 0}";
},
{
name = center;
position = "{157, 313}";
},
{
name = top;
position = "{306, 625}";
}
);
hints = (
{
horizontal = 1;
origin = "{0, 0}";
target = "{1, 8}";
},
{
horizontal = 1;
origin = "{0, 8}";
target = "{1, 9}";
},
{
origin = "{0, 0}";
target = "{1, 8}";
},
{
origin = "{1, 4}";
target = "{0, 4}";
},
{
horizontal = 1;
origin = "{0, 0}";
target = up;
type = BottomGhost;
},
{
horizontal = 1;
origin = "{0, 8}";
target = down;
type = TopGhost;
}
);
layerId = "FC85C3E9-DF31-40AF-806C-BAFB081E1A8E";
paths = (
{
closed = 1;
nodes = (
"104 0 LINE",
"309 0 LINE SMOOTH",
"502 0 OFFCURVE",
"536 48 OFFCURVE",
"536 312 CURVE SMOOTH",
"536 578 OFFCURVE",
"502 625 OFFCURVE",
"309 625 CURVE SMOOTH",
"104 625 LINE"
);
},
{
closed = 1;
nodes = (
"387 568 LINE SMOOTH",
"446 568 OFFCURVE",
"465 549 OFFCURVE",
"465 491 CURVE SMOOTH",
"465 134 LINE SMOOTH",
"465 77 OFFCURVE",
"446 57 OFFCURVE",
"387 57 CURVE SMOOTH",
"169 57 LINE",
"169 568 LINE"
);
}
);
width = 614;
}
);
leftKerningGroup = H;
leftMetricsKey = H;
rightKerningGroup = O;
rightMetricsKey = O;
unicode = 0044;
},
{
color = 10;
glyphname = E;
lastChange = "2016-02-27 16:05:58 +0000";
layers = (
{
anchors = (
{
name = bottom;
position = "{272, 0}";
},
{
name = ogonek;
position = "{458, 0}";
},
{
name = top;
position = "{283, 625}";
},
{
name = topleft;
position = "{2, 625}";
}
);
hints = (
{
horizontal = 1;
origin = "{0, 7}";
target = "{0, 10}";
},
{
horizontal = 1;
origin = "{0, 11}";
target = "{0, 2}";
},
{
horizontal = 1;
origin = "{0, 6}";
target = "{0, 3}";
},
{
origin = "{0, 7}";
target = "{0, 10}";
},
{
horizontal = 1;
origin = "{0, 7}";
target = up;
type = BottomGhost;
},
{
horizontal = 1;
origin = "{0, 6}";
target = down;
type = TopGhost;
}
);
layerId = "FC85C3E9-DF31-40AF-806C-BAFB081E1A8E";
paths = (
{
closed = 1;
nodes = (
"419 285 LINE",
"419 340 LINE",
"169 340 LINE",
"169 571 LINE",
"445 571 LINE",
"452 625 LINE",
"104 625 LINE",
"104 0 LINE",
"458 0 LINE",
"458 54 LINE",
"169 54 LINE",
"169 285 LINE"
);
}
);
width = 513;
}
);
leftKerningGroup = H;
leftMetricsKey = H;
rightKerningGroup = E;
unicode = 0045;
},
{
color = 10;
glyphname = F;
layers = (
{
hints = (
{
horizontal = 1;
origin = "{0, 9}";
target = "{0, 2}";
},
{
horizontal = 1;
origin = "{0, 3}";
target = "{0, 6}";
},
{
origin = "{0, 7}";
target = "{0, 8}";
},
{
horizontal = 1;
origin = "{0, 7}";
target = up;
type = BottomGhost;
},
{
horizontal = 1;
origin = "{0, 6}";
target = down;
type = TopGhost;
}
);
layerId = "FC85C3E9-DF31-40AF-806C-BAFB081E1A8E";
paths = (
{
closed = 1;
nodes = (
"380 274 LINE",
"380 330 LINE",
"169 330 LINE",
"169 571 LINE",
"413 571 LINE",
"420 625 LINE",
"104 625 LINE",
"104 0 LINE",
"169 0 LINE",
"169 274 LINE"
);
}
);
width = 443;
}
);
leftKerningGroup = H;
leftMetricsKey = H;
rightKerningGroup = F;
unicode = 0046;
},
{
color = 10;
glyphname = G;
lastChange = "2016-02-27 16:05:17 +0000";
layers = (
{
anchors = (
{
name = bottom;
position = "{292, 0}";
},
{
name = top;
position = "{312, 625}";
}
);
hints = (
{
horizontal = 1;
origin = "{0, 21}";
target = "{0, 4}";
},
{
horizontal = 1;
origin = "{1, 3}";
target = "{1, 2}";
},
{
horizontal = 1;
origin = "{0, 15}";
target = "{0, 8}";
},
{
origin = "{0, 18}";
target = "{0, 4}";
},
{
origin = "{1, 5}";
target = "{0, 2}";
}
);
layerId = "FC85C3E9-DF31-40AF-806C-BAFB081E1A8E";
paths = (
{
closed = 1;
nodes = (
"361 -15 OFFCURVE",
"424 -7 OFFCURVE",
"489 16 CURVE",
"477 37 LINE",
"145 37 LINE",
"145 505 LINE SMOOTH",
"145 574 OFFCURVE",
"183 583 OFFCURVE",
"266 583 CURVE SMOOTH",
"306 583 OFFCURVE",
"397 578 OFFCURVE",
"458 565 CURVE",
"467 621 LINE",
"421 633 OFFCURVE",
"347 640 OFFCURVE",
"305 640 CURVE SMOOTH",
"116 640 OFFCURVE",
"77 574 OFFCURVE",
"77 312 CURVE SMOOTH",
"77 30 OFFCURVE",
"109 -15 OFFCURVE",
"272 -15 CURVE SMOOTH"
);
},
{
closed = 1;
nodes = (
"489 16 LINE",
"489 334 LINE",
"325 334 LINE",
"325 278 LINE",
"435 278 LINE",
"435 30 LINE"
);
}
);
width = 569;
}
);
leftKerningGroup = O;
leftMetricsKey = O;
rightKerningGroup = G;
rightMetricsKey = "=H-25";
unicode = 0047;
},
{
color = 10;
glyphname = H;
layers = (
{
anchors = (
{
name = bottom;
position = "{318, 0}";
},
{
name = center;
position = "{318, 476}";
},
{
name = top;
position = "{318, 625}";
},
{
name = topleft;
position = "{20, 625}";
}
);
hints = (
{
horizontal = 1;
origin = "{2, 2}";
target = "{2, 1}";
},
{
origin = "{0, 2}";
target = "{0, 3}";
},
{
origin = "{1, 0}";
target = "{1, 1}";
},
{
horizontal = 1;
origin = "{0, 1}";
target = down;
type = TopGhost;
},
{
horizontal = 1;
origin = "{0, 2}";
target = up;
type = BottomGhost;
}
);
layerId = "FC85C3E9-DF31-40AF-806C-BAFB081E1A8E";
paths = (
{
closed = 1;
nodes = (
"169 625 LINE",
"104 625 LINE",
"104 0 LINE",
"169 0 LINE"
);
},
{
closed = 1;
nodes = (
"467 0 LINE",
"532 0 LINE",
"532 625 LINE",
"467 625 LINE"
);
},
{
closed = 1;
nodes = (
"484 336 LINE",
"153 336 LINE",
"153 281 LINE",
"484 281 LINE"
);
}
);
width = 637;
}
);
leftKerningGroup = H;
rightKerningGroup = H;
unicode = 0048;
},
{
color = 10;
glyphname = I;
lastChange = "2016-02-27 16:05:17 +0000";
layers = (
{
anchors = (
{
name = bottom;
position = "{137, 0}";
},
{
name = ogonek;
position = "{169, 0}";
},
{
name = top;
position = "{137, 625}";
},
{
name = topleft;
position = "{20, 625}";
}
);
hints = (
{
origin = "{0, 0}";
target = "{0, 1}";
},
{
horizontal = 1;
origin = "{0, 0}";
target = up;
type = BottomGhost;
},
{
horizontal = 1;
origin = "{0, 3}";
target = down;
type = TopGhost;
}
);
layerId = "FC85C3E9-DF31-40AF-806C-BAFB081E1A8E";
paths = (
{
closed = 1;
nodes = (
"104 0 LINE",
"169 0 LINE",
"169 625 LINE",
"104 625 LINE"
);
}
);
width = 274;
}
);
leftKerningGroup = H;
leftMetricsKey = H;
rightKerningGroup = H;
rightMetricsKey = H;
unicode = 0049;
},
{
color = 10;
glyphname = J;
lastChange = "2016-02-27 16:05:17 +0000";
layers = (
{
anchors = (
{
name = bottom;
position = "{169, 0}";
},
{
name = top;
position = "{169, 625}";
}
);
hints = (
{
horizontal = 1;
origin = "{0, 0}";
target = "{0, 13}";
},
{
horizontal = 1;
origin = "{0, 7}";
target = "{0, 6}";
},
{
origin = "{0, 9}";
target = "{0, 4}";
},
{
horizontal = 1;
origin = "{0, 0}";
target = up;
type = BottomGhost;
},
{
horizontal = 1;
origin = "{0, 6}";
target = down;
type = TopGhost;
}
);
layerId = "FC85C3E9-DF31-40AF-806C-BAFB081E1A8E";
paths = (
{
closed = 1;
nodes = (
"32 0 LINE",
"78 0 LINE SMOOTH",
"178 0 OFFCURVE",
"233 16 OFFCURVE",
"233 124 CURVE SMOOTH",
"233 625 LINE",
"68 625 LINE",
"68 571 LINE",
"168 571 LINE",
"168 80 LINE SMOOTH",
"168 52 OFFCURVE",
"147 50 OFFCURVE",
"120 50 CURVE SMOOTH",
"23 50 LINE"
);
}
);
width = 338;
}
);
leftKerningGroup = J;
rightKerningGroup = J;
rightMetricsKey = H;
unicode = 004A;
},
{
color = 10;
glyphname = K;
layers = (
{
anchors = (
{
name = bottom;
position = "{289, 0}";
},
{
name = top;
position = "{289, 625}";
}
);
hints = (
{
horizontal = 1;
origin = "{0, 9}";
target = "{0, 8}";
},
{
origin = "{1, 3}";
target = "{1, 0}";
},
{
horizontal = 1;
origin = "{1, 3}";
target = up;
type = BottomGhost;
},
{
horizontal = 1;
origin = "{1, 2}";
target = down;
type = TopGhost;
}
);
layerId = "FC85C3E9-DF31-40AF-806C-BAFB081E1A8E";
paths = (
{
closed = 1;
nodes = (
"519 0 LINE",
"362 321 LINE",
"514 625 LINE",
"438 625 LINE",
"372 492 LINE SMOOTH",
"351 451 OFFCURVE",
"327 401 OFFCURVE",
"327 348 CURVE",
"153 348 LINE",
"153 294 LINE",
"327 294 LINE",
"327 241 OFFCURVE",
"352 191 OFFCURVE",
"372 150 CURVE SMOOTH",
"443 0 LINE"
);
},
{
closed = 1;
nodes = (
"169 0 LINE",
"169 625 LINE",
"104 625 LINE",
"104 0 LINE"
);
}
);
width = 530;
}
);
leftKerningGroup = H;
leftMetricsKey = H;
rightKerningGroup = K;
unicode = 004B;
},
{
color = 10;
glyphname = L;
layers = (
{
anchors = (
{
name = bottom;
position = "{247, 0}";
},
{
name = center;
position = "{137, 324}";
},
{
name = top;
position = "{137, 625}";
},
{
name = topright;
position = "{311, 625}";
}
);
hints = (
{
horizontal = 1;
origin = "{0, 5}";
target = "{0, 2}";
},
{
horizontal = 1;
origin = "{0, 4}";
target = down;
type = TopGhost;
},
{
origin = "{0, 5}";
target = "{0, 2}";
},
{
horizontal = 1;
origin = "{0, 5}";
target = up;
type = BottomGhost;
}
);
layerId = "FC85C3E9-DF31-40AF-806C-BAFB081E1A8E";
paths = (
{
closed = 1;
nodes = (
"413 0 LINE",
"413 54 LINE",
"169 54 LINE",
"169 625 LINE",
"104 625 LINE",
"104 0 LINE"
);
}
);
width = 425;
}
);
leftKerningGroup = H;
leftMetricsKey = H;
rightKerningGroup = L;
unicode = 004C;
},
{
color = 10;
glyphname = M;
lastChange = "2016-02-27 16:05:17 +0000";
layers = (
{
hints = (
{
horizontal = 1;
origin = "{0, 15}";
target = up;
type = BottomGhost;
},
{
horizontal = 1;
origin = "{0, 14}";
target = down;
type = TopGhost;
}
);
layerId = "FC85C3E9-DF31-40AF-806C-BAFB081E1A8E";
paths = (
{
closed = 1;
nodes = (
"153 0 LINE",
"191 560 LINE",
"197 560 LINE",
"367 0 LINE",
"423 0 LINE",
"593 560 LINE",
"599 560 LINE",
"636 0 LINE",
"700 0 LINE",
"657 625 LINE",
"559 625 LINE",
"398 104 LINE",
"391 104 LINE",
"231 625 LINE",
"132 625 LINE",
"89 0 LINE"
);
}
);
width = 790;
}
);
leftKerningGroup = M;
leftMetricsKey = "=H-15";
rightKerningGroup = M;
rightMetricsKey = "=H-15";
unicode = 004D;
},
{
color = 10;
glyphname = N;
lastChange = "2016-02-27 16:05:17 +0000";
layers = (
{
anchors = (
{
name = bottom;
position = "{329, 0}";
},
{
name = top;
position = "{342, 625}";
}
);
hints = (
{
origin = "{0, 17}";
target = "{0, 0}";
},
{
origin = "{0, 10}";
target = "{0, 7}";
},
{
horizontal = 1;
origin = "{0, 17}";
target = up;
type = BottomGhost;
},
{
horizontal = 1;
origin = "{0, 16}";
target = down;
type = TopGhost;
}
);
layerId = "FC85C3E9-DF31-40AF-806C-BAFB081E1A8E";
paths = (
{
closed = 1;
nodes = (
"174 0 LINE",
"174 509 LINE",
"180 509 LINE",
"183 487 OFFCURVE",
"186 484 OFFCURVE",
"206 450 CURVE SMOOTH",
"485 0 LINE",
"547 0 LINE",
"547 625 LINE",
"482 625 LINE",
"482 116 LINE",
"476 116 LINE",
"473 138 OFFCURVE",
"470 141 OFFCURVE",
"450 175 CURVE SMOOTH",
"171 625 LINE",
"109 625 LINE",
"109 0 LINE"
);
}
);
width = 657;
}
);
leftKerningGroup = H;
leftMetricsKey = "=H+5";
rightKerningGroup = H;
rightMetricsKey = "=H+5";
unicode = 004E;
},
{
color = 10;
glyphname = O;
layers = (
{
anchors = (
{
name = bottom;
position = "{314, 0}";
},
{
name = center;
position = "{314, 313}";
},
{
name = ogonek;
position = "{355, -13}";
},
{
name = top;
position = "{314, 625}";
},
{
name = topleft;
position = "{31, 625}";
},
{
name = topright;
position = "{597, 625}";
}
);
hints = (
{
horizontal = 1;
origin = "{0, 2}";
target = "{1, 9}";
},
{
horizontal = 1;
origin = "{0, 8}";
target = "{1, 3}";
},
{
origin = "{0, 11}";
target = "{1, 9}";
},
{
origin = "{1, 5}";
target = "{0, 5}";
}
);
layerId = "FC85C3E9-DF31-40AF-806C-BAFB081E1A8E";
paths = (
{
closed = 1;
nodes = (
"77 33 OFFCURVE",
"110 -15 OFFCURVE",
"314 -15 CURVE SMOOTH",
"516 -15 OFFCURVE",
"550 33 OFFCURVE",
"550 312 CURVE SMOOTH",
"550 591 OFFCURVE",
"516 640 OFFCURVE",
"314 640 CURVE SMOOTH",
"110 640 OFFCURVE",
"77 592 OFFCURVE",
"77 312 CURVE SMOOTH"
);
},
{
closed = 1;
nodes = (
"146 505 LINE SMOOTH",
"146 565 OFFCURVE",
"168 585 OFFCURVE",
"233 585 CURVE SMOOTH",
"481 585 LINE",
"481 120 LINE SMOOTH",
"481 60 OFFCURVE",
"458 40 OFFCURVE",
"392 40 CURVE SMOOTH",
"146 40 LINE"
);
}
);
width = 628;
}
);
leftKerningGroup = O;
rightKerningGroup = O;
unicode = 004F;
},
{
color = 10;
glyphname = OE;
layers = (
{
anchors = (
{
name = bottom;
position = "{446, 0}";
},
{
name = top;
position = "{446, 625}";
}
);
hints = (
{
horizontal = 1;
origin = "{0, 7}";
target = "{0, 10}";
},
{
horizontal = 1;
origin = "{0, 11}";
target = "{0, 2}";
},
{
horizontal = 1;
origin = "{0, 6}";
target = "{0, 3}";
},
{
origin = "{0, 7}";
target = "{0, 10}";
},
{
horizontal = 1;
origin = "{0, 8}";
target = up;
type = BottomGhost;
},
{
horizontal = 1;
origin = "{0, 5}";
target = down;
type = TopGhost;
}
);
layerId = "FC85C3E9-DF31-40AF-806C-BAFB081E1A8E";
paths = (
{
closed = 1;
nodes = (
"796 285 LINE",
"796 340 LINE",
"546 340 LINE",
"546 571 LINE",
"822 571 LINE",
"829 625 LINE",
"481 625 LINE",
"481 0 LINE",
"835 0 LINE",
"835 54 LINE",
"546 54 LINE",
"546 285 LINE"
);
},
{
closed = 1;
nodes = (
"77 45 OFFCURVE",
"110 0 OFFCURVE",
"314 0 CURVE SMOOTH",
"487 0 LINE",
"487 625 LINE",
"314 625 LINE",
"111 625 OFFCURVE",
"77 578 OFFCURVE",
"77 312 CURVE SMOOTH"
);
},
{
closed = 1;
nodes = (
"146 491 LINE SMOOTH",
"146 551 OFFCURVE",
"168 571 OFFCURVE",
"233 571 CURVE SMOOTH",
"481 571 LINE",
"481 134 LINE SMOOTH",
"481 74 OFFCURVE",
"458 54 OFFCURVE",
"392 54 CURVE SMOOTH",
"146 54 LINE"
);
}
);
width = 890;
}
);
leftKerningGroup = O;
leftMetricsKey = O;
rightKerningGroup = E;
rightMetricsKey = E;
unicode = 0152;
},
{
color = 10;
glyphname = P;
layers = (
{
hints = (
{
horizontal = 1;
origin = "{0, 10}";
target = "{1, 9}";
},
{
horizontal = 1;
origin = "{0, 7}";
target = "{1, 0}";
},
{
origin = "{0, 8}";
target = "{0, 9}";
},
{
origin = "{1, 5}";
target = "{0, 3}";
},
{
horizontal = 1;
origin = "{0, 8}";
target = up;
type = BottomGhost;
},
{
horizontal = 1;
origin = "{0, 7}";
target = down;
type = TopGhost;
}
);
layerId = "FC85C3E9-DF31-40AF-806C-BAFB081E1A8E";
paths = (
{
closed = 1;
nodes = (
"350 225 LINE SMOOTH",
"452 225 OFFCURVE",
"487 278 OFFCURVE",
"487 421 CURVE SMOOTH",
"487 577 OFFCURVE",
"452 625 OFFCURVE",
"335 625 CURVE SMOOTH",
"104 625 LINE",
"104 0 LINE",
"169 0 LINE",
"169 225 LINE"
);
},
{
closed = 1;
nodes = (
"169 571 LINE",
"340 571 LINE SMOOTH",
"400 571 OFFCURVE",
"419 561 OFFCURVE",
"419 529 CURVE SMOOTH",
"419 323 LINE SMOOTH",
"419 291 OFFCURVE",
"400 281 OFFCURVE",
"340 281 CURVE SMOOTH",
"169 281 LINE"
);
}
);
width = 509;
}
);
leftKerningGroup = H;
leftMetricsKey = H;
rightKerningGroup = P;
unicode = 0050;
},
{
color = 10;
glyphname = Thorn;
layers = (
{
hints = (
{
horizontal = 1;
origin = "{0, 5}";
target = "{1, 3}";
},
{
horizontal = 1;
origin = "{0, 0}";
target = "{1, 4}";
},
{
origin = "{0, 3}";
target = "{0, 4}";
},
{
origin = "{1, 9}";
target = "{0, 9}";
},
{
horizontal = 1;
origin = "{0, 3}";
target = up;
type = BottomGhost;
},
{
horizontal = 1;
origin = "{0, 2}";
target = down;
type = TopGhost;
}
);
layerId = "FC85C3E9-DF31-40AF-806C-BAFB081E1A8E";
paths = (
{
closed = 1;
nodes = (
"169 512 LINE",
"169 625 LINE",
"104 625 LINE",
"104 0 LINE",
"169 0 LINE",
"169 112 LINE",
"350 112 LINE SMOOTH",
"452 112 OFFCURVE",
"487 165 OFFCURVE",
"487 308 CURVE SMOOTH",
"487 464 OFFCURVE",
"452 512 OFFCURVE",
"335 512 CURVE SMOOTH"
);
},
{
closed = 1;
nodes = (
"419 178 OFFCURVE",
"400 168 OFFCURVE",
"340 168 CURVE SMOOTH",
"169 168 LINE",
"169 456 LINE",
"340 456 LINE SMOOTH",
"400 456 OFFCURVE",
"419 446 OFFCURVE",
"419 414 CURVE SMOOTH",
"419 210 LINE SMOOTH"
);
}
);
width = 509;
}
);
leftKerningGroup = H;
leftMetricsKey = H;
rightKerningGroup = Thorn;
rightMetricsKey = P;
unicode = 00DE;
},
{
color = 10;
glyphname = Q;
layers = (
{
hints = (
{
horizontal = 1;
origin = "{0, 13}";
target = "{1, 9}";
},
{
horizontal = 1;
origin = "{0, 7}";
target = "{1, 3}";
},
{
origin = "{0, 10}";
target = "{1, 9}";
},
{
origin = "{1, 5}";
target = "{0, 4}";
}
);
layerId = "FC85C3E9-DF31-40AF-806C-BAFB081E1A8E";
paths = (
{
closed = 1;
nodes = (
"365 3 LINE",
"447 8 LINE",
"519 35 OFFCURVE",
"540 106 OFFCURVE",
"540 312 CURVE SMOOTH",
"540 591 OFFCURVE",
"507 640 OFFCURVE",
"309 640 CURVE SMOOTH",
"108 640 OFFCURVE",
"77 593 OFFCURVE",
"77 312 CURVE SMOOTH",
"77 31 OFFCURVE",
"108 -15 OFFCURVE",
"309 -15 CURVE"
);
},
{
closed = 1;
nodes = (
"148 505 LINE SMOOTH",
"148 565 OFFCURVE",
"169 585 OFFCURVE",
"232 585 CURVE SMOOTH",
"470 585 LINE",
"470 120 LINE SMOOTH",
"470 60 OFFCURVE",
"448 40 OFFCURVE",
"385 40 CURVE SMOOTH",
"148 40 LINE"
);
},
{
closed = 1;
nodes = (
"547 -36 LINE",
"436 34 LINE",
"365 3 LINE",
"365 -15 LINE",
"531 -70 LINE"
);
}
);
width = 618;
}
);
leftKerningGroup = O;
rightKerningGroup = O;
unicode = 0051;
},
{
color = 10;
glyphname = R;
layers = (
{
anchors = (
{
name = bottom;
position = "{282, 0}";
},
{
name = top;
position = "{295, 625}";
}
);
hints = (
{
horizontal = 1;
origin = "{0, 10}";
target = "{1, 9}";
},
{
horizontal = 1;
origin = "{1, 0}";
target = "{0, 7}";
},
{
origin = "{0, 8}";
target = "{0, 9}";
},
{
origin = "{1, 5}";
target = "{0, 3}";
},
{
horizontal = 1;
origin = "{0, 8}";
target = up;
type = BottomGhost;
},
{
horizontal = 1;
origin = "{0, 7}";
target = down;
type = TopGhost;
}
);
layerId = "FC85C3E9-DF31-40AF-806C-BAFB081E1A8E";
paths = (
{
closed = 1;
nodes = (
"355 235 LINE SMOOTH",
"456 235 OFFCURVE",
"492 285 OFFCURVE",
"492 421 CURVE SMOOTH",
"492 577 OFFCURVE",
"457 625 OFFCURVE",
"340 625 CURVE SMOOTH",
"104 625 LINE",
"104 0 LINE",
"169 0 LINE",
"169 235 LINE"
);
},
{
closed = 1;
nodes = (
"169 571 LINE",
"345 571 LINE SMOOTH",
"405 571 OFFCURVE",
"424 561 OFFCURVE",
"424 529 CURVE SMOOTH",
"424 333 LINE SMOOTH",
"424 301 OFFCURVE",
"405 291 OFFCURVE",
"345 291 CURVE SMOOTH",
"169 291 LINE"
);
},
{
closed = 1;
nodes = (
"330 261 LINE",
"453 0 LINE",
"524 0 LINE",
"402 249 LINE"
);
}
);
width = 564;
}
);
leftKerningGroup = H;
leftMetricsKey = H;
rightKerningGroup = R;
unicode = 0052;
},
{
color = 10;
glyphname = S;
layers = (
{
anchors = (
{
name = bottom;
position = "{249, 0}";
},
{
name = top;
position = "{249, 625}";
}
);
hints = (
{
horizontal = 1;
origin = "{0, 3}";
target = "{0, 32}";
},
{
horizontal = 1;
place = "{355.725, 130.95}";
},
{
horizontal = 1;
origin = "{0, 21}";
target = "{0, 14}";
},
{
origin = "{0, 24}";
target = "{0, 10}";
},
{
origin = "{0, 29}";
target = "{0, 6}";
}
);
layerId = "FC85C3E9-DF31-40AF-806C-BAFB081E1A8E";
paths = (
{
closed = 1;
nodes = (
"53 5 LINE",
"117 -10 OFFCURVE",
"172 -15 OFFCURVE",
"234 -15 CURVE SMOOTH",
"402 -15 OFFCURVE",
"453 25 OFFCURVE",
"453 160 CURVE SMOOTH",
"453 296 OFFCURVE",
"412 333 OFFCURVE",
"257 341 CURVE SMOOTH",
"133 348 LINE",
"133 582 LINE",
"163 586 OFFCURVE",
"182 587 OFFCURVE",
"221 587 CURVE SMOOTH",
"300 587 OFFCURVE",
"357 584 OFFCURVE",
"412 574 CURVE",
"420 625 LINE",
"354 635 OFFCURVE",
"295 640 OFFCURVE",
"230 640 CURVE SMOOTH",
"107 640 OFFCURVE",
"61 590 OFFCURVE",
"61 455 CURVE SMOOTH",
"61 324 OFFCURVE",
"98 295 OFFCURVE",
"284 283 CURVE SMOOTH",
"381 276 LINE",
"381 44 LINE",
"319 39 OFFCURVE",
"289 38 OFFCURVE",
"257 38 CURVE SMOOTH",
"193 38 OFFCURVE",
"111 47 OFFCURVE",
"63 58 CURVE"
);
}
);
width = 499;
}
);
leftKerningGroup = S;
rightKerningGroup = S;
unicode = 0053;
},
{
color = 10;
glyphname = T;
layers = (
{
anchors = (
{
name = bottom;
position = "{225, 0}";
},
{
name = center;
position = "{225, 314}";
},
{
name = top;
position = "{225, 625}";
}
);
hints = (
{
horizontal = 1;
origin = "{0, 3}";
target = "{0, 2}";
},
{
origin = "{0, 5}";
target = "{0, 6}";
},
{
horizontal = 1;
origin = "{0, 5}";
target = up;
type = BottomGhost;
},
{
horizontal = 1;
origin = "{0, 2}";
target = down;
type = TopGhost;
}
);
layerId = "FC85C3E9-DF31-40AF-806C-BAFB081E1A8E";
paths = (
{
closed = 1;
nodes = (
"430 571 LINE",
"430 625 LINE",
"18 625 LINE",
"18 571 LINE",
"192 571 LINE",
"192 0 LINE",
"257 0 LINE",
"257 571 LINE"
);
}
);
width = 450;
}
);
leftKerningGroup = T;
rightKerningGroup = T;
unicode = 0054;
},
{
color = 10;
glyphname = U;
lastChange = "2016-02-27 16:05:17 +0000";
layers = (
{
anchors = (
{
name = bottom;
position = "{321, 0}";
},
{
name = ogonek;
position = "{368, -10}";
},
{
name = top;
position = "{321, 625}";
},
{
name = topright;
position = "{546, 625}";
}
);
hints = (
{
horizontal = 1;
origin = "{0, 15}";
target = "{0, 9}";
},
{
origin = "{0, 12}";
target = "{0, 9}";
},
{
origin = "{0, 5}";
target = "{0, 2}";
},
{
horizontal = 1;
origin = "{0, 11}";
target = down;
type = TopGhost;
}
);
layerId = "FC85C3E9-DF31-40AF-806C-BAFB081E1A8E";
paths = (
{
closed = 1;
nodes = (
"505 -15 OFFCURVE",
"545 19 OFFCURVE",
"545 173 CURVE SMOOTH",
"545 625 LINE",
"480 625 LINE",
"480 93 LINE SMOOTH",
"480 50 OFFCURVE",
"452 40 OFFCURVE",
"325 40 CURVE SMOOTH",
"159 40 LINE",
"159 625 LINE",
"94 625 LINE",
"94 173 LINE SMOOTH",
"94 19 OFFCURVE",
"134 -15 OFFCURVE",
"320 -15 CURVE SMOOTH"
);
}
);
width = 640;
}
);
leftKerningGroup = U;
leftMetricsKey = "=H-10";
rightKerningGroup = U;
rightMetricsKey = "=H-10";
unicode = 0055;
},
{
color = 10;
glyphname = V;
layers = (
{
hints = (
{
horizontal = 1;
origin = "{0, 7}";
target = down;
type = TopGhost;
},
{
horizontal = 1;
origin = "{0, 0}";
target = up;
type = BottomGhost;
}
);
layerId = "FC85C3E9-DF31-40AF-806C-BAFB081E1A8E";
paths = (
{
closed = 1;
nodes = (
"196 0 LINE",
"291 0 LINE",
"475 625 LINE",
"410 625 LINE",
"248 57 LINE",
"239 57 LINE",
"77 625 LINE",
"12 625 LINE"
);
}
);
width = 486;
}
);
leftKerningGroup = V;
rightKerningGroup = V;
unicode = 0056;
},
{
color = 10;
glyphname = W;
layers = (
{
anchors = (
{
name = bottom;
position = "{379, 0}";
},
{
name = top;
position = "{379, 625}";
}
);
hints = (
{
horizontal = 1;
origin = "{0, 7}";
target = down;
type = TopGhost;
},
{
horizontal = 1;
origin = "{0, 0}";
target = up;
type = BottomGhost;
}
);
layerId = "FC85C3E9-DF31-40AF-806C-BAFB081E1A8E";
paths = (
{
closed = 1;
nodes = (
"138 0 LINE",
"244 0 LINE",
"406 625 LINE",
"345 625 LINE",
"197 57 LINE",
"188 57 LINE",
"90 625 LINE",
"25 625 LINE"
);
},
{
closed = 1;
nodes = (
"668 625 LINE",
"570 57 LINE",
"561 57 LINE",
"413 625 LINE",
"352 625 LINE",
"514 0 LINE",
"620 0 LINE",
"733 625 LINE"
);
}
);
width = 758;
}
);
leftKerningGroup = W;
rightKerningGroup = W;
unicode = 0057;
},
{
color = 10;
glyphname = X;
layers = (
{
hints = (
{
horizontal = 1;
origin = "{1, 1}";
target = up;
type = BottomGhost;
},
{
horizontal = 1;
origin = "{0, 1}";
target = down;
type = TopGhost;
}
);
layerId = "FC85C3E9-DF31-40AF-806C-BAFB081E1A8E";
paths = (
{
closed = 1;
nodes = (
"93 625 LINE",
"20 625 LINE",
"410 0 LINE",
"483 0 LINE"
);
},
{
closed = 1;
nodes = (
"233 363 LINE",
"12 0 LINE",
"83 0 LINE",
"245 271 LINE"
);
},
{
closed = 1;
nodes = (
"255 262 LINE",
"475 625 LINE",
"404 625 LINE",
"242 354 LINE"
);
}
);
width = 495;
}
);
leftKerningGroup = X;
rightKerningGroup = X;
unicode = 0058;
},
{
color = 10;
glyphname = Y;
layers = (
{
anchors = (
{
name = bottom;
position = "{229, 0}";
},
{
name = top;
position = "{229, 625}";
},
{
name = topleft;
position = "{25, 625}";
}
);
hints = (
{
horizontal = 1;
origin = "{0, 2}";
target = down;
type = TopGhost;
},
{
origin = "{0, 4}";
target = "{0, 5}";
},
{
horizontal = 1;
origin = "{0, 4}";
target = up;
type = BottomGhost;
}
);
layerId = "FC85C3E9-DF31-40AF-806C-BAFB081E1A8E";
paths = (
{
closed = 1;
nodes = (
"241 264 LINE",
"79 625 LINE",
"12 625 LINE",
"197 220 LINE",
"197 0 LINE",
"262 0 LINE",
"262 220 LINE",
"447 625 LINE",
"380 625 LINE",
"218 264 LINE"
);
}
);
width = 459;
}
);
leftKerningGroup = Y;
rightKerningGroup = Y;
unicode = 0059;
},
{
color = 10;
glyphname = Z;
layers = (
{
anchors = (
{
name = bottom;
position = "{265, 0}";
},
{
name = top;
position = "{302, 625}";
}
);
hints = (
{
horizontal = 1;
origin = "{0, 11}";
target = "{0, 2}";
},
{
horizontal = 1;
origin = "{0, 7}";
target = "{0, 6}";
},
{
horizontal = 1;
origin = "{0, 11}";
target = up;
type = BottomGhost;
},
{
horizontal = 1;
origin = "{0, 6}";
target = down;
type = TopGhost;
}
);
layerId = "FC85C3E9-DF31-40AF-806C-BAFB081E1A8E";
paths = (
{
closed = 1;
nodes = (
"469 0 LINE",
"469 54 LINE",
"122 54 LINE",
"119 60 LINE",
"492 580 LINE",
"492 625 LINE",
"81 625 LINE",
"90 571 LINE",
"407 571 LINE",
"410 565 LINE",
"38 45 LINE",
"38 0 LINE"
);
}
);
width = 530;
}
);
leftKerningGroup = Z;
rightKerningGroup = Z;
unicode = 005A;
},
{
color = 10;
glyphname = a;
lastChange = "2016-02-27 16:05:17 +0000";
layers = (
{
anchors = (
{
name = bottom;
position = "{279, 0}";
},
{
name = ogonek;
position = "{439, 0}";
},
{
name = top;
position = "{271, 500}";
}
);
hints = (
{
horizontal = 1;
origin = "{0, 36}";
target = "{0, 23}";
},
{
horizontal = 1;
origin = "{0, 28}";
target = "{0, 29}";
},
{
horizontal = 1;
origin = "{0, 8}";
target = "{0, 15}";
},
{
origin = "{0, 33}";
target = "{0, 23}";
},
{
origin = "{0, 19}";
target = "{0, 4}";
},
{
horizontal = 1;
origin = "{0, 36}";
target = up;
type = BottomGhost;
},
{
horizontal = 1;
origin = "{0, 8}";
target = down;
type = TopGhost;
}
);
layerId = "FC85C3E9-DF31-40AF-806C-BAFB081E1A8E";
paths = (
{
closed = 1;
nodes = (
"289 -8 OFFCURVE",
"345 9 OFFCURVE",
"392 50 CURVE",
"411 0 LINE",
"438 0 LINE",
"438 381 LINE SMOOTH",
"438 477 OFFCURVE",
"399 508 OFFCURVE",
"271 508 CURVE SMOOTH",
"207 508 OFFCURVE",
"126 496 OFFCURVE",
"87 480 CURVE",
"96 429 LINE",
"150 445 OFFCURVE",
"205 453 OFFCURVE",
"255 453 CURVE SMOOTH",
"306 453 OFFCURVE",
"341 449 OFFCURVE",
"374 439 CURVE",
"374 113 LINE SMOOTH",
"374 63 OFFCURVE",
"355 48 OFFCURVE",
"290 48 CURVE SMOOTH",
"123 48 LINE",
"123 175 LINE SMOOTH",
"123 225 OFFCURVE",
"142 239 OFFCURVE",
"209 239 CURVE SMOOTH",
"404 239 LINE",
"404 292 LINE",
"364 292 LINE SMOOTH",
"89 292 OFFCURVE",
"65 280 OFFCURVE",
"65 135 CURVE SMOOTH",
"65 30 OFFCURVE",
"104 -8 OFFCURVE",
"210 -8 CURVE SMOOTH"
);
}
);
width = 537;
}
);
leftKerningGroup = a;
leftMetricsKey = "=o-5";
rightKerningGroup = n;
rightMetricsKey = n;
unicode = 0061;
},
{
color = 10;
glyphname = ae;
lastChange = "2016-02-27 16:05:17 +0000";
layers = (
{
anchors = (
{
name = bottom;
position = "{418, 0}";
},
{
name = top;
position = "{418, 500}";
}
);
hints = (
{
horizontal = 1;
origin = "{0, 35}";
target = "{0, 22}";
},
{
horizontal = 1;
origin = "{0, 27}";
target = "{0, 28}";
},
{
horizontal = 1;
origin = "{0, 7}";
target = "{0, 14}";
},
{
origin = "{0, 32}";
target = "{0, 22}";
},
{
origin = "{0, 18}";
target = "{0, 3}";
},
{
horizontal = 1;
origin = "{1, 34}";
target = "{1, 6}";
},
{
horizontal = 1;
origin = "{1, 20}";
target = "{1, 19}";
},
{
horizontal = 1;
origin = "{1, 27}";
target = "{1, 13}";
},
{
origin = "{0, 18}";
target = "{1, 9}";
},
{
origin = "{1, 15}";
target = "{1, 24}";
},
{
horizontal = 1;
origin = "{0, 35}";
target = up;
type = BottomGhost;
},
{
horizontal = 1;
origin = "{0, 7}";
target = down;
type = TopGhost;
}
);
layerId = "FC85C3E9-DF31-40AF-806C-BAFB081E1A8E";
paths = (
{
closed = 1;
nodes = (
"295 -8 OFFCURVE",
"353 12 OFFCURVE",
"403 59 CURVE",
"440 50 LINE",
"440 381 LINE SMOOTH",
"440 477 OFFCURVE",
"399 508 OFFCURVE",
"271 508 CURVE SMOOTH",
"207 508 OFFCURVE",
"126 496 OFFCURVE",
"87 480 CURVE",
"96 429 LINE",
"150 445 OFFCURVE",
"205 453 OFFCURVE",
"255 453 CURVE SMOOTH",
"306 453 OFFCURVE",
"341 449 OFFCURVE",
"374 439 CURVE",
"374 113 LINE SMOOTH",
"374 63 OFFCURVE",
"355 48 OFFCURVE",
"290 48 CURVE SMOOTH",
"123 48 LINE",
"123 175 LINE SMOOTH",
"123 225 OFFCURVE",
"142 239 OFFCURVE",
"209 239 CURVE SMOOTH",
"404 239 LINE",
"404 292 LINE",
"364 292 LINE SMOOTH",
"89 292 OFFCURVE",
"65 280 OFFCURVE",
"65 135 CURVE SMOOTH",
"65 30 OFFCURVE",
"104 -8 OFFCURVE",
"210 -8 CURVE SMOOTH"
);
},
{
closed = 1;
nodes = (
"618 -8 OFFCURVE",
"696 3 OFFCURVE",
"741 20 CURVE",
"731 71 LINE",
"654 52 OFFCURVE",
"611 47 OFFCURVE",
"560 47 CURVE SMOOTH",
"510 47 OFFCURVE",
"476 51 OFFCURVE",
"440 61 CURVE",
"440 383 LINE SMOOTH",
"440 434 OFFCURVE",
"460 448 OFFCURVE",
"528 448 CURVE SMOOTH",
"695 448 LINE",
"695 325 LINE SMOOTH",
"695 275 OFFCURVE",
"675 261 OFFCURVE",
"606 261 CURVE SMOOTH",
"410 261 LINE",
"410 208 LINE",
"440 208 LINE SMOOTH",
"729 208 OFFCURVE",
"754 220 OFFCURVE",
"754 365 CURVE SMOOTH",
"754 479 OFFCURVE",
"716 508 OFFCURVE",
"566 508 CURVE SMOOTH",
"475 508 OFFCURVE",
"429 490 OFFCURVE",
"402 444 CURVE",
"387 78 LINE",
"406 14 OFFCURVE",
"444 -8 OFFCURVE",
"543 -8 CURVE SMOOTH"
);
}
);
width = 835;
}
);
leftKerningGroup = a;
leftMetricsKey = a;
rightKerningGroup = e;
rightMetricsKey = e;
unicode = 00E6;
},
{
color = 10;
glyphname = b;
layers = (
{
hints = (
{
horizontal = 1;
origin = "{0, 5}";
target = "{1, 4}";
},
{
horizontal = 1;
origin = "{0, 11}";
target = "{1, 8}";
},
{
origin = "{1, 0}";
target = "{0, 8}";
},
{
horizontal = 1;
origin = "{0, 5}";
target = up;
type = BottomGhost;
},
{
origin = "{2, 7}";
target = "{2, 6}";
},
{
horizontal = 1;
origin = "{0, 11}";
target = down;
type = TopGhost;
}
);
layerId = "FC85C3E9-DF31-40AF-806C-BAFB081E1A8E";
paths = (
{
closed = 1;
nodes = (
"141 515 OFFCURVE",
"121 487 OFFCURVE",
"121 250 CURVE SMOOTH",
"121 17 OFFCURVE",
"141 -8 OFFCURVE",
"308 -8 CURVE SMOOTH",
"465 -8 OFFCURVE",
"489 31 OFFCURVE",
"489 250 CURVE SMOOTH",
"489 473 OFFCURVE",
"463 515 OFFCURVE",
"321 515 CURVE SMOOTH"
);
},
{
closed = 1;
nodes = (
"423 67 LINE SMOOTH",
"423 54 OFFCURVE",
"411 50 OFFCURVE",
"374 50 CURVE SMOOTH",
"169 50 LINE",
"169 433 LINE SMOOTH",
"169 453 OFFCURVE",
"179 457 OFFCURVE",
"217 457 CURVE SMOOTH",
"423 457 LINE"
);
},
{
closed = 1;
nodes = (
"104 20 LINE",
"179 0 OFFCURVE",
"236 -8 OFFCURVE",
"309 -8 CURVE",
"169 37 LINE",
"169 88 LINE",
"169 681 LINE",
"104 670 LINE"
);
}
);
width = 560;
}
);
leftKerningGroup = h;
leftMetricsKey = n;
rightKerningGroup = o;
rightMetricsKey = o;
unicode = 0062;
},
{
color = 10;
glyphname = c;
layers = (
{
anchors = (
{
name = bottom;
position = "{231, 0}";
},
{
name = top;
position = "{248, 500}";
}
);
hints = (
{
horizontal = 1;
origin = "{0, 26}";
target = "{0, 6}";
},
{
horizontal = 1;
origin = "{0, 20}";
target = "{0, 13}";
},
{
horizontal = 1;
origin = "{0, 20}";
target = down;
type = TopGhost;
},
{
origin = "{0, 23}";
target = "{0, 10}";
},
{
horizontal = 1;
origin = "{0, 26}";
target = up;
type = BottomGhost;
},
{
horizontal = 1;
origin = "{0, 20}";
target = down;
type = TopGhost;
}
);
layerId = "FC85C3E9-DF31-40AF-806C-BAFB081E1A8E";
paths = (
{
closed = 1;
nodes = (
"297 -8 OFFCURVE",
"362 3 OFFCURVE",
"403 20 CURVE",
"395 71 LINE",
"330 53 OFFCURVE",
"296 47 OFFCURVE",
"255 47 CURVE SMOOTH",
"201 47 OFFCURVE",
"166 51 OFFCURVE",
"135 61 CURVE",
"135 365 LINE SMOOTH",
"135 430 OFFCURVE",
"158 453 OFFCURVE",
"229 453 CURVE SMOOTH",
"278 453 OFFCURVE",
"328 447 OFFCURVE",
"382 437 CURVE",
"392 491 LINE",
"345 502 OFFCURVE",
"285 508 OFFCURVE",
"233 508 CURVE SMOOTH",
"94 508 OFFCURVE",
"70 468 OFFCURVE",
"70 250 CURVE SMOOTH",
"70 33 OFFCURVE",
"94 -8 OFFCURVE",
"233 -8 CURVE SMOOTH"
);
}
);
width = 454;
}
);
leftKerningGroup = o;
leftMetricsKey = o;
rightKerningGroup = c;
rightMetricsKey = "=o-20";
unicode = 0063;
},
{
color = 10;
glyphname = d;
layers = (
{
anchors = (
{
name = bottom;
position = "{276, 0}";
},
{
name = center;
position = "{423, 590}";
},
{
name = top;
position = "{276, 500}";
},
{
name = topright;
position = "{456, 500}";
}
);
hints = (
{
horizontal = 1;
origin = "{0, 5}";
target = "{1, 4}";
},
{
horizontal = 1;
origin = "{0, 11}";
target = "{1, 8}";
},
{
origin = "{0, 2}";
target = "{1, 4}";
},
{
origin = "{2, 0}";
target = "{2, 4}";
},
{
horizontal = 1;
origin = "{0, 5}";
target = up;
type = BottomGhost;
},
{
horizontal = 1;
origin = "{0, 11}";
target = down;
type = TopGhost;
}
);
layerId = "FC85C3E9-DF31-40AF-806C-BAFB081E1A8E";
paths = (
{
closed = 1;
nodes = (
"96 510 OFFCURVE",
"70 468 OFFCURVE",
"70 250 CURVE SMOOTH",
"70 25 OFFCURVE",
"93 -14 OFFCURVE",
"238 -15 CURVE SMOOTH",
"418 -16 OFFCURVE",
"438 11 OFFCURVE",
"438 250 CURVE SMOOTH",
"438 482 OFFCURVE",
"418 507 OFFCURVE",
"238 508 CURVE SMOOTH"
);
},
{
closed = 1;
nodes = (
"391 67 LINE SMOOTH",
"391 47 OFFCURVE",
"381 43 OFFCURVE",
"342 43 CURVE SMOOTH",
"137 43 LINE",
"137 426 LINE SMOOTH",
"137 446 OFFCURVE",
"147 450 OFFCURVE",
"185 450 CURVE SMOOTH",
"391 450 LINE"
);
},
{
closed = 1;
nodes = (
"391 670 LINE",
"391 88 LINE",
"429 0 LINE",
"456 0 LINE",
"456 681 LINE"
);
}
);
width = 560;
}
);
leftKerningGroup = o;
leftMetricsKey = o;
rightKerningGroup = l;
rightMetricsKey = "=|h";
unicode = 0064;
},
{
color = 10;
glyphname = eth;
layers = (
{
components = (
{
name = slashshortcomb;
transform = "{1, 0, 0, 1, 272, 228}";
}
);
hints = (
{
horizontal = 1;
origin = "{0, 11}";
target = "{1, 9}";
},
{
horizontal = 1;
origin = "{1, 3}";
target = "{0, 5}";
},
{
origin = "{0, 8}";
target = "{1, 9}";
},
{
origin = "{1, 5}";
target = "{0, 2}";
},
{
horizontal = 1;
origin = "{0, 11}";
target = up;
type = BottomGhost;
}
);
layerId = "FC85C3E9-DF31-40AF-806C-BAFB081E1A8E";
paths = (
{
closed = 1;
nodes = (
"436 -8 OFFCURVE",
"464 23 OFFCURVE",
"464 201 CURVE SMOOTH",
"464 380 LINE",
"411 438 LINE",
"270 438 LINE SMOOTH",
"105 438 OFFCURVE",
"77 403 OFFCURVE",
"77 215 CURVE SMOOTH",
"77 27 OFFCURVE",
"105 -8 OFFCURVE",
"270 -8 CURVE SMOOTH"
);
},
{
closed = 1;
nodes = (
"144 356 LINE SMOOTH",
"144 376 OFFCURVE",
"154 380 OFFCURVE",
"192 380 CURVE SMOOTH",
"398 380 LINE",
"398 74 LINE SMOOTH",
"398 54 OFFCURVE",
"388 50 OFFCURVE",
"349 50 CURVE SMOOTH",
"144 50 LINE"
);
},
{
closed = 1;
nodes = (
"464 380 LINE",
"464 460 OFFCURVE",
"420 568 OFFCURVE",
"350 665 CURVE",
"298 651 LINE",
"368 552 OFFCURVE",
"404 460 OFFCURVE",
"404 380 CURVE"
);
}
);
width = 545;
}
);
leftKerningGroup = eth;
rightKerningGroup = eth;
unicode = 00F0;
},
{
color = 10;
glyphname = e;
layers = (
{
anchors = (
{
name = bottom;
position = "{256, 0}";
},
{
name = ogonek;
position = "{437, 20}";
},
{
name = top;
position = "{263, 500}";
}
);
hints = (
{
horizontal = 1;
origin = "{0, 33}";
target = "{0, 6}";
},
{
horizontal = 1;
origin = "{0, 20}";
target = "{0, 19}";
},
{
horizontal = 1;
origin = "{0, 27}";
target = "{0, 13}";
},
{
origin = "{0, 30}";
target = "{0, 9}";
},
{
origin = "{0, 15}";
target = "{0, 24}";
},
{
horizontal = 1;
origin = "{0, 33}";
target = up;
type = BottomGhost;
},
{
horizontal = 1;
origin = "{0, 27}";
target = down;
type = TopGhost;
}
);
layerId = "FC85C3E9-DF31-40AF-806C-BAFB081E1A8E";
paths = (
{
closed = 1;
nodes = (
"316 -8 OFFCURVE",
"394 3 OFFCURVE",
"437 20 CURVE",
"428 71 LINE",
"351 52 OFFCURVE",
"308 47 OFFCURVE",
"256 47 CURVE SMOOTH",
"205 47 OFFCURVE",
"170 51 OFFCURVE",
"137 61 CURVE",
"137 383 LINE SMOOTH",
"137 434 OFFCURVE",
"156 448 OFFCURVE",
"224 448 CURVE SMOOTH",
"391 448 LINE",
"391 325 LINE SMOOTH",
"391 275 OFFCURVE",
"372 261 OFFCURVE",
"302 261 CURVE SMOOTH",
"106 261 LINE",
"106 208 LINE",
"137 208 LINE SMOOTH",
"425 208 OFFCURVE",
"450 220 OFFCURVE",
"450 365 CURVE SMOOTH",
"450 479 OFFCURVE",
"412 508 OFFCURVE",
"262 508 CURVE SMOOTH",
"108 508 OFFCURVE",
"70 453 OFFCURVE",
"70 250 CURVE SMOOTH",
"70 37 OFFCURVE",
"96 -8 OFFCURVE",
"239 -8 CURVE SMOOTH"
);
}
);
width = 531;
}
);
leftKerningGroup = o;
leftMetricsKey = o;
rightKerningGroup = e;
rightMetricsKey = "=o+10";
unicode = 0065;
},
{
color = 10;
glyphname = f;
layers = (
{
hints = (
{
horizontal = 1;
origin = "{1, 0}";
target = "{1, 1}";
},
{
origin = "{0, 9}";
target = "{0, 10}";
},
{
horizontal = 1;
origin = "{0, 0}";
target = "{0, 5}";
},
{
horizontal = 1;
origin = "{0, 9}";
target = up;
type = BottomGhost;
},
{
horizontal = 1;
origin = "{0, 5}";
target = down;
type = TopGhost;
}
);
layerId = "FC85C3E9-DF31-40AF-806C-BAFB081E1A8E";
paths = (
{
closed = 1;
nodes = (
"199 620 LINE",
"315 610 LINE",
"319 665 LINE",
"293 672 OFFCURVE",
"263 675 OFFCURVE",
"233 675 CURVE SMOOTH",
"162 675 OFFCURVE",
"142 635 OFFCURVE",
"134 492 CURVE",
"134 0 LINE",
"199 0 LINE"
);
},
{
closed = 1;
nodes = (
"57 500 LINE",
"57 452 LINE",
"286 452 LINE",
"286 500 LINE"
);
}
);
width = 324;
}
);
leftKerningGroup = f;
rightKerningGroup = f;
unicode = 0066;
},
{
color = 10;
glyphname = g;
layers = (
{
anchors = (
{
name = bottom;
position = "{237, -162}";
},
{
name = top;
position = "{246, 500}";
}
);
hints = (
{
horizontal = 1;
origin = "{2, 19}";
target = "{2, 12}";
},
{
horizontal = 1;
place = "{199.8, 86.4}";
},
{
horizontal = 1;
origin = "{1, 3}";
target = "{0, 5}";
},
{
origin = "{0, 8}";
target = "{1, 9}";
},
{
origin = "{2, 9}";
target = "{2, 22}";
},
{
origin = "{1, 5}";
target = "{0, 2}";
},
{
horizontal = 1;
origin = "{0, 5}";
target = down;
type = TopGhost;
}
);
layerId = "FC85C3E9-DF31-40AF-806C-BAFB081E1A8E";
paths = (
{
closed = 1;
nodes = (
"379 147 OFFCURVE",
"419 188 OFFCURVE",
"419 330 CURVE SMOOTH",
"419 473 OFFCURVE",
"378 515 OFFCURVE",
"235 515 CURVE SMOOTH",
"91 515 OFFCURVE",
"52 473 OFFCURVE",
"52 330 CURVE SMOOTH",
"52 186 OFFCURVE",
"91 147 OFFCURVE",
"235 147 CURVE SMOOTH"
);
},
{
closed = 1;
nodes = (
"119 389 LINE SMOOTH",
"119 444 OFFCURVE",
"141 462 OFFCURVE",
"206 462 CURVE SMOOTH",
"351 462 LINE",
"351 273 LINE SMOOTH",
"351 218 OFFCURVE",
"330 200 OFFCURVE",
"265 200 CURVE SMOOTH",
"119 200 LINE"
);
},
{
closed = 1;
nodes = (
"424 29 OFFCURVE",
"401 41 OFFCURVE",
"236 58 CURVE",
"243 157 LINE",
"202 156 LINE",
"175 39 LINE",
"175 17 OFFCURVE",
"227 6 OFFCURVE",
"367 -2 CURVE",
"367 -89 LINE",
"328 -99 OFFCURVE",
"288 -102 OFFCURVE",
"226 -102 CURVE SMOOTH",
"178 -102 OFFCURVE",
"139 -96 OFFCURVE",
"68 -79 CURVE",
"59 -133 LINE",
"98 -151 OFFCURVE",
"168 -162 OFFCURVE",
"236 -162 CURVE SMOOTH",
"379 -162 OFFCURVE",
"424 -134 OFFCURVE",
"424 -46 CURVE SMOOTH"
);
},
{
closed = 1;
nodes = (
"459 509 LINE",
"425 544 LINE",
"345 483 LINE",
"389 434 LINE"
);
}
);
width = 491;
}
);
leftKerningGroup = g;
rightKerningGroup = g;
unicode = 0067;
},
{
color = 10;
glyphname = h;
layers = (
{
anchors = (
{
name = bottom;
position = "{285, 0}";
},
{
name = center;
position = "{137, 582}";
},
{
name = top;
position = "{137, 618}";
}
);
hints = (
{
horizontal = 1;
origin = "{0, 17}";
target = up;
type = BottomGhost;
},
{
horizontal = 1;
origin = "{0, 11}";
target = "{0, 4}";
},
{
origin = "{0, 17}";
target = "{0, 0}";
},
{
origin = "{0, 6}";
target = "{0, 7}";
},
{
horizontal = 1;
origin = "{0, 17}";
target = up;
type = BottomGhost;
},
{
horizontal = 1;
origin = "{0, 11}";
target = down;
type = TopGhost;
}
);
layerId = "FC85C3E9-DF31-40AF-806C-BAFB081E1A8E";
paths = (
{
closed = 1;
nodes = (
"169 0 LINE",
"169 392 LINE SMOOTH",
"169 441 OFFCURVE",
"189 455 OFFCURVE",
"260 455 CURVE SMOOTH",
"405 455 LINE",
"405 0 LINE",
"470 0 LINE",
"470 434 LINE SMOOTH",
"470 484 OFFCURVE",
"424 508 OFFCURVE",
"331 508 CURVE SMOOTH",
"258 508 OFFCURVE",
"211 495 OFFCURVE",
"168 462 CURVE",
"168 665 LINE",
"104 659 LINE",
"104 0 LINE"
);
}
);
width = 569;
}
);
leftKerningGroup = h;
leftMetricsKey = n;
rightKerningGroup = n;
rightMetricsKey = n;
unicode = 0068;
},
{
color = 10;
glyphname = idotless;
layers = (
{
anchors = (
{
name = bottom;
position = "{137, 0}";
},
{
name = ogonek;
position = "{169, 0}";
},
{
name = top;
position = "{137, 500}";
}
);
hints = (
{
horizontal = 1;
origin = "{0, 2}";
target = down;
type = TopGhost;
},
{
origin = "{0, 0}";
target = "{0, 1}";
},
{
horizontal = 1;
origin = "{0, 0}";
target = up;
type = BottomGhost;
},
{
horizontal = 1;
origin = "{0, 0}";
target = up;
type = BottomGhost;
},
{
horizontal = 1;
origin = "{0, 2}";
target = down;
type = TopGhost;
}
);
layerId = "FC85C3E9-DF31-40AF-806C-BAFB081E1A8E";
paths = (
{
closed = 1;
nodes = (
"104 0 LINE",
"169 0 LINE",
"169 511 LINE",
"104 499 LINE"
);
}
);
width = 273;
}
);
leftKerningGroup = idotless;
rightKerningGroup = idotless;
unicode = 0131;
},
{
color = 10;
glyphname = jdotless;
layers = (
{
anchors = (
{
name = bottom;
position = "{137, 0}";
},
{
name = top;
position = "{137, 500}";
}
);
hints = (
{
horizontal = 1;
origin = "{0, 12}";
target = "{0, 8}";
},
{
origin = "{0, 5}";
target = "{0, 2}";
},
{
horizontal = 1;
origin = "{0, 12}";
target = up;
type = BottomGhost;
},
{
horizontal = 1;
origin = "{0, 3}";
target = down;
type = TopGhost;
}
);
layerId = "FC85C3E9-DF31-40AF-806C-BAFB081E1A8E";
paths = (
{
closed = 1;
nodes = (
"135 -173 OFFCURVE",
"169 -142 OFFCURVE",
"169 -77 CURVE SMOOTH",
"169 511 LINE",
"104 499 LINE",
"104 -70 LINE SMOOTH",
"104 -122 OFFCURVE",
"90 -129 OFFCURVE",
"7 -129 CURVE",
"2 -164 LINE",
"17 -170 OFFCURVE",
"40 -173 OFFCURVE",
"60 -173 CURVE SMOOTH"
);
}
);
width = 273;
}
);
leftKerningGroup = jdotless;
rightKerningGroup = jdotless;
unicode = 0237;
},
{
color = 10;
glyphname = k;
layers = (
{
anchors = (
{
name = bottom;
position = "{261, 0}";
},
{
name = top;
position = "{261, 500}";
}
);
hints = (
{
horizontal = 1;
origin = "{0, 9}";
target = up;
type = BottomGhost;
},
{
horizontal = 1;
origin = "{0, 11}";
target = "{0, 6}";
},
{
origin = "{0, 9}";
target = "{0, 10}";
},
{
horizontal = 1;
origin = "{0, 7}";
target = down;
type = TopGhost;
},
{
horizontal = 1;
origin = "{0, 4}";
target = down;
type = TopGhost;
}
);
layerId = "FC85C3E9-DF31-40AF-806C-BAFB081E1A8E";
paths = (
{
closed = 1;
nodes = (
"389 0 LINE",
"455 0 LINE",
"318 269 LINE",
"450 500 LINE",
"382 500 LINE",
"264 294 LINE",
"169 294 LINE",
"169 665 LINE",
"104 650 LINE",
"104 0 LINE",
"169 0 LINE",
"169 241 LINE",
"264 241 LINE"
);
}
);
width = 467;
}
);
leftKerningGroup = h;
leftMetricsKey = n;
rightKerningGroup = k;
unicode = 006B;
},
{
color = 10;
glyphname = kgreenlandic;
layers = (
{
anchors = (
{
name = bottom;
position = "{266, 0}";
},
{
name = top;
position = "{266, 500}";
}
);
hints = (
{
horizontal = 1;
origin = "{0, 11}";
target = "{0, 6}";
},
{
origin = "{0, 9}";
target = "{0, 10}";
},
{
horizontal = 1;
origin = "{0, 9}";
target = up;
type = BottomGhost;
},
{
horizontal = 1;
origin = "{0, 8}";
target = down;
type = TopGhost;
}
);
layerId = "FC85C3E9-DF31-40AF-806C-BAFB081E1A8E";
paths = (
{
closed = 1;
nodes = (
"408 0 LINE",
"474 0 LINE",
"337 250 LINE",
"469 500 LINE",
"401 500 LINE",
"283 275 LINE",
"169 275 LINE",
"169 500 LINE",
"104 500 LINE",
"104 0 LINE",
"169 0 LINE",
"169 222 LINE",
"282 222 LINE"
);
}
);
width = 486;
}
);
leftKerningGroup = h;
leftMetricsKey = n;
rightKerningGroup = k;
unicode = 0138;
},
{
color = 10;
glyphname = l;
layers = (
{
anchors = (
{
name = bottom;
position = "{130, 0}";
},
{
name = center;
position = "{130, 330}";
},
{
name = top;
position = "{130, 618}";
},
{
name = topright;
position = "{162, 500}";
}
);
hints = (
{
origin = "{0, 2}";
target = "{0, 12}";
},
{
horizontal = 1;
origin = "{0, 5}";
target = "{0, 9}";
},
{
horizontal = 1;
origin = "{0, 5}";
target = up;
type = BottomGhost;
},
{
horizontal = 1;
origin = "{0, 0}";
target = down;
type = TopGhost;
}
);
layerId = "FC85C3E9-DF31-40AF-806C-BAFB081E1A8E";
paths = (
{
closed = 1;
nodes = (
"162 665 LINE",
"97 650 LINE",
"97 55 LINE SMOOTH",
"97 12 OFFCURVE",
"115 -8 OFFCURVE",
"152 -8 CURVE SMOOTH",
"167 -8 OFFCURVE",
"180 -6 OFFCURVE",
"202 1 CURVE",
"207 46 LINE",
"190 47 OFFCURVE",
"171 49 OFFCURVE",
"162 50 CURVE"
);
}
);
width = 258;
}
);
leftKerningGroup = h;
rightKerningGroup = l;
unicode = 006C;
},
{
color = 10;
glyphname = m;
layers = (
{
hints = (
{
horizontal = 1;
origin = "{0, 17}";
target = up;
type = BottomGhost;
},
{
horizontal = 1;
origin = "{0, 11}";
target = "{0, 4}";
},
{
horizontal = 1;
origin = "{0, 16}";
target = down;
type = TopGhost;
},
{
origin = "{0, 17}";
target = "{0, 0}";
},
{
origin = "{0, 6}";
target = "{0, 7}";
},
{
origin = "{1, 6}";
target = "{1, 7}";
}
);
layerId = "FC85C3E9-DF31-40AF-806C-BAFB081E1A8E";
paths = (
{
closed = 1;
nodes = (
"169 0 LINE",
"169 387 LINE SMOOTH",
"169 441 OFFCURVE",
"191 455 OFFCURVE",
"270 455 CURVE SMOOTH",
"395 455 LINE",
"395 0 LINE",
"460 0 LINE",
"460 434 LINE SMOOTH",
"460 484 OFFCURVE",
"414 508 OFFCURVE",
"321 508 CURVE SMOOTH",
"246 508 OFFCURVE",
"195 491 OFFCURVE",
"150 450 CURVE",
"131 500 LINE",
"104 500 LINE",
"104 0 LINE"
);
},
{
closed = 1;
nodes = (
"459 0 LINE",
"459 387 LINE SMOOTH",
"459 441 OFFCURVE",
"480 455 OFFCURVE",
"560 455 CURVE SMOOTH",
"685 455 LINE",
"685 0 LINE",
"750 0 LINE",
"750 434 LINE SMOOTH",
"750 484 OFFCURVE",
"703 508 OFFCURVE",
"611 508 CURVE SMOOTH",
"535 508 OFFCURVE",
"484 491 OFFCURVE",
"440 450 CURVE",
"395 500 LINE",
"395 0 LINE"
);
}
);
width = 849;
}
);
leftKerningGroup = n;
leftMetricsKey = n;
rightKerningGroup = n;
rightMetricsKey = n;
unicode = 006D;
},
{
color = 10;
glyphname = n;
layers = (
{
anchors = (
{
name = bottom;
position = "{285, 0}";
},
{
name = top;
position = "{295, 500}";
}
);
hints = (
{
horizontal = 1;
origin = "{0, 11}";
target = "{0, 4}";
},
{
horizontal = 1;
origin = "{0, 16}";
target = down;
type = TopGhost;
},
{
origin = "{0, 17}";
target = "{0, 0}";
},
{
origin = "{0, 6}";
target = "{0, 7}";
},
{
horizontal = 1;
origin = "{0, 17}";
target = up;
type = BottomGhost;
}
);
layerId = "FC85C3E9-DF31-40AF-806C-BAFB081E1A8E";
paths = (
{
closed = 1;
nodes = (
"169 0 LINE",
"169 387 LINE SMOOTH",
"169 441 OFFCURVE",
"191 455 OFFCURVE",
"270 455 CURVE SMOOTH",
"405 455 LINE",
"405 0 LINE",
"470 0 LINE",
"470 434 LINE SMOOTH",
"470 484 OFFCURVE",
"424 508 OFFCURVE",
"331 508 CURVE SMOOTH",
"251 508 OFFCURVE",
"197 490 OFFCURVE",
"150 450 CURVE",
"131 500 LINE",
"104 500 LINE",
"104 0 LINE"
);
}
);
width = 569;
}
);
leftKerningGroup = n;
rightKerningGroup = n;
unicode = 006E;
},
{
color = 1;
glyphname = eng;
lastChange = "2016-02-27 16:05:17 +0000";
layers = (
{
components = (
{
name = n;
}
);
hints = (
{
horizontal = 1;
origin = "{0, 12}";
target = "{0, 8}";
},
{
origin = "{0, 5}";
target = "{0, 2}";
},
{
horizontal = 1;
origin = "{0, 12}";
target = up;
type = BottomGhost;
}
);
layerId = "FC85C3E9-DF31-40AF-806C-BAFB081E1A8E";
paths = (
{
closed = 1;
nodes = (
"437 -173 OFFCURVE",
"471 -142 OFFCURVE",
"471 -77 CURVE SMOOTH",
"471 23 LINE",
"406 23 LINE",
"406 -74 LINE SMOOTH",
"406 -126 OFFCURVE",
"393 -133 OFFCURVE",
"309 -134 CURVE",
"304 -164 LINE",
"321 -170 OFFCURVE",
"344 -173 OFFCURVE",
"362 -173 CURVE SMOOTH"
);
}
);
width = 570;
}
);
leftKerningGroup = n;
leftMetricsKey = n;
rightKerningGroup = n;
rightMetricsKey = n;
unicode = 014B;
},
{
color = 10;
glyphname = o;
layers = (
{
anchors = (
{
name = bottom;
position = "{271, 0}";
},
{
name = center;
position = "{271, 250}";
},
{
name = ogonek;
position = "{369, 0}";
},
{
name = top;
position = "{271, 500}";
},
{
name = topright;
position = "{536, 500}";
}
);
hints = (
{
horizontal = 1;
origin = "{0, 11}";
target = "{1, 9}";
},
{
horizontal = 1;
origin = "{0, 5}";
target = "{1, 3}";
},
{
origin = "{0, 8}";
target = "{1, 9}";
},
{
origin = "{1, 5}";
target = "{0, 2}";
},
{
horizontal = 1;
origin = "{0, 11}";
target = up;
type = BottomGhost;
},
{
horizontal = 1;
origin = "{0, 5}";
target = down;
type = TopGhost;
}
);
layerId = "FC85C3E9-DF31-40AF-806C-BAFB081E1A8E";
paths = (
{
closed = 1;
nodes = (
"441 -8 OFFCURVE",
"470 32 OFFCURVE",
"470 250 CURVE SMOOTH",
"470 469 OFFCURVE",
"444 508 OFFCURVE",
"270 508 CURVE SMOOTH",
"99 508 OFFCURVE",
"70 468 OFFCURVE",
"70 250 CURVE SMOOTH",
"70 32 OFFCURVE",
"99 -8 OFFCURVE",
"270 -8 CURVE SMOOTH"
);
},
{
closed = 1;
nodes = (
"136 426 LINE SMOOTH",
"136 446 OFFCURVE",
"146 450 OFFCURVE",
"187 450 CURVE SMOOTH",
"406 450 LINE",
"406 74 LINE SMOOTH",
"406 54 OFFCURVE",
"396 50 OFFCURVE",
"355 50 CURVE SMOOTH",
"136 50 LINE"
);
}
);
width = 541;
}
);
leftKerningGroup = o;
rightKerningGroup = o;
unicode = 006F;
},
{
color = 10;
glyphname = oe;
lastChange = "2016-02-27 16:05:17 +0000";
layers = (
{
anchors = (
{
name = bottom;
position = "{438, 0}";
},
{
name = top;
position = "{438, 500}";
}
);
hints = (
{
horizontal = 1;
origin = "{2, 20}";
target = "{2, 19}";
},
{
horizontal = 1;
origin = "{2, 27}";
target = "{2, 13}";
},
{
horizontal = 1;
origin = "{2, 33}";
target = "{2, 6}";
},
{
place = "{87.75, 141.75}";
},
{
origin = "{2, 15}";
target = "{2, 24}";
},
{
origin = "{2, 30}";
target = "{2, 9}";
},
{
horizontal = 1;
origin = "{0, 11}";
target = up;
type = BottomGhost;
},
{
horizontal = 1;
origin = "{0, 5}";
target = down;
type = TopGhost;
}
);
layerId = "FC85C3E9-DF31-40AF-806C-BAFB081E1A8E";
paths = (
{
closed = 1;
nodes = (
"435 -8 OFFCURVE",
"464 32 OFFCURVE",
"464 250 CURVE SMOOTH",
"464 471 OFFCURVE",
"438 508 OFFCURVE",
"270 508 CURVE SMOOTH",
"99 508 OFFCURVE",
"70 468 OFFCURVE",
"70 250 CURVE SMOOTH",
"70 32 OFFCURVE",
"99 -8 OFFCURVE",
"270 -8 CURVE SMOOTH"
);
},
{
closed = 1;
nodes = (
"136 426 LINE SMOOTH",
"136 446 OFFCURVE",
"146 450 OFFCURVE",
"187 450 CURVE SMOOTH",
"406 450 LINE",
"406 74 LINE SMOOTH",
"406 54 OFFCURVE",
"396 50 OFFCURVE",
"355 50 CURVE SMOOTH",
"136 50 LINE"
);
},
{
closed = 1;
nodes = (
"647 -8 OFFCURVE",
"725 3 OFFCURVE",
"770 20 CURVE",
"761 71 LINE",
"684 52 OFFCURVE",
"641 47 OFFCURVE",
"590 47 CURVE SMOOTH",
"539 47 OFFCURVE",
"506 51 OFFCURVE",
"470 61 CURVE",
"470 383 LINE SMOOTH",
"470 434 OFFCURVE",
"490 448 OFFCURVE",
"558 448 CURVE SMOOTH",
"725 448 LINE",
"725 325 LINE SMOOTH",
"725 275 OFFCURVE",
"705 261 OFFCURVE",
"636 261 CURVE SMOOTH",
"440 261 LINE",
"440 208 LINE",
"470 208 LINE SMOOTH",
"759 208 OFFCURVE",
"783 220 OFFCURVE",
"783 365 CURVE SMOOTH",
"783 479 OFFCURVE",
"746 508 OFFCURVE",
"596 508 CURVE SMOOTH",
"447 508 OFFCURVE",
"410 455 OFFCURVE",
"410 250 CURVE SMOOTH",
"410 39 OFFCURVE",
"436 -8 OFFCURVE",
"573 -8 CURVE SMOOTH"
);
}
);
width = 864;
}
);
leftKerningGroup = o;
leftMetricsKey = o;
rightKerningGroup = e;
rightMetricsKey = e;
unicode = 0153;
},
{
color = 10;
glyphname = p;
layers = (
{
hints = (
{
horizontal = 1;
origin = "{0, 11}";
target = "{1, 9}";
},
{
horizontal = 1;
origin = "{0, 5}";
target = "{1, 3}";
},
{
horizontal = 1;
origin = "{0, 5}";
target = down;
type = TopGhost;
},
{
origin = "{2, 4}";
target = "{2, 0}";
},
{
origin = "{1, 5}";
target = "{0, 2}";
},
{
horizontal = 1;
origin = "{2, 4}";
target = up;
type = BottomGhost;
},
{
horizontal = 1;
origin = "{0, 11}";
target = up;
type = BottomGhost;
}
);
layerId = "FC85C3E9-DF31-40AF-806C-BAFB081E1A8E";
paths = (
{
closed = 1;
nodes = (
"463 -15 OFFCURVE",
"489 28 OFFCURVE",
"489 250 CURVE SMOOTH",
"489 469 OFFCURVE",
"466 508 OFFCURVE",
"321 508 CURVE SMOOTH",
"141 508 OFFCURVE",
"121 483 OFFCURVE",
"121 250 CURVE SMOOTH",
"121 13 OFFCURVE",
"141 -15 OFFCURVE",
"321 -15 CURVE SMOOTH"
);
},
{
closed = 1;
nodes = (
"169 433 LINE SMOOTH",
"169 446 OFFCURVE",
"181 450 OFFCURVE",
"217 450 CURVE SMOOTH",
"423 450 LINE",
"423 67 LINE SMOOTH",
"423 47 OFFCURVE",
"413 43 OFFCURVE",
"374 43 CURVE SMOOTH",
"169 43 LINE"
);
},
{
closed = 1;
nodes = (
"169 -170 LINE",
"169 412 LINE",
"131 500 LINE",
"104 500 LINE",
"104 -181 LINE"
);
}
);
width = 560;
}
);
leftKerningGroup = p;
leftMetricsKey = n;
rightKerningGroup = o;
rightMetricsKey = o;
unicode = 0070;
},
{
color = 10;
glyphname = thorn;
layers = (
{
hints = (
{
horizontal = 1;
origin = "{0, 11}";
target = "{1, 9}";
},
{
horizontal = 1;
origin = "{0, 5}";
target = "{1, 3}";
},
{
horizontal = 1;
place = "{877.5, -27}";
target = down;
type = TopGhost;
},
{
origin = "{2, 3}";
target = "{2, 0}";
},
{
origin = "{1, 5}";
target = "{0, 2}";
},
{
horizontal = 1;
origin = "{0, 11}";
target = up;
type = BottomGhost;
},
{
horizontal = 1;
origin = "{0, 5}";
target = down;
type = TopGhost;
}
);
layerId = "FC85C3E9-DF31-40AF-806C-BAFB081E1A8E";
paths = (
{
closed = 1;
nodes = (
"463 -15 OFFCURVE",
"489 28 OFFCURVE",
"489 250 CURVE SMOOTH",
"489 469 OFFCURVE",
"466 508 OFFCURVE",
"321 508 CURVE SMOOTH",
"141 508 OFFCURVE",
"121 483 OFFCURVE",
"121 250 CURVE SMOOTH",
"121 13 OFFCURVE",
"141 -15 OFFCURVE",
"321 -15 CURVE SMOOTH"
);
},
{
closed = 1;
nodes = (
"169 433 LINE SMOOTH",
"169 446 OFFCURVE",
"181 450 OFFCURVE",
"217 450 CURVE SMOOTH",
"423 450 LINE",
"423 67 LINE SMOOTH",
"423 47 OFFCURVE",
"413 43 OFFCURVE",
"374 43 CURVE SMOOTH",
"169 43 LINE"
);
},
{
closed = 1;
nodes = (
"169 -170 LINE",
"169 665 LINE",
"104 650 LINE",
"104 -181 LINE"
);
}
);
width = 560;
}
);
leftKerningGroup = p;
leftMetricsKey = n;
rightKerningGroup = o;
rightMetricsKey = o;
unicode = 00FE;
},
{
color = 10;
glyphname = q;
layers = (
{
hints = (
{
horizontal = 1;
origin = "{0, 11}";
target = "{1, 9}";
},
{
horizontal = 1;
origin = "{0, 5}";
target = "{1, 3}";
},
{
horizontal = 1;
origin = "{0, 5}";
target = "{1, 3}";
},
{
origin = "{0, 8}";
target = "{1, 9}";
},
{
origin = "{2, 3}";
target = "{2, 4}";
},
{
horizontal = 1;
origin = "{0, 11}";
target = up;
type = BottomGhost;
},
{
horizontal = 1;
origin = "{0, 5}";
target = down;
type = TopGhost;
}
);
layerId = "FC85C3E9-DF31-40AF-806C-BAFB081E1A8E";
paths = (
{
closed = 1;
nodes = (
"418 -15 OFFCURVE",
"438 13 OFFCURVE",
"438 250 CURVE SMOOTH",
"438 483 OFFCURVE",
"418 508 OFFCURVE",
"238 508 CURVE SMOOTH",
"93 508 OFFCURVE",
"70 469 OFFCURVE",
"70 250 CURVE SMOOTH",
"70 28 OFFCURVE",
"96 -15 OFFCURVE",
"238 -15 CURVE SMOOTH"
);
},
{
closed = 1;
nodes = (
"137 433 LINE SMOOTH",
"137 446 OFFCURVE",
"149 450 OFFCURVE",
"185 450 CURVE SMOOTH",
"391 450 LINE",
"391 67 LINE SMOOTH",
"391 47 OFFCURVE",
"381 43 OFFCURVE",
"342 43 CURVE SMOOTH",
"137 43 LINE"
);
},
{
closed = 1;
nodes = (
"456 500 LINE",
"429 500 LINE",
"391 412 LINE",
"391 -181 LINE",
"456 -170 LINE"
);
}
);
width = 560;
}
);
leftKerningGroup = o;
leftMetricsKey = o;
rightKerningGroup = q;
rightMetricsKey = "=|n";
unicode = 0071;
},
{
color = 10;
glyphname = r;
layers = (
{
anchors = (
{
name = bottom;
position = "{137, 0}";
},
{
name = top;
position = "{198, 500}";
}
);
hints = (
{
origin = "{0, 1}";
target = "{0, 2}";
},
{
horizontal = 1;
origin = "{0, 7}";
target = "{0, 6}";
},
{
horizontal = 1;
origin = "{0, 1}";
target = up;
type = BottomGhost;
},
{
horizontal = 1;
origin = "{0, 0}";
target = down;
type = TopGhost;
}
);
layerId = "FC85C3E9-DF31-40AF-806C-BAFB081E1A8E";
paths = (
{
closed = 1;
nodes = (
"104 500 LINE",
"104 0 LINE",
"169 0 LINE",
"169 378 LINE",
"206 407 OFFCURVE",
"256 434 OFFCURVE",
"303 451 CURVE",
"294 515 LINE",
"265 502 OFFCURVE",
"228 475 OFFCURVE",
"160 416 CURVE",
"132 500 LINE"
);
}
);
width = 321;
}
);
leftKerningGroup = n;
leftMetricsKey = n;
rightKerningGroup = r;
unicode = 0072;
},
{
color = 10;
glyphname = s;
layers = (
{
anchors = (
{
name = bottom;
position = "{234, 0}";
},
{
name = top;
position = "{243, 500}";
}
);
hints = (
{
horizontal = 1;
origin = "{0, 13}";
target = "{0, 6}";
},
{
horizontal = 1;
origin = "{0, 30}";
target = "{0, 23}";
},
{
horizontal = 1;
origin = "{0, 30}";
target = down;
type = TopGhost;
},
{
origin = "{0, 33}";
target = "{0, 19}";
},
{
origin = "{0, 3}";
target = "{0, 16}";
},
{
horizontal = 1;
origin = "{0, 13}";
target = up;
type = BottomGhost;
},
{
horizontal = 1;
origin = "{0, 30}";
target = down;
type = TopGhost;
}
);
layerId = "FC85C3E9-DF31-40AF-806C-BAFB081E1A8E";
paths = (
{
closed = 1;
nodes = (
"64 255 OFFCURVE",
"86 243 OFFCURVE",
"349 202 CURVE",
"349 56 LINE",
"303 43 OFFCURVE",
"278 40 OFFCURVE",
"230 40 CURVE SMOOTH",
"172 40 OFFCURVE",
"117 50 OFFCURVE",
"65 70 CURVE",
"52 12 LINE",
"115 -6 OFFCURVE",
"167 -15 OFFCURVE",
"220 -15 CURVE SMOOTH",
"365 -15 OFFCURVE",
"415 25 OFFCURVE",
"415 136 CURVE SMOOTH",
"415 247 OFFCURVE",
"379 268 OFFCURVE",
"131 304 CURVE",
"131 451 LINE",
"165 456 OFFCURVE",
"208 460 OFFCURVE",
"255 460 CURVE SMOOTH",
"293 460 OFFCURVE",
"346 452 OFFCURVE",
"379 443 CURVE",
"390 493 LINE",
"340 508 OFFCURVE",
"296 515 OFFCURVE",
"241 515 CURVE SMOOTH",
"120 515 OFFCURVE",
"64 471 OFFCURVE",
"64 373 CURVE SMOOTH"
);
}
);
width = 467;
}
);
leftKerningGroup = s;
rightKerningGroup = s;
unicode = 0073;
},
{
color = 10;
glyphname = germandbls;
layers = (
{
hints = (
{
horizontal = 1;
origin = "{0, 43}";
target = "{0, 36}";
},
{
horizontal = 1;
origin = "{0, 15}";
target = "{0, 16}";
},
{
horizontal = 1;
origin = "{0, 23}";
target = "{0, 11}";
},
{
origin = "{0, 18}";
target = "{0, 19}";
},
{
origin = "{0, 33}";
target = "{0, 2}";
},
{
origin = "{0, 26}";
target = "{0, 8}";
},
{
horizontal = 1;
origin = "{0, 18}";
target = up;
type = BottomGhost;
},
{
horizontal = 1;
origin = "{0, 43}";
target = up;
type = BottomGhost;
},
{
horizontal = 1;
origin = "{0, 11}";
target = down;
type = TopGhost;
}
);
layerId = "FC85C3E9-DF31-40AF-806C-BAFB081E1A8E";
paths = (
{
closed = 1;
nodes = (
"506 -15 OFFCURVE",
"559 28 OFFCURVE",
"559 131 CURVE SMOOTH",
"559 216 OFFCURVE",
"522 252 OFFCURVE",
"375 317 CURVE",
"466 414 OFFCURVE",
"497 467 OFFCURVE",
"497 529 CURVE SMOOTH",
"497 629 OFFCURVE",
"438 675 OFFCURVE",
"302 675 CURVE SMOOTH",
"187 675 OFFCURVE",
"142 628 OFFCURVE",
"134 500 CURVE",
"57 500 LINE",
"57 452 LINE",
"134 452 LINE",
"134 0 LINE",
"199 0 LINE",
"199 610 LINE",
"241 617 OFFCURVE",
"271 620 OFFCURVE",
"295 620 CURVE SMOOTH",
"389 620 OFFCURVE",
"432 590 OFFCURVE",
"432 524 CURVE SMOOTH",
"432 417 OFFCURVE",
"326 382 OFFCURVE",
"326 313 CURVE SMOOTH",
"326 283 OFFCURVE",
"341 273 OFFCURVE",
"494 196 CURVE",
"494 48 LINE",
"471 43 OFFCURVE",
"442 40 OFFCURVE",
"406 40 CURVE SMOOTH",
"355 40 OFFCURVE",
"296 51 OFFCURVE",
"252 69 CURVE",
"239 11 LINE",
"299 -6 OFFCURVE",
"345 -15 OFFCURVE",
"381 -15 CURVE SMOOTH"
);
}
);
width = 611;
}
);
leftKerningGroup = h;
leftMetricsKey = f;
rightKerningGroup = germandbls;
rightMetricsKey = s;
unicode = 00DF;
},
{
color = 10;
glyphname = t;
layers = (
{
anchors = (
{
name = bottom;
position = "{175, 0}";
},
{
name = center;
position = "{170, 262}";
},
{
name = top;
position = "{170, 625}";
},
{
name = topright;
position = "{259, 500}";
}
);
hints = (
{
horizontal = 1;
origin = "{0, 12}";
target = "{0, 3}";
},
{
horizontal = 1;
origin = "{1, 2}";
target = "{1, 3}";
},
{
horizontal = 1;
origin = "{0, 7}";
target = down;
type = TopGhost;
},
{
origin = "{0, 9}";
target = "{0, 6}";
},
{
horizontal = 1;
origin = "{0, 12}";
target = up;
type = BottomGhost;
},
{
horizontal = 1;
origin = "{0, 7}";
target = down;
type = TopGhost;
}
);
layerId = "FC85C3E9-DF31-40AF-806C-BAFB081E1A8E";
paths = (
{
closed = 1;
nodes = (
"208 -8 OFFCURVE",
"233 -6 OFFCURVE",
"272 1 CURVE",
"277 46 LINE",
"237 47 OFFCURVE",
"219 49 OFFCURVE",
"202 50 CURVE",
"202 633 LINE",
"137 616 LINE",
"137 55 LINE SMOOTH",
"137 12 OFFCURVE",
"155 -8 OFFCURVE",
"192 -8 CURVE SMOOTH"
);
},
{
closed = 1;
nodes = (
"298 452 LINE",
"298 500 LINE",
"60 500 LINE",
"60 452 LINE"
);
}
);
width = 351;
}
);
leftKerningGroup = t;
rightKerningGroup = t;
unicode = 0074;
},
{
color = 10;
glyphname = u;
layers = (
{
anchors = (
{
name = bottom;
position = "{285, 0}";
},
{
name = ogonek;
position = "{464, 0}";
},
{
name = top;
position = "{285, 500}";
},
{
name = topright;
position = "{465, 500}";
}
);
hints = (
{
horizontal = 1;
origin = "{0, 11}";
target = "{0, 5}";
},
{
horizontal = 1;
origin = "{0, 7}";
target = down;
type = TopGhost;
},
{
origin = "{0, 8}";
target = "{0, 5}";
},
{
origin = "{0, 1}";
target = "{0, 16}";
},
{
horizontal = 1;
origin = "{0, 7}";
target = down;
type = TopGhost;
},
{
horizontal = 1;
origin = "{0, 11}";
target = up;
type = BottomGhost;
}
);
layerId = "FC85C3E9-DF31-40AF-806C-BAFB081E1A8E";
paths = (
{
closed = 1;
nodes = (
"400 500 LINE",
"400 117 LINE SMOOTH",
"400 63 OFFCURVE",
"379 48 OFFCURVE",
"299 48 CURVE SMOOTH",
"164 48 LINE",
"164 500 LINE",
"99 500 LINE",
"99 83 LINE SMOOTH",
"99 21 OFFCURVE",
"138 -8 OFFCURVE",
"225 -8 CURVE SMOOTH",
"309 -8 OFFCURVE",
"368 10 OFFCURVE",
"419 50 CURVE",
"438 0 LINE",
"465 0 LINE",
"465 500 LINE"
);
}
);
width = 569;
}
);
leftKerningGroup = u;
leftMetricsKey = "=|n";
rightKerningGroup = u;
rightMetricsKey = "=|n";
unicode = 0075;
},
{
color = 10;
glyphname = v;
layers = (
{
hints = (
{
horizontal = 1;
origin = "{0, 0}";
target = "{0, 5}";
},
{
horizontal = 1;
origin = "{0, 0}";
target = up;
type = BottomGhost;
},
{
horizontal = 1;
origin = "{0, 7}";
target = down;
type = TopGhost;
}
);
layerId = "FC85C3E9-DF31-40AF-806C-BAFB081E1A8E";
paths = (
{
closed = 1;
nodes = (
"167 0 LINE",
"267 0 LINE",
"427 500 LINE",
"362 500 LINE",
"222 54 LINE",
"212 54 LINE",
"72 500 LINE",
"7 500 LINE"
);
}
);
width = 434;
}
);
leftKerningGroup = v;
rightKerningGroup = v;
unicode = 0076;
},
{
color = 10;
glyphname = w;
layers = (
{
anchors = (
{
name = bottom;
position = "{334, 0}";
},
{
name = top;
position = "{334, 500}";
}
);
hints = (
{
horizontal = 1;
origin = "{1, 7}";
target = "{1, 4}";
},
{
horizontal = 1;
origin = "{1, 7}";
target = up;
type = BottomGhost;
},
{
horizontal = 1;
origin = "{1, 6}";
target = down;
type = TopGhost;
}
);
layerId = "FC85C3E9-DF31-40AF-806C-BAFB081E1A8E";
paths = (
{
closed = 1;
nodes = (
"527 0 LINE",
"660 500 LINE",
"595 500 LINE",
"484 54 LINE",
"474 54 LINE",
"366 500 LINE",
"309 500 LINE",
"434 0 LINE"
);
},
{
closed = 1;
nodes = (
"234 0 LINE",
"358 500 LINE",
"301 500 LINE",
"193 54 LINE",
"183 54 LINE",
"72 500 LINE",
"7 500 LINE",
"140 0 LINE"
);
}
);
width = 668;
}
);
leftKerningGroup = w;
rightKerningGroup = w;
unicode = 0077;
},
{
color = 10;
glyphname = x;
layers = (
{
hints = (
{
horizontal = 1;
origin = "{1, 3}";
target = up;
type = BottomGhost;
},
{
horizontal = 1;
origin = "{0, 2}";
target = down;
type = TopGhost;
}
);
layerId = "FC85C3E9-DF31-40AF-806C-BAFB081E1A8E";
paths = (
{
closed = 1;
nodes = (
"453 0 LINE",
"108 500 LINE",
"41 500 LINE",
"386 0 LINE"
);
},
{
closed = 1;
nodes = (
"102 0 LINE",
"246 221 LINE",
"209 261 LINE",
"34 0 LINE"
);
},
{
closed = 1;
nodes = (
"445 500 LINE",
"377 500 LINE",
"233 279 LINE",
"272 243 LINE"
);
}
);
width = 486;
}
);
leftKerningGroup = x;
rightKerningGroup = x;
unicode = 0078;
},
{
color = 10;
glyphname = y;
layers = (
{
anchors = (
{
name = bottom;
position = "{212, -173}";
},
{
name = top;
position = "{212, 500}";
}
);
hints = (
{
horizontal = 1;
origin = "{0, 7}";
target = "{0, 4}";
},
{
horizontal = 1;
origin = "{1, 12}";
target = "{1, 8}";
},
{
horizontal = 1;
origin = "{1, 12}";
target = up;
type = BottomGhost;
},
{
horizontal = 1;
origin = "{0, 6}";
target = down;
type = TopGhost;
}
);
layerId = "FC85C3E9-DF31-40AF-806C-BAFB081E1A8E";
paths = (
{
closed = 1;
nodes = (
"262 23 LINE",
"417 500 LINE",
"352 500 LINE",
"217 76 LINE",
"207 76 LINE",
"72 500 LINE",
"7 500 LINE",
"162 23 LINE"
);
},
{
closed = 1;
nodes = (
"168 -173 OFFCURVE",
"213 -126 OFFCURVE",
"262 23 CURVE",
"197 23 LINE",
"185 -14 LINE SMOOTH",
"160 -92 OFFCURVE",
"136 -111 OFFCURVE",
"54 -122 CURVE SMOOTH",
"3 -129 LINE",
"1 -164 LINE",
"22 -170 OFFCURVE",
"52 -173 OFFCURVE",
"76 -173 CURVE SMOOTH"
);
}
);
width = 424;
}
);
leftKerningGroup = y;
rightKerningGroup = y;
unicode = 0079;
},
{
color = 10;
glyphname = z;
layers = (
{
anchors = (
{
name = bottom;
position = "{227, 0}";
},
{
name = top;
position = "{251, 500}";
}
);
hints = (
{
horizontal = 1;
origin = "{0, 1}";
target = "{0, 4}";
},
{
horizontal = 1;
origin = "{0, 8}";
target = "{0, 9}";
},
{
horizontal = 1;
origin = "{0, 1}";
target = up;
type = BottomGhost;
},
{
horizontal = 1;
origin = "{0, 8}";
target = down;
type = TopGhost;
}
);
layerId = "FC85C3E9-DF31-40AF-806C-BAFB081E1A8E";
paths = (
{
closed = 1;
nodes = (
"42 36 LINE",
"42 0 LINE",
"405 0 LINE",
"405 47 LINE",
"124 47 LINE",
"121 53 LINE",
"414 464 LINE",
"414 500 LINE",
"64 500 LINE",
"70 453 LINE",
"330 453 LINE",
"335 447 LINE"
);
}
);
width = 453;
}
);
leftKerningGroup = z;
rightKerningGroup = z;
unicode = 007A;
},
{
color = 10;
glyphname = ordfeminine;
lastChange = "2016-02-27 16:05:17 +0000";
layers = (
{
components = (
{
name = strokeshortcomb;
transform = "{1.1, 0, 0, 1, 13, -9}";
}
);
hints = (
{
horizontal = 1;
origin = "{0, 12}";
target = "{0, 15}";
},
{
horizontal = 1;
origin = "{0, 8}";
},
{
horizontal = 1;
place = "{893.7, 83.7}";
},
{
origin = "{0, 12}";
target = "{0, 24}";
},
{
origin = "{0, 30}";
target = "{0, 3}";
}
);
layerId = "FC85C3E9-DF31-40AF-806C-BAFB081E1A8E";
paths = (
{
closed = 1;
nodes = (
"209 343 OFFCURVE",
"253 357 OFFCURVE",
"290 389 CURVE",
"307 350 LINE",
"331 350 LINE",
"333 643 LINE SMOOTH",
"333 720 OFFCURVE",
"299 745 OFFCURVE",
"197 745 CURVE SMOOTH",
"148 745 OFFCURVE",
"84 736 OFFCURVE",
"51 724 CURVE",
"59 680 LINE",
"104 691 OFFCURVE",
"148 697 OFFCURVE",
"184 697 CURVE SMOOTH",
"221 697 OFFCURVE",
"249 695 OFFCURVE",
"274 689 CURVE",
"274 440 LINE SMOOTH",
"274 403 OFFCURVE",
"259 392 OFFCURVE",
"209 392 CURVE SMOOTH",
"84 392 LINE",
"84 486 LINE SMOOTH",
"84 524 OFFCURVE",
"100 535 OFFCURVE",
"151 535 CURVE SMOOTH",
"298 535 LINE",
"298 576 LINE",
"267 576 LINE SMOOTH",
"54 576 OFFCURVE",
"33 565 OFFCURVE",
"33 455 CURVE SMOOTH",
"33 374 OFFCURVE",
"65 343 OFFCURVE",
"149 343 CURVE SMOOTH"
);
}
);
width = 383;
}
);
leftKerningGroup = ordfeminine;
leftMetricsKey = "=a/2";
rightKerningGroup = ordfeminine;
rightMetricsKey = "=a/2";
unicode = 00AA;
userData = {
RMXScaler = {
source = a;
};
};
},
{
color = 10;
glyphname = ordmasculine;
layers = (
{
components = (
{
name = strokeshortcomb;
transform = "{1.2, 0, 0, 1, 61, -9}";
}
);
hints = (
{
horizontal = 1;
place = "{938.25, 0}";
},
{
horizontal = 1;
place = "{951.75, 83.7}";
},
{
origin = "{0, 8}";
target = "{1, 0}";
},
{
origin = "{0, 5}";
target = "{0, 5}";
}
);
layerId = "FC85C3E9-DF31-40AF-806C-BAFB081E1A8E";
paths = (
{
closed = 1;
nodes = (
"386 353 OFFCURVE",
"410 388 OFFCURVE",
"410 560 CURVE SMOOTH",
"410 734 OFFCURVE",
"388 767 OFFCURVE",
"245 767 CURVE SMOOTH",
"104 767 OFFCURVE",
"80 732 OFFCURVE",
"80 560 CURVE SMOOTH",
"80 388 OFFCURVE",
"104 353 OFFCURVE",
"245 353 CURVE SMOOTH"
);
},
{
closed = 1;
nodes = (
"137 697 LINE SMOOTH",
"137 712 OFFCURVE",
"147 716 OFFCURVE",
"178 716 CURVE SMOOTH",
"352 716 LINE",
"352 423 LINE SMOOTH",
"352 408 OFFCURVE",
"344 404 OFFCURVE",
"311 404 CURVE SMOOTH",
"137 404 LINE"
);
}
);
width = 489;
}
);
leftKerningGroup = ordmasculine;
rightKerningGroup = ordmasculine;
unicode = 00BA;
userData = {
RMXScaler = {
source = o;
};
};
},
{
color = 10;
glyphname = Omega;
layers = (
{
layerId = "FC85C3E9-DF31-40AF-806C-BAFB081E1A8E";
paths = (
{
closed = 1;
nodes = (
"431 591 LINE SMOOTH",
"475 591 OFFCURVE",
"510 588 OFFCURVE",
"510 523 CURVE SMOOTH",
"510 172 LINE",
"413 172 LINE",
"428 0 LINE",
"596 0 LINE",
"596 42 LINE",
"470 50 LINE",
"462 133 LINE",
"561 156 OFFCURVE",
"579 191 OFFCURVE",
"579 375 CURVE SMOOTH",
"579 607 OFFCURVE",
"540 640 OFFCURVE",
"323 640 CURVE SMOOTH",
"106 640 OFFCURVE",
"66 607 OFFCURVE",
"66 375 CURVE SMOOTH",
"66 191 OFFCURVE",
"85 156 OFFCURVE",
"184 133 CURVE",
"175 50 LINE",
"50 42 LINE",
"50 0 LINE",
"217 0 LINE",
"232 172 LINE",
"178 172 OFFCURVE",
"136 177 OFFCURVE",
"136 271 CURVE SMOOTH",
"136 591 LINE"
);
}
);
width = 645;
}
);
leftKerningGroup = uni03A9;
rightKerningGroup = uni03A9;
unicode = 03A9;
},
{
color = 10;
glyphname = pi;
layers = (
{
layerId = "FC85C3E9-DF31-40AF-806C-BAFB081E1A8E";
paths = (
{
closed = 1;
nodes = (
"151 0 LINE",
"211 400 LINE SMOOTH",
"213 424 OFFCURVE",
"233 438 OFFCURVE",
"264 438 CURVE SMOOTH",
"456 437 LINE SMOOTH",
"520 437 OFFCURVE",
"529 447 OFFCURVE",
"529 529 CURVE",
"476 536 LINE",
"475 521 OFFCURVE",
"473 509 OFFCURVE",
"470 500 CURVE",
"92 500 LINE",
"92 452 LINE",
"138 440 LINE",
"107 0 LINE"
);
},
{
closed = 1;
nodes = (
"478 -4 OFFCURVE",
"490 -2 OFFCURVE",
"518 5 CURVE",
"523 50 LINE",
"506 51 OFFCURVE",
"493 53 OFFCURVE",
"478 54 CURVE",
"478 446 LINE",
"413 446 LINE",
"413 59 LINE SMOOTH",
"413 16 OFFCURVE",
"431 -4 OFFCURVE",
"468 -4 CURVE SMOOTH"
);
}
);
width = 603;
}
);
leftKerningGroup = pi;
rightKerningGroup = pi;
unicode = 03C0;
},
{
color = 4;
glyphname = "hamza-ar";
layers = (
{
anchors = (
{
name = bottom;
position = "{210, 0}";
},
{
name = top;
position = "{210, 500}";
}
);
hints = (
{
horizontal = 1;
origin = "{0, 6}";
target = "{0, 7}";
},
{
origin = "{0, 10}";
target = "{0, 2}";
}
);
layerId = "FC85C3E9-DF31-40AF-806C-BAFB081E1A8E";
paths = (
{
closed = 1;
nodes = (
"171 129 OFFCURVE",
"151 138 OFFCURVE",
"151 200 CURVE SMOOTH",
"151 388 LINE",
"203 418 OFFCURVE",
"280 433 OFFCURVE",
"357 433 CURVE",
"357 492 LINE",
"166 492 OFFCURVE",
"92 424 OFFCURVE",
"92 256 CURVE SMOOTH",
"92 194 OFFCURVE",
"102 147 OFFCURVE",
"122 116 CURVE",
"20 88 LINE",
"20 32 LINE",
"395 133 LINE",
"395 189 LINE",
"240 148 LINE SMOOTH"
);
}
);
width = 411;
}
);
unicode = 0621;
},
{
color = 4;
glyphname = "alef-ar";
layers = (
{
anchors = (
{
name = bottom;
position = "{137, -80}";
},
{
name = top;
position = "{137, 730}";
}
);
hints = (
{
horizontal = 1;
origin = "{0, 3}";
target = up;
type = BottomGhost;
},
{
horizontal = 1;
origin = "{0, 2}";
target = down;
type = TopGhost;
},
{
origin = "{0, 3}";
target = "{0, 0}";
},
{
horizontal = 1;
origin = "{0, 3}";
target = up;
type = BottomGhost;
},
{
horizontal = 1;
origin = "{0, 2}";
target = down;
type = TopGhost;
}
);
layerId = "FC85C3E9-DF31-40AF-806C-BAFB081E1A8E";
paths = (
{
closed = 1;
nodes = (
"162 0 LINE",
"162 630 LINE",
"110 630 LINE",
"110 0 LINE"
);
}
);
width = 273;
}
);
unicode = 0627;
},
{
color = 4;
glyphname = "alef-ar.fina";
layers = (
{
anchors = (
{
name = bottom;
position = "{137, -80}";
},
{
name = entry;
position = "{273, 29}";
},
{
name = top;
position = "{137, 730}";
}
);
hints = (
{
horizontal = 1;
origin = "{0, 5}";
target = "{0, 2}";
},
{
horizontal = 1;
origin = "{0, 4}";
target = down;
type = TopGhost;
},
{
origin = "{0, 5}";
target = "{0, 2}";
},
{
horizontal = 1;
origin = "{0, 4}";
target = down;
type = TopGhost;
},
{
horizontal = 1;
origin = "{0, 5}";
target = up;
type = BottomGhost;
}
);
layerId = "FC85C3E9-DF31-40AF-806C-BAFB081E1A8E";
paths = (
{
closed = 1;
nodes = (
"293 0 LINE",
"293 59 LINE",
"162 59 LINE",
"162 630 LINE",
"110 630 LINE",
"110 0 LINE"
);
}
);
width = 273;
}
);
unicode = FE8E;
},
{
color = 4;
glyphname = "alef-ar.short";
layers = (
{
anchors = (
{
name = bottom;
position = "{137, -80}";
},
{
name = top;
position = "{137, 550}";
}
);
hints = (
{
horizontal = 1;
origin = "{0, 3}";
target = up;
type = BottomGhost;
},
{
horizontal = 1;
origin = "{0, 2}";
target = down;
type = TopGhost;
},
{
origin = "{0, 3}";
target = "{0, 0}";
}
);
layerId = "FC85C3E9-DF31-40AF-806C-BAFB081E1A8E";
paths = (
{
closed = 1;
nodes = (
"162 0 LINE",
"162 470 LINE",
"110 470 LINE",
"110 0 LINE"
);
}
);
width = 273;
}
);
},
{
color = 4;
glyphname = "alef-ar.fina.short";
layers = (
{
anchors = (
{
name = bottom;
position = "{137, -80}";
},
{
name = entry;
position = "{273, 29}";
},
{
name = top;
position = "{137, 550}";
}
);
hints = (
{
horizontal = 1;
origin = "{0, 5}";
target = "{0, 2}";
},
{
horizontal = 1;
origin = "{0, 4}";
target = down;
type = TopGhost;
},
{
origin = "{0, 5}";
target = "{0, 2}";
},
{
horizontal = 1;
origin = "{0, 5}";
target = up;
type = BottomGhost;
}
);
layerId = "FC85C3E9-DF31-40AF-806C-BAFB081E1A8E";
paths = (
{
closed = 1;
nodes = (
"293 0 LINE",
"293 59 LINE",
"162 59 LINE",
"162 470 LINE",
"110 470 LINE",
"110 0 LINE"
);
}
);
width = 273;
}
);
},
{
color = 4;
glyphname = "dotlessbeh-ar";
layers = (
{
anchors = (
{
name = bottom;
position = "{432, -94}";
},
{
name = top;
position = "{432, 450}";
}
);
hints = (
{
horizontal = 1;
origin = "{0, 17}";
target = "{0, 4}";
},
{
horizontal = 1;
origin = "{0, 2}";
target = down;
type = TopGhost;
},
{
origin = "{0, 14}";
target = "{0, 7}";
},
{
origin = "{0, 3}";
target = "{0, 0}";
}
);
layerId = "FC85C3E9-DF31-40AF-806C-BAFB081E1A8E";
paths = (
{
closed = 1;
nodes = (
"760 0 LINE",
"760 470 LINE",
"708 470 LINE",
"708 59 LINE",
"146 59 LINE",
"133 100 OFFCURVE",
"129 144 OFFCURVE",
"129 205 CURVE SMOOTH",
"129 249 OFFCURVE",
"137 304 OFFCURVE",
"152 361 CURVE",
"104 370 LINE",
"88 331 OFFCURVE",
"77 257 OFFCURVE",
"77 200 CURVE SMOOTH",
"77 50 OFFCURVE",
"107 0 OFFCURVE",
"203 0 CURVE"
);
}
);
width = 870;
}
);
unicode = 066E;
},
{
color = 4;
glyphname = "dotlessbeh-ar.fina";
layers = (
{
anchors = (
{
name = bottom;
position = "{432, -94}";
},
{
name = entry;
position = "{870, 29}";
},
{
name = top;
position = "{432, 450}";
}
);
components = (
{
name = "dotlessbeh-ar";
}
);
hints = (
{
horizontal = 1;
origin = "{0, 0}";
target = "{0, 3}";
}
);
layerId = "FC85C3E9-DF31-40AF-806C-BAFB081E1A8E";
paths = (
{
closed = 1;
nodes = (
"753 0 LINE",
"890 0 LINE",
"890 59 LINE",
"753 59 LINE"
);
}
);
width = 870;
}
);
leftMetricsKey = "=dotlessbeh-ar";
},
{
color = 4;
glyphname = "dotlessbeh-ar.medi";
layers = (
{
anchors = (
{
name = bottom;
position = "{170, -80}";
},
{
name = entry;
position = "{306, 29}";
},
{
name = exit;
position = "{0, 29}";
},
{
name = top;
position = "{170, 550}";
}
);
hints = (
{
horizontal = 1;
origin = "{0, 4}";
target = "{0, 3}";
},
{
horizontal = 1;
origin = "{0, 1}";
target = down;
type = TopGhost;
},
{
origin = "{0, 2}";
target = "{0, 7}";
}
);
layerId = "FC85C3E9-DF31-40AF-806C-BAFB081E1A8E";
paths = (
{
closed = 1;
nodes = (
"195 470 LINE",
"144 470 LINE",
"144 59 LINE",
"-20 59 LINE",
"-20 0 LINE",
"326 0 LINE",
"326 59 LINE",
"195 59 LINE"
);
}
);
width = 306;
}
);
},
{
color = 4;
glyphname = "dotlessbeh-ar.init";
layers = (
{
anchors = (
{
name = bottom;
position = "{170, -80}";
},
{
name = exit;
position = "{0, 29}";
},
{
name = top;
position = "{170, 550}";
}
);
hints = (
{
horizontal = 1;
origin = "{0, 5}";
target = "{0, 4}";
},
{
horizontal = 1;
origin = "{0, 2}";
target = down;
type = TopGhost;
},
{
origin = "{0, 3}";
target = "{0, 0}";
}
);
layerId = "FC85C3E9-DF31-40AF-806C-BAFB081E1A8E";
paths = (
{
closed = 1;
nodes = (
"195 0 LINE",
"195 470 LINE",
"144 470 LINE",
"144 59 LINE",
"-20 59 LINE",
"-20 0 LINE"
);
}
);
width = 306;
}
);
},
{
color = 0;
glyphname = "tcheh-ar";
layers = (
{
anchors = (
{
name = bottom;
position = "{266, -420}";
},
{
name = top;
position = "{272, 573}";
}
);
components = (
{
alignment = -1;
name = "threedotsdownbelow-ar";
transform = "{1.07, 0, 0, 1.07, 177, 139}";
}
);
hints = (
{
horizontal = 1;
origin = "{0, 16}";
target = "{0, 2}";
},
{
horizontal = 1;
origin = "{0, 9}";
target = "{0, 10}";
},
{
horizontal = 1;
origin = "{1, 7}";
target = "{1, 14}";
},
{
origin = "{0, 13}";
target = "{0, 5}";
}
);
layerId = "FC85C3E9-DF31-40AF-806C-BAFB081E1A8E";
paths = (
{
closed = 1;
nodes = (
"259 -207 OFFCURVE",
"224 -210 OFFCURVE",
"193 -210 CURVE SMOOTH",
"162 -210 OFFCURVE",
"136 -206 OFFCURVE",
"113 -201 CURVE",
"113 -8 LINE SMOOTH",
"113 137 OFFCURVE",
"221 188 OFFCURVE",
"542 188 CURVE",
"486 240 LINE",
"169 240 OFFCURVE",
"54 160 OFFCURVE",
"54 -57 CURVE SMOOTH",
"54 -215 OFFCURVE",
"81 -268 OFFCURVE",
"208 -268 CURVE SMOOTH",
"240 -268 OFFCURVE",
"276 -263 OFFCURVE",
"316 -255 CURVE",
"306 -202 LINE"
);
},
{
closed = 1;
nodes = (
"441 205 OFFCURVE",
"468 188 OFFCURVE",
"542 188 CURVE",
"542 240 LINE",
"486 240 LINE",
"423 411 OFFCURVE",
"326 478 OFFCURVE",
"144 478 CURVE SMOOTH",
"115 478 OFFCURVE",
"84 477 OFFCURVE",
"54 474 CURVE",
"63 417 LINE",
"82 419 OFFCURVE",
"107 420 OFFCURVE",
"140 420 CURVE SMOOTH",
"282 420 OFFCURVE",
"369 371 OFFCURVE",
"418 264 CURVE SMOOTH"
);
}
);
width = 531;
}
);
unicode = 0686;
},
{
color = 0;
glyphname = "tcheh-ar.fina";
layers = (
{
anchors = (
{
name = bottom;
position = "{348, -301}";
},
{
name = entry;
position = "{637, 29}";
},
{
name = top;
position = "{355, 573}";
}
);
components = (
{
alignment = -1;
name = "threedotsdownbelow-ar";
transform = "{1.07, 0, 0, 1.07, 177, 139}";
}
);
hints = (
{
horizontal = 1;
origin = "{1, 16}";
target = "{1, 2}";
},
{
horizontal = 1;
origin = "{0, 17}";
target = "{0, 20}";
},
{
horizontal = 1;
origin = "{1, 9}";
target = "{1, 10}";
},
{
horizontal = 1;
origin = "{0, 3}";
target = "{0, 10}";
},
{
origin = "{1, 13}";
target = "{1, 5}";
}
);
layerId = "FC85C3E9-DF31-40AF-806C-BAFB081E1A8E";
paths = (
{
closed = 1;
nodes = (
"525 270 LINE SMOOTH",
"469 419 OFFCURVE",
"391 478 OFFCURVE",
"226 478 CURVE SMOOTH",
"197 478 OFFCURVE",
"166 477 OFFCURVE",
"136 474 CURVE",
"145 417 LINE",
"171 419 OFFCURVE",
"192 420 OFFCURVE",
"211 420 CURVE SMOOTH",
"363 420 OFFCURVE",
"422 378 OFFCURVE",
"478 247 CURVE SMOOTH",
"551 56 LINE SMOOTH",
"566 17 OFFCURVE",
"584 0 OFFCURVE",
"623 0 CURVE SMOOTH",
"657 0 LINE",
"657 59 LINE",
"605 59 LINE"
);
},
{
closed = 1;
nodes = (
"259 -207 OFFCURVE",
"224 -210 OFFCURVE",
"193 -210 CURVE SMOOTH",
"162 -210 OFFCURVE",
"136 -206 OFFCURVE",
"113 -201 CURVE",
"113 -8 LINE SMOOTH",
"113 139 OFFCURVE",
"221 192 OFFCURVE",
"542 192 CURVE",
"486 237 LINE",
"169 237 OFFCURVE",
"54 158 OFFCURVE",
"54 -57 CURVE SMOOTH",
"54 -215 OFFCURVE",
"81 -268 OFFCURVE",
"208 -268 CURVE SMOOTH",
"240 -268 OFFCURVE",
"276 -263 OFFCURVE",
"316 -255 CURVE",
"306 -202 LINE"
);
}
);
width = 637;
}
);
unicode = FB7B;
},
{
color = 4;
glyphname = "hah-ar";
layers = (
{
anchors = (
{
name = bottom;
position = "{266, -313}";
},
{
name = center;
position = "{289, -59}";
},
{
name = top;
position = "{272, 573}";
}
);
color = 1;
hints = (
{
horizontal = 1;
origin = "{0, 20}";
target = "{0, 6}";
},
{
horizontal = 1;
origin = "{0, 13}";
target = "{0, 14}";
},
{
horizontal = 1;
origin = "{1, 7}";
target = "{1, 14}";
},
{
origin = "{0, 17}";
target = "{0, 9}";
}
);
layerId = "FC85C3E9-DF31-40AF-806C-BAFB081E1A8E";
paths = (
{
closed = 1;
nodes = (
"320 -270 OFFCURVE",
"394 -260 OFFCURVE",
"436 -243 CURVE",
"426 -190 LINE",
"348 -206 OFFCURVE",
"308 -212 OFFCURVE",
"265 -212 CURVE SMOOTH",
"191 -212 OFFCURVE",
"150 -209 OFFCURVE",
"113 -201 CURVE",
"113 -8 LINE SMOOTH",
"113 137 OFFCURVE",
"221 188 OFFCURVE",
"542 188 CURVE",
"486 240 LINE",
"169 240 OFFCURVE",
"54 160 OFFCURVE",
"54 -57 CURVE SMOOTH",
"54 -241 OFFCURVE",
"80 -270 OFFCURVE",
"242 -270 CURVE SMOOTH"
);
},
{
closed = 1;
nodes = (
"441 205 OFFCURVE",
"468 188 OFFCURVE",
"542 188 CURVE",
"542 240 LINE",
"486 240 LINE",
"423 411 OFFCURVE",
"326 478 OFFCURVE",
"144 478 CURVE SMOOTH",
"115 478 OFFCURVE",
"84 477 OFFCURVE",
"54 474 CURVE",
"63 417 LINE",
"82 419 OFFCURVE",
"107 420 OFFCURVE",
"140 420 CURVE SMOOTH",
"282 420 OFFCURVE",
"369 371 OFFCURVE",
"418 264 CURVE SMOOTH"
);
}
);
width = 542;
}
);
unicode = 062D;
},
{
color = 4;
glyphname = "hah-ar.fina";
layers = (
{
anchors = (
{
name = bottom;
position = "{266, -337}";
},
{
name = center;
position = "{295, -77}";
},
{
name = entry;
position = "{555, 29}";
},
{
name = top;
position = "{272, 573}";
}
);
hints = (
{
horizontal = 1;
origin = "{0, 20}";
target = "{0, 6}";
},
{
horizontal = 1;
origin = "{1, 17}";
target = "{1, 20}";
},
{
horizontal = 1;
place = "{234.9, 94.5}";
},
{
horizontal = 1;
origin = "{1, 3}";
target = "{1, 10}";
},
{
origin = "{0, 17}";
target = "{0, 9}";
}
);
layerId = "FC85C3E9-DF31-40AF-806C-BAFB081E1A8E";
paths = (
{
closed = 1;
nodes = (
"315 -270 OFFCURVE",
"392 -260 OFFCURVE",
"437 -243 CURVE",
"427 -190 LINE",
"351 -206 OFFCURVE",
"311 -212 OFFCURVE",
"266 -212 CURVE SMOOTH",
"204 -212 OFFCURVE",
"151 -210 OFFCURVE",
"111 -201 CURVE",
"111 -8 LINE SMOOTH",
"111 141 OFFCURVE",
"229 189 OFFCURVE",
"452 198 CURVE",
"440 243 LINE",
"184 237 OFFCURVE",
"56 173 OFFCURVE",
"56 -57 CURVE SMOOTH",
"56 -232 OFFCURVE",
"68 -270 OFFCURVE",
"242 -270 CURVE SMOOTH"
);
},
{
closed = 1;
nodes = (
"443 270 LINE SMOOTH",
"387 419 OFFCURVE",
"309 478 OFFCURVE",
"144 478 CURVE SMOOTH",
"115 478 OFFCURVE",
"84 477 OFFCURVE",
"54 474 CURVE",
"63 417 LINE",
"89 419 OFFCURVE",
"110 420 OFFCURVE",
"129 420 CURVE SMOOTH",
"281 420 OFFCURVE",
"340 378 OFFCURVE",
"396 247 CURVE SMOOTH",
"469 56 LINE SMOOTH",
"484 17 OFFCURVE",
"502 0 OFFCURVE",
"541 0 CURVE SMOOTH",
"575 0 LINE",
"575 59 LINE",
"523 59 LINE"
);
}
);
width = 555;
}
);
unicode = FEA2;
},
{
color = 4;
glyphname = "hah-ar.medi";
layers = (
{
anchors = (
{
name = bottom;
position = "{246, -80}";
},
{
name = entry;
position = "{555, 29}";
},
{
name = exit;
position = "{0, 29}";
},
{
name = top;
position = "{222, 550}";
}
);
hints = (
{
horizontal = 1;
origin = "{1, 4}";
target = "{1, 3}";
},
{
horizontal = 1;
origin = "{0, 3}";
target = "{0, 10}";
}
);
layerId = "FC85C3E9-DF31-40AF-806C-BAFB081E1A8E";
paths = (
{
closed = 1;
nodes = (
"443 270 LINE SMOOTH",
"387 420 OFFCURVE",
"308 478 OFFCURVE",
"144 478 CURVE SMOOTH",
"117 478 OFFCURVE",
"87 477 OFFCURVE",
"54 474 CURVE",
"63 417 LINE",
"88 419 OFFCURVE",
"109 420 OFFCURVE",
"129 420 CURVE SMOOTH",
"279 420 OFFCURVE",
"339 379 OFFCURVE",
"396 247 CURVE SMOOTH",
"469 56 LINE SMOOTH",
"484 17 OFFCURVE",
"502 0 OFFCURVE",
"541 0 CURVE SMOOTH",
"575 0 LINE",
"575 59 LINE",
"523 59 LINE"
);
},
{
closed = 1;
nodes = (
"378 167 OFFCURVE",
"306 59 OFFCURVE",
"200 59 CURVE SMOOTH",
"-20 59 LINE",
"-20 0 LINE",
"160 0 LINE SMOOTH",
"331 0 OFFCURVE",
"411 112 OFFCURVE",
"458 220 CURVE",
"410 246 LINE"
);
}
);
width = 555;
}
);
unicode = FEA4;
},
{
color = 4;
glyphname = "hah-ar.init";
layers = (
{
anchors = (
{
name = bottom;
position = "{257, -80}";
},
{
name = exit;
position = "{0, 29}";
},
{
name = top;
position = "{222, 550}";
}
);
hints = (
{
horizontal = 1;
origin = "{1, 4}";
target = "{1, 3}";
},
{
horizontal = 1;
origin = "{0, 15}";
target = "{0, 18}";
},
{
horizontal = 1;
origin = "{0, 2}";
target = "{0, 9}";
}
);
layerId = "FC85C3E9-DF31-40AF-806C-BAFB081E1A8E";
paths = (
{
closed = 1;
nodes = (
"393 414 OFFCURVE",
"313 478 OFFCURVE",
"144 478 CURVE SMOOTH",
"117 478 OFFCURVE",
"87 477 OFFCURVE",
"54 474 CURVE",
"63 417 LINE",
"88 419 OFFCURVE",
"109 420 OFFCURVE",
"129 420 CURVE SMOOTH",
"280 420 OFFCURVE",
"346 383 OFFCURVE",
"396 247 CURVE SMOOTH",
"409 208 OFFCURVE",
"429 191 OFFCURVE",
"467 191 CURVE SMOOTH",
"542 191 LINE",
"542 249 LINE",
"450 249 LINE"
);
},
{
closed = 1;
nodes = (
"374 167 OFFCURVE",
"291 59 OFFCURVE",
"170 59 CURVE SMOOTH",
"-20 59 LINE",
"-20 0 LINE",
"143 0 LINE SMOOTH",
"325 0 OFFCURVE",
"409 112 OFFCURVE",
"458 220 CURVE",
"410 246 LINE"
);
}
);
width = 542;
}
);
note = "25-11 cambio de estructura";
unicode = FEA3;
},
{
color = 4;
glyphname = "dal-ar";
layers = (
{
anchors = (
{
name = bottom;
position = "{199, -80}";
},
{
name = top;
position = "{161, 550}";
}
);
hints = (
{
horizontal = 1;
origin = "{0, 16}";
target = "{0, 15}";
},
{
horizontal = 1;
origin = "{0, 11}";
target = "{0, 4}";
}
);
layerId = "FC85C3E9-DF31-40AF-806C-BAFB081E1A8E";
paths = (
{
closed = 1;
nodes = (
"453 0 LINE",
"453 45 LINE",
"326 460 OFFCURVE",
"306 491 OFFCURVE",
"132 491 CURVE SMOOTH",
"116 491 OFFCURVE",
"87 488 OFFCURVE",
"56 481 CURVE",
"71 424 LINE",
"90 429 OFFCURVE",
"115 433 OFFCURVE",
"132 433 CURVE SMOOTH",
"262 433 OFFCURVE",
"299 378 OFFCURVE",
"391 59 CURVE",
"20 59 LINE",
"20 0 LINE"
);
}
);
width = 503;
}
);
unicode = 062F;
},
{
color = 4;
glyphname = "dal-ar.fina";
layers = (
{
anchors = (
{
name = bottom;
position = "{192, -80}";
},
{
name = entry;
position = "{476, 29}";
},
{
name = top;
position = "{161, 550}";
}
);
components = (
{
name = "dal-ar";
}
);
hints = (
{
horizontal = 1;
origin = "{0, 0}";
target = "{0, 3}";
},
{
origin = "{0, 0}";
target = "{0, 1}";
}
);
layerId = "FC85C3E9-DF31-40AF-806C-BAFB081E1A8E";
paths = (
{
closed = 1;
nodes = (
"440 0 LINE",
"496 0 LINE",
"496 59 LINE",
"440 59 LINE"
);
}
);
width = 476;
}
);
unicode = FEAA;
},
{
color = 4;
glyphname = "reh-ar";
layers = (
{
anchors = (
{
name = bottom;
position = "{110, -330}";
},
{
name = top;
position = "{164, 550}";
}
);
color = 1;
hints = (
{
origin = "{0, 5}";
target = "{0, 2}";
},
{
horizontal = 1;
origin = "{0, 4}";
target = down;
type = TopGhost;
},
{
horizontal = 1;
origin = "{0, 9}";
target = up;
type = BottomGhost;
}
);
layerId = "FC85C3E9-DF31-40AF-806C-BAFB081E1A8E";
paths = (
{
closed = 1;
nodes = (
"151 -201 OFFCURVE",
"190 -129 OFFCURVE",
"190 -10 CURVE SMOOTH",
"190 470 LINE",
"138 470 LINE",
"138 -10 LINE SMOOTH",
"138 -112 OFFCURVE",
"108 -167 OFFCURVE",
"32 -206 CURVE",
"58 -250 LINE"
);
}
);
width = 301;
}
);
unicode = 0631;
},
{
color = 4;
glyphname = "reh-ar.fina";
layers = (
{
anchors = (
{
name = bottom;
position = "{111, -330}";
},
{
name = entry;
position = "{300, 29}";
},
{
name = top;
position = "{163, 550}";
}
);
components = (
{
name = "reh-ar";
}
);
hints = (
{
horizontal = 1;
origin = "{0, 0}";
target = "{0, 3}";
}
);
layerId = "FC85C3E9-DF31-40AF-806C-BAFB081E1A8E";
paths = (
{
closed = 1;
nodes = (
"189 0 LINE",
"320 0 LINE",
"320 59 LINE",
"189 59 LINE"
);
}
);
width = 300;
}
);
unicode = FEAE;
},
{
color = 4;
glyphname = "seen-ar";
layers = (
{
anchors = (
{
name = bottom;
position = "{848, -80}";
},
{
name = top;
position = "{815, 550}";
}
);
color = 1;
hints = (
{
horizontal = 1;
origin = "{0, 22}";
target = "{0, 9}";
},
{
horizontal = 1;
origin = "{2, 10}";
target = "{2, 9}";
},
{
origin = "{0, 19}";
target = "{0, 12}";
},
{
origin = "{0, 5}";
target = "{0, 2}";
},
{
origin = "{2, 5}";
target = "{1, 16}";
},
{
origin = "{1, 9}";
target = "{1, 2}";
},
{
horizontal = 1;
origin = "{0, 4}";
target = down;
type = TopGhost;
},
{
horizontal = 1;
origin = "{1, 5}";
target = down;
type = TopGhost;
}
);
layerId = "FC85C3E9-DF31-40AF-806C-BAFB081E1A8E";
paths = (
{
closed = 1;
nodes = (
"502 -240 OFFCURVE",
"542 -206 OFFCURVE",
"542 -52 CURVE SMOOTH",
"542 380 LINE",
"490 380 LINE",
"490 -129 LINE SMOOTH",
"490 -172 OFFCURVE",
"456 -182 OFFCURVE",
"339 -182 CURVE SMOOTH",
"138 -182 LINE",
"128 -132 OFFCURVE",
"125 -83 OFFCURVE",
"125 -12 CURVE SMOOTH",
"125 45 OFFCURVE",
"135 115 OFFCURVE",
"151 188 CURVE",
"100 197 LINE",
"84 145 OFFCURVE",
"73 50 OFFCURVE",
"73 -25 CURVE SMOOTH",
"73 -200 OFFCURVE",
"85 -240 OFFCURVE",
"287 -240 CURVE SMOOTH"
);
},
{
closed = 1;
nodes = (
"1098 0 OFFCURVE",
"1113 61 OFFCURVE",
"1113 256 CURVE SMOOTH",
"1113 315 OFFCURVE",
"1098 418 OFFCURVE",
"1087 467 CURVE",
"1036 458 LINE",
"1052 385 OFFCURVE",
"1061 313 OFFCURVE",
"1061 255 CURVE SMOOTH",
"1061 174 OFFCURVE",
"1058 115 OFFCURVE",
"1048 59 CURVE",
"907 59 LINE SMOOTH",
"848 59 OFFCURVE",
"828 68 OFFCURVE",
"828 111 CURVE SMOOTH",
"828 380 LINE",
"776 380 LINE",
"776 165 LINE SMOOTH",
"776 30 OFFCURVE",
"803 0 OFFCURVE",
"963 0 CURVE SMOOTH"
);
},
{
closed = 1;
nodes = (
"802 0 OFFCURVE",
"827 30 OFFCURVE",
"827 165 CURVE SMOOTH",
"827 380 LINE",
"775 380 LINE",
"775 111 LINE SMOOTH",
"775 68 OFFCURVE",
"755 59 OFFCURVE",
"696 59 CURVE SMOOTH",
"542 59 LINE",
"542 0 LINE",
"650 0 LINE SMOOTH"
);
}
);
width = 1212;
}
);
unicode = 0633;
},
{
color = 4;
glyphname = "seen-ar.fina";
layers = (
{
anchors = (
{
name = bottom;
position = "{848, -80}";
},
{
name = entry;
position = "{1223, 29}";
},
{
name = top;
position = "{815, 550}";
}
);
color = 1;
components = (
{
name = "seen-ar";
}
);
hints = (
{
horizontal = 1;
origin = "{0, 0}";
target = "{0, 3}";
}
);
layerId = "FC85C3E9-DF31-40AF-806C-BAFB081E1A8E";
paths = (
{
closed = 1;
nodes = (
"963 0 LINE",
"1243 0 LINE",
"1243 59 LINE",
"1057 59 LINE"
);
}
);
width = 1223;
}
);
unicode = FEB2;
},
{
color = 4;
glyphname = "seen-ar.medi";
layers = (
{
anchors = (
{
name = bottom;
position = "{468, -80}";
},
{
name = entry;
position = "{876, 29}";
},
{
name = exit;
position = "{0, 29}";
},
{
name = top;
position = "{468, 550}";
}
);
hints = (
{
horizontal = 1;
origin = "{2, 4}";
target = "{2, 3}";
},
{
origin = "{2, 2}";
target = "{1, 10}";
},
{
origin = "{1, 5}";
target = "{0, 16}";
},
{
origin = "{0, 9}";
target = "{0, 2}";
},
{
horizontal = 1;
origin = "{2, 1}";
target = down;
type = TopGhost;
},
{
horizontal = 1;
origin = "{0, 5}";
target = down;
type = TopGhost;
}
);
layerId = "FC85C3E9-DF31-40AF-806C-BAFB081E1A8E";
paths = (
{
closed = 1;
nodes = (
"752 0 OFFCURVE",
"766 61 OFFCURVE",
"766 256 CURVE SMOOTH",
"766 315 OFFCURVE",
"751 418 OFFCURVE",
"740 467 CURVE",
"689 458 LINE",
"705 385 OFFCURVE",
"714 313 OFFCURVE",
"714 255 CURVE SMOOTH",
"714 174 OFFCURVE",
"711 115 OFFCURVE",
"701 59 CURVE",
"560 59 LINE SMOOTH",
"501 59 OFFCURVE",
"481 68 OFFCURVE",
"481 111 CURVE SMOOTH",
"481 380 LINE",
"429 380 LINE",
"429 165 LINE SMOOTH",
"429 30 OFFCURVE",
"457 0 OFFCURVE",
"620 0 CURVE SMOOTH"
);
},
{
closed = 1;
nodes = (
"455 0 OFFCURVE",
"480 30 OFFCURVE",
"480 165 CURVE SMOOTH",
"480 380 LINE",
"428 380 LINE",
"428 111 LINE SMOOTH",
"428 68 OFFCURVE",
"408 59 OFFCURVE",
"349 59 CURVE SMOOTH",
"195 59 LINE",
"195 0 LINE",
"303 0 LINE"
);
},
{
closed = 1;
nodes = (
"195 380 LINE",
"144 380 LINE",
"144 59 LINE",
"-20 59 LINE",
"-20 0 LINE",
"195 0 LINE"
);
},
{
closed = 1;
nodes = (
"619 0 LINE",
"896 0 LINE",
"896 59 LINE",
"710 59 LINE"
);
}
);
width = 876;
}
);
unicode = FEB4;
},
{
color = 4;
glyphname = "seen-ar.init";
layers = (
{
anchors = (
{
name = bottom;
position = "{468, -80}";
},
{
name = exit;
position = "{0, 29}";
},
{
name = top;
position = "{468, 550}";
}
);
hints = (
{
horizontal = 1;
origin = "{2, 4}";
target = "{2, 3}";
},
{
origin = "{2, 2}";
target = "{1, 10}";
},
{
origin = "{1, 5}";
target = "{0, 16}";
},
{
origin = "{0, 9}";
target = "{0, 2}";
}
);
layerId = "FC85C3E9-DF31-40AF-806C-BAFB081E1A8E";
paths = (
{
closed = 1;
nodes = (
"751 0 OFFCURVE",
"766 61 OFFCURVE",
"766 256 CURVE SMOOTH",
"766 315 OFFCURVE",
"751 418 OFFCURVE",
"740 467 CURVE",
"689 458 LINE",
"705 385 OFFCURVE",
"714 313 OFFCURVE",
"714 255 CURVE SMOOTH",
"714 174 OFFCURVE",
"711 115 OFFCURVE",
"701 59 CURVE",
"560 59 LINE SMOOTH",
"501 59 OFFCURVE",
"481 68 OFFCURVE",
"481 111 CURVE SMOOTH",
"481 380 LINE",
"429 380 LINE",
"429 165 LINE SMOOTH",
"429 30 OFFCURVE",
"456 0 OFFCURVE",
"616 0 CURVE SMOOTH"
);
},
{
closed = 1;
nodes = (
"455 0 OFFCURVE",
"480 30 OFFCURVE",
"480 165 CURVE SMOOTH",
"480 380 LINE",
"428 380 LINE",
"428 111 LINE SMOOTH",
"428 68 OFFCURVE",
"408 59 OFFCURVE",
"349 59 CURVE SMOOTH",
"195 59 LINE",
"195 0 LINE",
"303 0 LINE SMOOTH"
);
},
{
closed = 1;
nodes = (
"195 380 LINE",
"144 380 LINE",
"144 59 LINE",
"-20 59 LINE",
"-20 0 LINE",
"195 0 LINE"
);
}
);
width = 865;
}
);
unicode = FEB3;
},
{
color = 4;
glyphname = "sad-ar";
layers = (
{
anchors = (
{
name = bottom;
position = "{802, -80}";
},
{
name = top;
position = "{802, 550}";
}
);
color = 1;
hints = (
{
horizontal = 1;
origin = "{0, 22}";
target = "{0, 9}";
},
{
horizontal = 1;
origin = "{1, 1}";
target = "{1, 0}";
},
{
horizontal = 1;
origin = "{2, 4}";
target = "{2, 14}";
},
{
horizontal = 1;
origin = "{2, 9}";
target = down;
type = TopGhost;
},
{
origin = "{0, 19}";
target = "{0, 12}";
},
{
origin = "{0, 5}";
target = "{0, 2}";
},
{
origin = "{2, 18}";
target = "{1, 2}";
},
{
horizontal = 1;
origin = "{2, 9}";
target = down;
type = TopGhost;
},
{
horizontal = 1;
origin = "{0, 16}";
target = down;
type = TopGhost;
}
);
layerId = "FC85C3E9-DF31-40AF-806C-BAFB081E1A8E";
paths = (
{
closed = 1;
nodes = (
"502 -240 OFFCURVE",
"542 -206 OFFCURVE",
"542 -52 CURVE SMOOTH",
"542 29 LINE",
"490 29 LINE",
"490 -129 LINE SMOOTH",
"490 -172 OFFCURVE",
"456 -182 OFFCURVE",
"339 -182 CURVE SMOOTH",
"138 -182 LINE",
"128 -132 OFFCURVE",
"125 -83 OFFCURVE",
"125 -12 CURVE SMOOTH",
"125 45 OFFCURVE",
"135 115 OFFCURVE",
"151 188 CURVE",
"100 197 LINE",
"84 145 OFFCURVE",
"73 50 OFFCURVE",
"73 -25 CURVE SMOOTH",
"73 -200 OFFCURVE",
"85 -240 OFFCURVE",
"287 -240 CURVE SMOOTH"
);
},
{
closed = 1;
nodes = (
"524 59 LINE",
"524 0 LINE",
"1035 0 LINE",
"1010 59 LINE"
);
},
{
closed = 1;
nodes = (
"1034 0 LINE",
"1034 385 LINE SMOOTH",
"1034 456 OFFCURVE",
"1000 480 OFFCURVE",
"901 480 CURVE SMOOTH",
"714 480 OFFCURVE",
"589 405 OFFCURVE",
"542 266 CURVE",
"542 470 LINE",
"490 470 LINE",
"490 29 LINE",
"542 29 LINE",
"542 297 OFFCURVE",
"648 422 OFFCURVE",
"875 422 CURVE SMOOTH",
"924 422 OFFCURVE",
"960 418 OFFCURVE",
"982 411 CURVE",
"982 0 LINE"
);
}
);
width = 1141;
}
);
unicode = 0635;
},
{
color = 4;
glyphname = "sad-ar.fina";
layers = (
{
anchors = (
{
name = bottom;
position = "{802, -80}";
},
{
name = entry;
position = "{1148, 29}";
},
{
name = top;
position = "{802, 550}";
}
);
color = 1;
components = (
{
name = "sad-ar";
}
);
hints = (
{
horizontal = 1;
origin = "{0, 0}";
target = "{0, 3}";
}
);
layerId = "FC85C3E9-DF31-40AF-806C-BAFB081E1A8E";
paths = (
{
closed = 1;
nodes = (
"1034 0 LINE",
"1167 0 LINE",
"1167 59 LINE",
"1034 59 LINE"
);
}
);
width = 1148;
}
);
unicode = FEBA;
},
{
color = 4;
glyphname = "sad-ar.medi";
layers = (
{
anchors = (
{
name = bottom;
position = "{459, -80}";
},
{
name = entry;
position = "{798, 29}";
},
{
name = exit;
position = "{0, 29}";
},
{
name = top;
position = "{459, 550}";
}
);
color = 1;
hints = (
{
horizontal = 1;
origin = "{0, 1}";
target = "{0, 0}";
},
{
horizontal = 1;
origin = "{1, 4}";
target = "{1, 14}";
},
{
horizontal = 1;
origin = "{1, 9}";
target = down;
type = TopGhost;
},
{
origin = "{1, 10}";
target = "{1, 11}";
},
{
origin = "{1, 18}";
target = "{1, 0}";
}
);
layerId = "FC85C3E9-DF31-40AF-806C-BAFB081E1A8E";
paths = (
{
closed = 1;
nodes = (
"-20 59 LINE",
"-20 0 LINE",
"818 0 LINE",
"818 59 LINE"
);
},
{
closed = 1;
nodes = (
"687 29 LINE",
"687 385 LINE SMOOTH",
"687 456 OFFCURVE",
"653 480 OFFCURVE",
"554 480 CURVE SMOOTH",
"367 480 OFFCURVE",
"242 405 OFFCURVE",
"195 266 CURVE",
"195 470 LINE",
"143 470 LINE",
"143 29 LINE",
"195 29 LINE",
"195 297 OFFCURVE",
"301 422 OFFCURVE",
"528 422 CURVE SMOOTH",
"577 422 OFFCURVE",
"613 418 OFFCURVE",
"635 411 CURVE",
"635 29 LINE"
);
}
);
width = 798;
}
);
unicode = FEBC;
},
{
color = 4;
glyphname = "sad-ar.init";
layers = (
{
anchors = (
{
name = bottom;
position = "{459, -80}";
},
{
name = exit;
position = "{0, 29}";
},
{
name = top;
position = "{459, 550}";
}
);
color = 1;
hints = (
{
horizontal = 1;
origin = "{0, 1}";
target = "{0, 0}";
},
{
horizontal = 1;
origin = "{1, 4}";
target = "{1, 14}";
},
{
horizontal = 1;
origin = "{1, 9}";
target = down;
type = TopGhost;
},
{
origin = "{1, 10}";
target = "{1, 11}";
},
{
origin = "{1, 18}";
target = "{0, 2}";
}
);
layerId = "FC85C3E9-DF31-40AF-806C-BAFB081E1A8E";
paths = (
{
closed = 1;
nodes = (
"-20 59 LINE",
"-20 0 LINE",
"688 0 LINE",
"688 59 LINE"
);
},
{
closed = 1;
nodes = (
"687 0 LINE",
"687 385 LINE SMOOTH",
"687 456 OFFCURVE",
"653 480 OFFCURVE",
"554 480 CURVE SMOOTH",
"367 480 OFFCURVE",
"242 405 OFFCURVE",
"195 266 CURVE",
"195 470 LINE",
"143 470 LINE",
"143 29 LINE",
"195 29 LINE",
"195 297 OFFCURVE",
"301 422 OFFCURVE",
"528 422 CURVE SMOOTH",
"577 422 OFFCURVE",
"613 418 OFFCURVE",
"635 411 CURVE",
"635 0 LINE"
);
}
);
width = 791;
}
);
unicode = FEBB;
},
{
color = 4;
glyphname = "tah-ar";
layers = (
{
anchors = (
{
name = bottom;
position = "{459, -80}";
},
{
name = top;
position = "{500, 550}";
}
);
color = 1;
hints = (
{
horizontal = 1;
origin = "{0, 1}";
target = "{0, 0}";
},
{
horizontal = 1;
origin = "{1, 4}";
target = "{1, 14}";
},
{
horizontal = 1;
origin = "{1, 9}";
target = down;
type = TopGhost;
},
{
origin = "{1, 10}";
target = "{1, 11}";
},
{
origin = "{1, 18}";
target = "{0, 2}";
}
);
layerId = "FC85C3E9-DF31-40AF-806C-BAFB081E1A8E";
paths = (
{
closed = 1;
nodes = (
"20 59 LINE",
"20 0 LINE",
"688 0 LINE",
"688 59 LINE"
);
},
{
closed = 1;
nodes = (
"687 0 LINE",
"687 385 LINE SMOOTH",
"687 456 OFFCURVE",
"653 480 OFFCURVE",
"554 480 CURVE SMOOTH",
"367 480 OFFCURVE",
"242 405 OFFCURVE",
"195 266 CURVE",
"195 630 LINE",
"143 630 LINE",
"143 29 LINE",
"195 29 LINE",
"195 297 OFFCURVE",
"301 422 OFFCURVE",
"528 422 CURVE SMOOTH",
"577 422 OFFCURVE",
"613 418 OFFCURVE",
"635 411 CURVE",
"635 0 LINE"
);
}
);
width = 793;
}
);
unicode = 0637;
},
{
color = 4;
glyphname = "tah-ar.fina";
layers = (
{
anchors = (
{
name = bottom;
position = "{409, -80}";
},
{
name = entry;
position = "{798, 29}";
},
{
name = top;
position = "{475, 550}";
}
);
color = 1;
components = (
{
name = "tah-ar";
}
);
hints = (
{
horizontal = 1;
origin = "{0, 0}";
target = "{0, 3}";
}
);
layerId = "FC85C3E9-DF31-40AF-806C-BAFB081E1A8E";
paths = (
{
closed = 1;
nodes = (
"687 0 LINE",
"818 0 LINE",
"818 59 LINE",
"687 59 LINE"
);
}
);
width = 798;
}
);
leftMetricsKey = "tah-ar";
unicode = FEC2;
},
{
color = 4;
glyphname = "tah-ar.medi";
layers = (
{
anchors = (
{
name = bottom;
position = "{409, -80}";
},
{
name = entry;
position = "{798, 29}";
},
{
name = exit;
position = "{0, 29}";
},
{
name = top;
position = "{475, 550}";
}
);
color = 1;
hints = (
{
horizontal = 1;
origin = "{0, 1}";
target = "{0, 0}";
},
{
horizontal = 1;
origin = "{1, 4}";
target = "{1, 14}";
},
{
horizontal = 1;
origin = "{1, 9}";
target = down;
type = TopGhost;
},
{
origin = "{1, 10}";
target = "{1, 11}";
},
{
origin = "{1, 18}";
target = "{1, 0}";
}
);
layerId = "FC85C3E9-DF31-40AF-806C-BAFB081E1A8E";
paths = (
{
closed = 1;
nodes = (
"-20 59 LINE",
"-20 0 LINE",
"818 0 LINE",
"818 59 LINE"
);
},
{
closed = 1;
nodes = (
"687 0 LINE",
"687 385 LINE SMOOTH",
"687 456 OFFCURVE",
"653 480 OFFCURVE",
"554 480 CURVE SMOOTH",
"367 480 OFFCURVE",
"242 405 OFFCURVE",
"195 266 CURVE",
"195 630 LINE",
"143 630 LINE",
"143 29 LINE",
"195 29 LINE",
"195 297 OFFCURVE",
"301 422 OFFCURVE",
"528 422 CURVE SMOOTH",
"577 422 OFFCURVE",
"613 418 OFFCURVE",
"635 411 CURVE",
"635 0 LINE"
);
}
);
width = 798;
}
);
unicode = FEC4;
},
{
color = 4;
glyphname = "tah-ar.init";
layers = (
{
anchors = (
{
name = bottom;
position = "{409, -80}";
},
{
name = exit;
position = "{0, 29}";
},
{
name = top;
position = "{475, 550}";
}
);
color = 1;
hints = (
{
horizontal = 1;
origin = "{0, 1}";
target = "{0, 0}";
},
{
horizontal = 1;
origin = "{1, 4}";
target = "{1, 14}";
},
{
horizontal = 1;
origin = "{1, 9}";
target = down;
type = TopGhost;
},
{
origin = "{1, 10}";
target = "{1, 11}";
},
{
origin = "{0, 2}";
target = "{1, 0}";
}
);
layerId = "FC85C3E9-DF31-40AF-806C-BAFB081E1A8E";
paths = (
{
closed = 1;
nodes = (
"-20 59 LINE",
"-20 0 LINE",
"636 0 LINE",
"636 59 LINE"
);
},
{
closed = 1;
nodes = (
"687 0 LINE",
"687 385 LINE SMOOTH",
"687 456 OFFCURVE",
"653 480 OFFCURVE",
"554 480 CURVE SMOOTH",
"367 480 OFFCURVE",
"242 405 OFFCURVE",
"195 266 CURVE",
"195 630 LINE",
"143 630 LINE",
"143 29 LINE",
"195 29 LINE",
"195 297 OFFCURVE",
"301 422 OFFCURVE",
"528 422 CURVE SMOOTH",
"577 422 OFFCURVE",
"613 418 OFFCURVE",
"635 411 CURVE",
"635 0 LINE"
);
}
);
width = 791;
}
);
unicode = FEC3;
},
{
color = 4;
glyphname = "ain-ar";
layers = (
{
anchors = (
{
name = bottom;
position = "{266, -420}";
},
{
name = top;
position = "{325, 550}";
}
);
hints = (
{
horizontal = 1;
origin = "{1, 20}";
target = "{1, 6}";
},
{
horizontal = 1;
origin = "{1, 13}";
target = "{1, 14}";
},
{
horizontal = 1;
origin = "{0, 9}";
target = "{0, 2}";
},
{
origin = "{0, 12}";
target = "{0, 16}";
},
{
origin = "{1, 17}";
target = "{1, 9}";
}
);
layerId = "FC85C3E9-DF31-40AF-806C-BAFB081E1A8E";
paths = (
{
closed = 1;
nodes = (
"221 419 OFFCURVE",
"264 423 OFFCURVE",
"310 423 CURVE SMOOTH",
"365 423 OFFCURVE",
"431 413 OFFCURVE",
"490 396 CURVE",
"499 449 LINE",
"464 467 OFFCURVE",
"384 481 OFFCURVE",
"324 481 CURVE SMOOTH",
"161 481 OFFCURVE",
"134 438 OFFCURVE",
"134 247 CURVE SMOOTH",
"134 153 OFFCURVE",
"142 94 OFFCURVE",
"169 61 CURVE",
"193 78 LINE",
"193 409 LINE"
);
},
{
closed = 1;
nodes = (
"320 -324 OFFCURVE",
"394 -314 OFFCURVE",
"436 -297 CURVE",
"426 -244 LINE",
"348 -259 OFFCURVE",
"308 -265 OFFCURVE",
"265 -265 CURVE SMOOTH",
"191 -265 OFFCURVE",
"150 -262 OFFCURVE",
"113 -255 CURVE",
"113 -75 LINE SMOOTH",
"113 46 OFFCURVE",
"213 90 OFFCURVE",
"452 90 CURVE",
"452 138 LINE",
"160 138 OFFCURVE",
"54 72 OFFCURVE",
"54 -111 CURVE SMOOTH",
"54 -294 OFFCURVE",
"80 -324 OFFCURVE",
"242 -324 CURVE SMOOTH"
);
}
);
width = 566;
}
);
unicode = 0639;
},
{
color = 4;
glyphname = "ain-ar.fina";
layers = (
{
anchors = (
{
name = bottom;
position = "{266, -420}";
},
{
name = entry;
position = "{591, 29}";
},
{
name = top;
position = "{296, 550}";
}
);
hints = (
{
horizontal = 1;
origin = "{0, 2}";
target = "{0, 9}";
},
{
horizontal = 1;
origin = "{0, 19}";
target = "{0, 22}";
},
{
horizontal = 1;
origin = "{0, 31}";
target = "{1, 6}";
},
{
origin = "{0, 40}";
target = "{0, 12}";
},
{
origin = "{1, 0}";
target = "{0, 28}";
},
{
origin = "{0, 34}";
target = "{1, 6}";
}
);
layerId = "FC85C3E9-DF31-40AF-806C-BAFB081E1A8E";
paths = (
{
closed = 1;
nodes = (
"54 -290 OFFCURVE",
"87 -317 OFFCURVE",
"242 -317 CURVE SMOOTH",
"339 -317 OFFCURVE",
"403 -308 OFFCURVE",
"437 -294 CURVE",
"426 -237 LINE",
"345 -253 OFFCURVE",
"305 -259 OFFCURVE",
"265 -259 CURVE SMOOTH",
"197 -259 OFFCURVE",
"153 -255 OFFCURVE",
"113 -248 CURVE",
"113 -78 LINE SMOOTH",
"113 -42 OFFCURVE",
"199 0 OFFCURVE",
"292 38 CURVE",
"351 14 OFFCURVE",
"418 0 OFFCURVE",
"488 0 CURVE SMOOTH",
"611 0 LINE",
"611 59 LINE",
"444 59 LINE SMOOTH",
"408 59 OFFCURVE",
"376 61 OFFCURVE",
"347 67 CURVE",
"442 131 OFFCURVE",
"523 227 OFFCURVE",
"523 385 CURVE SMOOTH",
"523 461 OFFCURVE",
"481 478 OFFCURVE",
"295 478 CURVE SMOOTH",
"109 478 OFFCURVE",
"68 462 OFFCURVE",
"68 385 CURVE SMOOTH",
"68 253 OFFCURVE",
"136 138 OFFCURVE",
"244 68 CURVE",
"83 -1 OFFCURVE",
"54 -32 OFFCURVE",
"54 -141 CURVE SMOOTH"
);
},
{
closed = 1;
nodes = (
"471 420 LINE",
"471 265 OFFCURVE",
"408 149 OFFCURVE",
"296 88 CURVE",
"212 135 OFFCURVE",
"120 231 OFFCURVE",
"120 420 CURVE"
);
}
);
width = 591;
}
);
unicode = FECA;
},
{
color = 4;
glyphname = "ain-ar.medi";
layers = (
{
anchors = (
{
name = bottom;
position = "{296, -80}";
},
{
name = entry;
position = "{591, 29}";
},
{
name = exit;
position = "{0, 29}";
},
{
name = top;
position = "{296, 550}";
}
);
hints = (
{
horizontal = 1;
origin = "{2, 0}";
target = "{2, 3}";
},
{
horizontal = 1;
origin = "{1, 10}";
target = "{1, 20}";
},
{
origin = "{1, 13}";
target = "{1, 20}";
},
{
origin = "{1, 0}";
target = "{1, 7}";
}
);
layerId = "FC85C3E9-DF31-40AF-806C-BAFB081E1A8E";
paths = (
{
closed = 1;
nodes = (
"488 0 LINE",
"611 0 LINE",
"611 59 LINE",
"488 59 LINE"
);
},
{
closed = 1;
nodes = (
"471 420 LINE",
"471 195 OFFCURVE",
"324 59 OFFCURVE",
"102 59 CURVE",
"102 0 LINE",
"339 0 OFFCURVE",
"523 168 OFFCURVE",
"523 385 CURVE SMOOTH",
"523 461 OFFCURVE",
"481 478 OFFCURVE",
"296 478 CURVE SMOOTH",
"109 478 OFFCURVE",
"68 462 OFFCURVE",
"68 385 CURVE SMOOTH",
"68 167 OFFCURVE",
"251 0 OFFCURVE",
"489 0 CURVE",
"489 59 LINE",
"267 59 OFFCURVE",
"120 195 OFFCURVE",
"120 420 CURVE"
);
},
{
closed = 1;
nodes = (
"-20 0 LINE",
"102 0 LINE",
"102 59 LINE",
"-20 59 LINE"
);
}
);
width = 591;
}
);
unicode = FECC;
},
{
color = 4;
glyphname = "ain-ar.init";
layers = (
{
anchors = (
{
name = bottom;
position = "{325, -94}";
},
{
name = exit;
position = "{0, 29}";
},
{
name = top;
position = "{325, 550}";
}
);
color = 1;
hints = (
{
horizontal = 1;
origin = "{0, 3}";
target = "{0, 2}";
},
{
horizontal = 1;
origin = "{1, 9}";
target = "{1, 2}";
},
{
origin = "{1, 12}";
target = "{1, 21}";
}
);
layerId = "FC85C3E9-DF31-40AF-806C-BAFB081E1A8E";
paths = (
{
closed = 1;
nodes = (
"305 0 LINE",
"237 59 LINE",
"-20 59 LINE",
"-20 0 LINE"
);
},
{
closed = 1;
nodes = (
"211 419 OFFCURVE",
"254 423 OFFCURVE",
"300 423 CURVE SMOOTH",
"355 423 OFFCURVE",
"421 413 OFFCURVE",
"480 396 CURVE",
"489 449 LINE",
"454 467 OFFCURVE",
"374 481 OFFCURVE",
"314 481 CURVE SMOOTH",
"151 481 OFFCURVE",
"124 438 OFFCURVE",
"124 247 CURVE SMOOTH",
"124 52 OFFCURVE",
"154 0 OFFCURVE",
"309 0 CURVE",
"522 0 LINE",
"522 59 LINE",
"289 59 LINE SMOOTH",
"218 59 OFFCURVE",
"181 81 OFFCURVE",
"183 143 CURVE SMOOTH",
"183 409 LINE"
);
}
);
width = 576;
}
);
unicode = FECB;
},
{
color = 4;
glyphname = "dotlessfeh-ar";
layers = (
{
anchors = (
{
name = bottom;
position = "{458, -80}";
},
{
name = top;
position = "{692, 550}";
}
);
color = 1;
hints = (
{
horizontal = 1;
origin = "{0, 24}";
target = "{0, 11}";
},
{
horizontal = 1;
origin = "{0, 4}";
target = "{1, 4}";
},
{
origin = "{0, 21}";
target = "{0, 14}";
},
{
origin = "{0, 7}";
target = "{1, 0}";
},
{
origin = "{1, 6}";
target = "{0, 0}";
},
{
horizontal = 1;
origin = "{0, 18}";
target = down;
type = TopGhost;
}
);
layerId = "FC85C3E9-DF31-40AF-806C-BAFB081E1A8E";
paths = (
{
closed = 1;
nodes = (
"860 0 LINE",
"860 450 LINE",
"777 471 OFFCURVE",
"726 478 OFFCURVE",
"661 478 CURVE SMOOTH",
"495 478 OFFCURVE",
"469 436 OFFCURVE",
"469 246 CURVE SMOOTH",
"469 146 OFFCURVE",
"471 92 OFFCURVE",
"475 59 CURVE",
"146 59 LINE",
"133 100 OFFCURVE",
"129 144 OFFCURVE",
"129 205 CURVE SMOOTH",
"129 249 OFFCURVE",
"137 304 OFFCURVE",
"152 361 CURVE",
"104 370 LINE",
"88 331 OFFCURVE",
"77 257 OFFCURVE",
"77 200 CURVE SMOOTH",
"77 50 OFFCURVE",
"107 0 OFFCURVE",
"203 0 CURVE SMOOTH"
);
},
{
closed = 1;
nodes = (
"524 59 LINE",
"524 358 LINE SMOOTH",
"524 407 OFFCURVE",
"534 418 OFFCURVE",
"572 418 CURVE SMOOTH",
"807 418 LINE",
"807 113 LINE SMOOTH",
"807 72 OFFCURVE",
"796 59 OFFCURVE",
"759 59 CURVE SMOOTH"
);
}
);
width = 970;
}
);
unicode = 06A1;
},
{
color = 4;
glyphname = "dotlessfeh-ar.fina";
layers = (
{
anchors = (
{
name = bottom;
position = "{458, -66}";
},
{
name = entry;
position = "{970, 29}";
},
{
name = top;
position = "{692, 550}";
}
);
color = 1;
components = (
{
name = "dotlessfeh-ar";
}
);
hints = (
{
horizontal = 1;
origin = "{0, 0}";
target = "{0, 3}";
}
);
layerId = "FC85C3E9-DF31-40AF-806C-BAFB081E1A8E";
paths = (
{
closed = 1;
nodes = (
"859 0 LINE",
"990 0 LINE",
"990 58 LINE",
"859 58 LINE"
);
}
);
width = 970;
}
);
},
{
color = 4;
glyphname = "dotlessfeh-ar.medi";
layers = (
{
anchors = (
{
name = bottom;
position = "{332, -80}";
},
{
name = entry;
position = "{641, 29}";
},
{
name = exit;
position = "{0, 29}";
},
{
name = top;
position = "{332, 550}";
}
);
components = (
{
name = "dotlessfeh-ar.init";
}
);
hints = (
{
horizontal = 1;
origin = "{0, 0}";
target = "{0, 3}";
}
);
layerId = "FC85C3E9-DF31-40AF-806C-BAFB081E1A8E";
paths = (
{
closed = 1;
nodes = (
"530 0 LINE",
"661 0 LINE",
"661 58 LINE",
"530 58 LINE"
);
}
);
width = 641;
}
);
},
{
color = 4;
glyphname = "dotlessfeh-ar.init";
layers = (
{
anchors = (
{
name = bottom;
position = "{332, -80}";
},
{
name = exit;
position = "{0, 29}";
},
{
name = top;
position = "{332, 550}";
}
);
color = 2;
hints = (
{
horizontal = 1;
origin = "{0, 0}";
target = "{0, 12}";
},
{
horizontal = 1;
origin = "{0, 5}";
target = "{1, 4}";
},
{
origin = "{0, 8}";
target = "{1, 0}";
},
{
origin = "{1, 6}";
target = "{0, 1}";
}
);
layerId = "FC85C3E9-DF31-40AF-806C-BAFB081E1A8E";
paths = (
{
closed = 1;
nodes = (
"-20 0 LINE SMOOTH",
"530 0 LINE",
"530 450 LINE",
"448 471 OFFCURVE",
"396 478 OFFCURVE",
"332 478 CURVE SMOOTH",
"166 478 OFFCURVE",
"139 436 OFFCURVE",
"139 246 CURVE SMOOTH",
"139 146 OFFCURVE",
"142 92 OFFCURVE",
"146 59 CURVE",
"-20 59 LINE"
);
},
{
closed = 1;
nodes = (
"195 59 LINE",
"195 356 LINE SMOOTH",
"195 405 OFFCURVE",
"205 417 OFFCURVE",
"243 417 CURVE SMOOTH",
"478 417 LINE",
"478 113 LINE SMOOTH",
"478 72 OFFCURVE",
"467 59 OFFCURVE",
"430 59 CURVE SMOOTH"
);
}
);
width = 641;
}
);
},
{
color = 4;
glyphname = "dotlessqaf-ar";
layers = (
{
anchors = (
{
name = bottom;
position = "{431, -330}";
},
{
name = top;
position = "{558, 550}";
}
);
color = 1;
hints = (
{
horizontal = 1;
origin = "{0, 20}";
target = "{0, 7}";
},
{
horizontal = 1;
origin = "{1, 10}";
target = "{2, 0}";
},
{
horizontal = 1;
origin = "{1, 4}";
target = "{2, 4}";
},
{
origin = "{0, 17}";
target = "{0, 10}";
},
{
origin = "{1, 7}";
target = "{2, 0}";
},
{
origin = "{0, 6}";
target = "{0, 3}";
}
);
layerId = "FC85C3E9-DF31-40AF-806C-BAFB081E1A8E";
paths = (
{
closed = 1;
nodes = (
"624 -253 LINE SMOOTH",
"720 -253 OFFCURVE",
"749 -219 OFFCURVE",
"749 -112 CURVE SMOOTH",
"749 0 LINE",
"697 0 LINE",
"697 -194 LINE",
"133 -194 LINE",
"120 -143 OFFCURVE",
"115 -90 OFFCURVE",
"115 -15 CURVE SMOOTH",
"115 39 OFFCURVE",
"123 105 OFFCURVE",
"138 175 CURVE",
"90 184 LINE",
"74 137 OFFCURVE",
"63 49 OFFCURVE",
"63 -19 CURVE SMOOTH",
"63 -195 OFFCURVE",
"93 -253 OFFCURVE",
"189 -253 CURVE SMOOTH"
);
},
{
closed = 1;
nodes = (
"750 0 LINE",
"750 450 LINE",
"682 471 OFFCURVE",
"631 478 OFFCURVE",
"552 478 CURVE SMOOTH",
"386 478 OFFCURVE",
"359 441 OFFCURVE",
"359 236 CURVE SMOOTH",
"359 41 OFFCURVE",
"377 0 OFFCURVE",
"478 0 CURVE SMOOTH"
);
},
{
closed = 1;
nodes = (
"414 59 LINE",
"414 359 LINE SMOOTH",
"414 408 OFFCURVE",
"423 420 OFFCURVE",
"455 420 CURVE SMOOTH",
"697 420 LINE",
"697 113 LINE SMOOTH",
"697 72 OFFCURVE",
"686 59 OFFCURVE",
"649 59 CURVE SMOOTH"
);
}
);
width = 860;
}
);
unicode = 066F;
},
{
color = 4;
glyphname = "dotlessqaf-ar.fina";
layers = (
{
anchors = (
{
name = bottom;
position = "{431, -330}";
},
{
name = entry;
position = "{860, 29}";
},
{
name = top;
position = "{558, 550}";
}
);
components = (
{
name = "dotlessqaf-ar";
}
);
hints = (
{
horizontal = 1;
origin = "{0, 0}";
target = "{0, 3}";
}
);
layerId = "FC85C3E9-DF31-40AF-806C-BAFB081E1A8E";
paths = (
{
closed = 1;
nodes = (
"750 0 LINE",
"881 0 LINE",
"881 59 LINE",
"750 59 LINE"
);
}
);
width = 860;
}
);
},
{
color = 4;
glyphname = "kaf-ar";
layers = (
{
anchors = (
{
name = bottom;
position = "{462, -80}";
},
{
name = top;
position = "{445, 690}";
}
);
color = 1;
components = (
{
name = "hamzaabove-ar";
transform = "{1, 0, 0, 1, 290, -200}";
}
);
hints = (
{
horizontal = 1;
origin = "{0, 12}";
target = "{0, 17}";
},
{
horizontal = 1;
origin = "{0, 15}";
target = down;
type = TopGhost;
},
{
origin = "{0, 9}";
target = "{0, 2}";
},
{
origin = "{0, 16}";
target = "{0, 13}";
},
{
horizontal = 1;
origin = "{0, 6}";
target = down;
type = TopGhost;
}
);
layerId = "FC85C3E9-DF31-40AF-806C-BAFB081E1A8E";
paths = (
{
closed = 1;
nodes = (
"133 100 OFFCURVE",
"129 144 OFFCURVE",
"129 205 CURVE SMOOTH",
"129 249 OFFCURVE",
"137 304 OFFCURVE",
"152 361 CURVE",
"104 370 LINE",
"88 331 OFFCURVE",
"77 257 OFFCURVE",
"77 200 CURVE SMOOTH",
"77 50 OFFCURVE",
"107 0 OFFCURVE",
"203 0 CURVE",
"760 0 LINE",
"760 630 LINE",
"708 630 LINE",
"708 59 LINE",
"146 59 LINE"
);
}
);
width = 851;
}
);
unicode = 0643;
},
{
color = 4;
glyphname = "kaf-ar.fina";
layers = (
{
anchors = (
{
name = bottom;
position = "{462, -80}";
},
{
name = entry;
position = "{870, 29}";
},
{
name = top;
position = "{445, 690}";
}
);
color = 1;
components = (
{
name = "kaf-ar";
}
);
hints = (
{
horizontal = 1;
origin = "{0, 0}";
target = "{0, 3}";
}
);
layerId = "FC85C3E9-DF31-40AF-806C-BAFB081E1A8E";
paths = (
{
closed = 1;
nodes = (
"759 0 LINE",
"890 0 LINE",
"890 59 LINE",
"759 59 LINE"
);
}
);
width = 870;
}
);
unicode = FEDA;
},
{
color = 4;
glyphname = "kaf-ar.medi";
layers = (
{
anchors = (
{
name = bottom;
position = "{361, -80}";
},
{
name = entry;
position = "{693, 29}";
},
{
name = exit;
position = "{1, 29}";
},
{
name = top;
position = "{361, 820}";
}
);
components = (
{
name = "kaf-ar.init";
}
);
hints = (
{
horizontal = 1;
origin = "{0, 0}";
target = "{0, 3}";
},
{
horizontal = 1;
place = "{422.55, 121.5}";
},
{
place = "{123.471, 118.179}";
},
{
place = "{691.2, 121.5}";
}
);
layerId = "FC85C3E9-DF31-40AF-806C-BAFB081E1A8E";
paths = (
{
closed = 1;
nodes = (
"583 0 LINE",
"714 0 LINE",
"714 59 LINE",
"583 59 LINE"
);
}
);
width = 693;
}
);
unicode = FEDC;
},
{
color = 4;
glyphname = "kaf-ar.init";
layers = (
{
anchors = (
{
name = bottom;
position = "{361, -80}";
},
{
name = exit;
position = "{1, 29}";
},
{
name = top;
position = "{361, 820}";
}
);
color = 1;
hints = (
{
horizontal = 1;
origin = "{0, 19}";
target = "{0, 18}";
},
{
horizontal = 1;
origin = "{0, 15}";
target = "{0, 5}";
},
{
origin = "{0, 12}";
target = "{0, 5}";
},
{
origin = "{0, 17}";
target = "{0, 0}";
},
{
horizontal = 1;
origin = "{0, 9}";
target = down;
type = TopGhost;
}
);
layerId = "FC85C3E9-DF31-40AF-806C-BAFB081E1A8E";
paths = (
{
closed = 1;
nodes = (
"583 0 LINE",
"583 305 LINE SMOOTH",
"583 365 OFFCURVE",
"565 383 OFFCURVE",
"504 383 CURVE SMOOTH",
"133 383 LINE",
"149 482 OFFCURVE",
"197 580 OFFCURVE",
"281 673 CURVE",
"234 697 LINE",
"158 621 OFFCURVE",
"89 476 OFFCURVE",
"89 394 CURVE SMOOTH",
"89 348 OFFCURVE",
"118 325 OFFCURVE",
"174 325 CURVE SMOOTH",
"531 325 LINE",
"531 59 LINE",
"-20 59 LINE",
"-20 0 LINE"
);
}
);
width = 693;
}
);
unicode = FEDB;
},
{
color = 4;
glyphname = "keheh-ar";
layers = (
{
anchors = (
{
name = bottom;
position = "{388, -80}";
},
{
name = top;
position = "{196, 665}";
}
);
hints = (
{
horizontal = 1;
origin = "{0, 31}";
target = "{0, 18}";
},
{
horizontal = 1;
origin = "{0, 15}";
target = "{0, 5}";
},
{
origin = "{0, 28}";
target = "{0, 21}";
},
{
origin = "{0, 17}";
target = "{0, 0}";
},
{
horizontal = 1;
origin = "{0, 9}";
target = down;
type = TopGhost;
},
{
horizontal = 1;
origin = "{0, 25}";
target = down;
type = TopGhost;
}
);
layerId = "FC85C3E9-DF31-40AF-806C-BAFB081E1A8E";
paths = (
{
closed = 1;
nodes = (
"716 0 LINE",
"716 305 LINE SMOOTH",
"716 365 OFFCURVE",
"698 383 OFFCURVE",
"638 383 CURVE SMOOTH",
"340 383 LINE",
"355 482 OFFCURVE",
"403 580 OFFCURVE",
"487 673 CURVE",
"440 697 LINE",
"365 621 OFFCURVE",
"296 476 OFFCURVE",
"296 394 CURVE SMOOTH",
"296 348 OFFCURVE",
"324 325 OFFCURVE",
"380 325 CURVE SMOOTH",
"664 325 LINE",
"664 59 LINE",
"146 59 LINE",
"133 100 OFFCURVE",
"129 144 OFFCURVE",
"129 205 CURVE SMOOTH",
"129 249 OFFCURVE",
"137 304 OFFCURVE",
"152 361 CURVE",
"104 370 LINE",
"88 331 OFFCURVE",
"77 257 OFFCURVE",
"77 200 CURVE SMOOTH",
"77 50 OFFCURVE",
"107 0 OFFCURVE",
"203 0 CURVE SMOOTH"
);
}
);
width = 827;
}
);
unicode = 06A9;
},
{
color = 4;
glyphname = "keheh-ar.fina";
layers = (
{
anchors = (
{
name = bottom;
position = "{397, -80}";
},
{
name = entry;
position = "{827, 29}";
},
{
name = top;
position = "{399, 737}";
}
);
components = (
{
name = "keheh-ar";
}
);
hints = (
{
horizontal = 1;
origin = "{0, 0}";
target = "{0, 3}";
}
);
layerId = "FC85C3E9-DF31-40AF-806C-BAFB081E1A8E";
paths = (
{
closed = 1;
nodes = (
"716 0 LINE",
"847 0 LINE",
"847 59 LINE",
"716 59 LINE"
);
}
);
width = 827;
}
);
unicode = FB8F;
},
{
color = 4;
glyphname = "lam-ar";
layers = (
{
anchors = (
{
name = bottom;
position = "{314, -330}";
},
{
name = top;
position = "{314, 700}";
}
);
hints = (
{
horizontal = 1;
origin = "{0, 12}";
target = "{0, 22}";
},
{
horizontal = 1;
origin = "{0, 17}";
target = down;
type = TopGhost;
},
{
origin = "{0, 9}";
target = "{0, 2}";
},
{
origin = "{0, 18}";
target = "{0, 15}";
},
{
horizontal = 1;
origin = "{0, 6}";
target = down;
type = TopGhost;
}
);
layerId = "FC85C3E9-DF31-40AF-806C-BAFB081E1A8E";
paths = (
{
closed = 1;
nodes = (
"128 -132 OFFCURVE",
"125 -83 OFFCURVE",
"125 -12 CURVE SMOOTH",
"125 54 OFFCURVE",
"133 134 OFFCURVE",
"148 218 CURVE",
"102 227 LINE",
"85 168 OFFCURVE",
"73 60 OFFCURVE",
"73 -25 CURVE SMOOTH",
"73 -200 OFFCURVE",
"99 -240 OFFCURVE",
"287 -240 CURVE SMOOTH",
"502 -240 OFFCURVE",
"542 -206 OFFCURVE",
"542 -52 CURVE SMOOTH",
"542 627 LINE",
"490 627 LINE",
"490 -129 LINE SMOOTH",
"490 -172 OFFCURVE",
"456 -182 OFFCURVE",
"339 -182 CURVE SMOOTH",
"138 -182 LINE"
);
}
);
width = 656;
}
);
unicode = 0644;
},
{
color = 4;
glyphname = "lam-ar.fina";
layers = (
{
anchors = (
{
name = bottom;
position = "{314, -330}";
},
{
name = entry;
position = "{653, 29}";
},
{
name = top;
position = "{314, 700}";
}
);
components = (
{
name = "lam-ar";
}
);
hints = (
{
horizontal = 1;
origin = "{0, 0}";
target = "{0, 3}";
}
);
layerId = "FC85C3E9-DF31-40AF-806C-BAFB081E1A8E";
paths = (
{
closed = 1;
nodes = (
"542 0 LINE",
"673 0 LINE",
"673 59 LINE",
"542 59 LINE"
);
}
);
width = 653;
}
);
unicode = FEDE;
},
{
color = 4;
glyphname = "lam-ar.medi";
layers = (
{
anchors = (
{
name = bottom;
position = "{170, -80}";
},
{
name = entry;
position = "{306, 29}";
},
{
name = exit;
position = "{0, 29}";
},
{
name = top;
position = "{170, 730}";
}
);
color = 1;
hints = (
{
horizontal = 1;
origin = "{0, 4}";
target = "{0, 3}";
},
{
horizontal = 1;
origin = "{0, 1}";
target = down;
type = TopGhost;
},
{
origin = "{0, 2}";
target = "{0, 7}";
}
);
layerId = "FC85C3E9-DF31-40AF-806C-BAFB081E1A8E";
paths = (
{
closed = 1;
nodes = (
"195 630 LINE",
"144 630 LINE",
"144 59 LINE",
"-20 59 LINE",
"-20 0 LINE",
"326 0 LINE",
"326 59 LINE",
"195 59 LINE"
);
}
);
width = 306;
}
);
unicode = FEE0;
},
{
color = 4;
glyphname = "lam-ar.init";
layers = (
{
anchors = (
{
name = bottom;
position = "{170, -37}";
},
{
name = entry;
position = "{0, 29}";
},
{
name = top;
position = "{170, 730}";
}
);
color = 1;
hints = (
{
horizontal = 1;
origin = "{0, 4}";
target = "{0, 3}";
},
{
horizontal = 1;
origin = "{0, 1}";
target = down;
type = TopGhost;
},
{
origin = "{0, 2}";
target = "{0, 5}";
}
);
layerId = "FC85C3E9-DF31-40AF-806C-BAFB081E1A8E";
paths = (
{
closed = 1;
nodes = (
"195 630 LINE",
"144 630 LINE",
"144 59 LINE",
"-20 59 LINE",
"-20 0 LINE",
"195 0 LINE"
);
}
);
width = 306;
}
);
unicode = FEDF;
},
{
color = 4;
glyphname = "meem-ar";
layers = (
{
anchors = (
{
name = bottom;
position = "{340, -80}";
},
{
name = top;
position = "{340, 550}";
}
);
color = 1;
hints = (
{
horizontal = 1;
origin = "{0, 6}";
target = "{0, 23}";
},
{
horizontal = 1;
origin = "{0, 11}";
target = "{0, 18}";
},
{
origin = "{0, 26}";
target = "{0, 3}";
},
{
origin = "{0, 22}";
target = "{0, 7}";
},
{
origin = "{1, 10}";
target = "{1, 3}";
},
{
horizontal = 1;
origin = "{0, 29}";
target = up;
type = BottomGhost;
}
);
layerId = "FC85C3E9-DF31-40AF-806C-BAFB081E1A8E";
paths = (
{
closed = 1;
nodes = (
"106 -323 LINE",
"87 -246 OFFCURVE",
"79 -192 OFFCURVE",
"79 -146 CURVE SMOOTH",
"79 -84 OFFCURVE",
"84 -41 OFFCURVE",
"96 0 CURVE",
"529 0 LINE",
"529 364 LINE SMOOTH",
"529 451 OFFCURVE",
"487 478 OFFCURVE",
"354 478 CURVE SMOOTH",
"279 478 OFFCURVE",
"199 462 OFFCURVE",
"160 441 CURVE",
"179 396 LINE",
"225 410 OFFCURVE",
"294 420 OFFCURVE",
"352 420 CURVE SMOOTH",
"405 420 OFFCURVE",
"442 416 OFFCURVE",
"477 406 CURVE",
"477 59 LINE",
"128 59 LINE SMOOTH",
"51 59 OFFCURVE",
"27 11 OFFCURVE",
"27 -137 CURVE SMOOTH",
"27 -204 OFFCURVE",
"39 -290 OFFCURVE",
"56 -334 CURVE"
);
},
{
closed = 1;
nodes = (
"210 15 LINE",
"170 67 OFFCURVE",
"162 150 OFFCURVE",
"162 219 CURVE SMOOTH",
"162 287 OFFCURVE",
"179 352 OFFCURVE",
"202 422 CURVE",
"159 441 LINE",
"131 375 OFFCURVE",
"110 299 OFFCURVE",
"110 219 CURVE SMOOTH",
"110 145 OFFCURVE",
"118 67 OFFCURVE",
"154 26 CURVE"
);
}
);
width = 641;
}
);
unicode = 0645;
},
{
color = 4;
glyphname = "meem-ar.fina";
layers = (
{
anchors = (
{
name = bottom;
position = "{340, -80}";
},
{
name = entry;
position = "{640, 29}";
},
{
name = top;
position = "{340, 550}";
}
);
color = 1;
components = (
{
name = "meem-ar";
}
);
hints = (
{
horizontal = 1;
origin = "{0, 0}";
target = "{0, 3}";
}
);
layerId = "FC85C3E9-DF31-40AF-806C-BAFB081E1A8E";
paths = (
{
closed = 1;
nodes = (
"529 0 LINE",
"660 0 LINE",
"660 59 LINE",
"529 59 LINE"
);
}
);
width = 640;
}
);
unicode = FEE2;
},
{
color = 4;
glyphname = "meem-ar.medi";
layers = (
{
anchors = (
{
name = bottom;
position = "{341, -80}";
},
{
name = entry;
position = "{640, 29}";
},
{
name = exit;
position = "{0, 29}";
},
{
name = top;
position = "{341, 550}";
}
);
components = (
{
name = "meem-ar.init";
}
);
hints = (
{
horizontal = 1;
origin = "{0, 0}";
target = "{0, 3}";
}
);
layerId = "FC85C3E9-DF31-40AF-806C-BAFB081E1A8E";
paths = (
{
closed = 1;
nodes = (
"529 0 LINE",
"660 0 LINE",
"660 59 LINE",
"529 59 LINE"
);
}
);
width = 640;
}
);
unicode = FEE4;
},
{
color = 4;
glyphname = "meem-ar.init";
layers = (
{
anchors = (
{
name = bottom;
position = "{341, -80}";
},
{
name = exit;
position = "{0, 29}";
},
{
name = top;
position = "{341, 550}";
}
);
color = 1;
hints = (
{
horizontal = 1;
origin = "{0, 12}";
target = "{0, 11}";
},
{
horizontal = 1;
origin = "{0, 17}";
target = "{0, 6}";
},
{
origin = "{1, 10}";
target = "{1, 3}";
},
{
origin = "{0, 10}";
target = "{0, 14}";
}
);
layerId = "FC85C3E9-DF31-40AF-806C-BAFB081E1A8E";
paths = (
{
closed = 1;
nodes = (
"289 478 OFFCURVE",
"204 466 OFFCURVE",
"160 441 CURVE",
"179 396 LINE",
"232 412 OFFCURVE",
"303 420 OFFCURVE",
"352 420 CURVE SMOOTH",
"404 420 OFFCURVE",
"440 416 OFFCURVE",
"477 406 CURVE",
"477 59 LINE",
"-20 59 LINE",
"-20 0 LINE",
"529 0 LINE",
"529 364 LINE SMOOTH",
"529 451 OFFCURVE",
"487 478 OFFCURVE",
"354 478 CURVE SMOOTH"
);
},
{
closed = 1;
nodes = (
"210 15 LINE",
"170 67 OFFCURVE",
"162 150 OFFCURVE",
"162 219 CURVE SMOOTH",
"162 287 OFFCURVE",
"179 352 OFFCURVE",
"202 422 CURVE",
"159 441 LINE",
"131 375 OFFCURVE",
"110 299 OFFCURVE",
"110 219 CURVE SMOOTH",
"110 145 OFFCURVE",
"118 67 OFFCURVE",
"154 26 CURVE"
);
}
);
width = 636;
}
);
unicode = FEE3;
},
{
color = 4;
glyphname = "noonghunna-ar";
layers = (
{
anchors = (
{
name = bottom;
position = "{314, -330}";
},
{
name = top;
position = "{314, 550}";
}
);
hints = (
{
horizontal = 1;
origin = "{0, 12}";
target = "{0, 22}";
},
{
horizontal = 1;
origin = "{0, 17}";
target = down;
type = TopGhost;
},
{
origin = "{0, 9}";
target = "{0, 2}";
},
{
origin = "{0, 18}";
target = "{0, 15}";
},
{
horizontal = 1;
origin = "{0, 6}";
target = down;
type = TopGhost;
}
);
layerId = "FC85C3E9-DF31-40AF-806C-BAFB081E1A8E";
paths = (
{
closed = 1;
nodes = (
"128 -132 OFFCURVE",
"125 -83 OFFCURVE",
"125 -12 CURVE SMOOTH",
"125 54 OFFCURVE",
"133 134 OFFCURVE",
"148 218 CURVE",
"102 227 LINE",
"85 168 OFFCURVE",
"73 60 OFFCURVE",
"73 -25 CURVE SMOOTH",
"73 -200 OFFCURVE",
"99 -240 OFFCURVE",
"287 -240 CURVE SMOOTH",
"502 -240 OFFCURVE",
"542 -206 OFFCURVE",
"542 -52 CURVE SMOOTH",
"542 470 LINE",
"490 470 LINE",
"490 -129 LINE SMOOTH",
"490 -172 OFFCURVE",
"456 -182 OFFCURVE",
"339 -182 CURVE SMOOTH",
"138 -182 LINE"
);
}
);
width = 656;
}
);
unicode = 06BA;
},
{
color = 4;
glyphname = "noonghunna-ar.fina";
layers = (
{
anchors = (
{
name = bottom;
position = "{314, -330}";
},
{
name = entry;
position = "{653, 29}";
},
{
name = top;
position = "{314, 550}";
}
);
color = 1;
components = (
{
name = "noonghunna-ar";
}
);
hints = (
{
horizontal = 1;
origin = "{0, 0}";
target = "{0, 3}";
}
);
layerId = "FC85C3E9-DF31-40AF-806C-BAFB081E1A8E";
paths = (
{
closed = 1;
nodes = (
"542 0 LINE",
"673 0 LINE",
"673 59 LINE",
"542 59 LINE"
);
}
);
width = 653;
}
);
unicode = FB9F;
},
{
color = 4;
glyphname = "heh-ar";
layers = (
{
anchors = (
{
name = bottom;
position = "{317, -80}";
},
{
name = top;
position = "{317, 550}";
}
);
color = 1;
hints = (
{
horizontal = 1;
origin = "{0, 6}";
target = "{1, 1}";
},
{
horizontal = 1;
origin = "{0, 0}";
target = "{1, 8}";
},
{
origin = "{0, 3}";
target = "{1, 4}";
},
{
origin = "{1, 0}";
target = "{0, 7}";
}
);
layerId = "FC85C3E9-DF31-40AF-806C-BAFB081E1A8E";
paths = (
{
closed = 1;
nodes = (
"283 470 LINE SMOOTH",
"119 470 OFFCURVE",
"94 438 OFFCURVE",
"94 235 CURVE SMOOTH",
"94 33 OFFCURVE",
"119 0 OFFCURVE",
"283 0 CURVE SMOOTH",
"518 0 LINE",
"518 470 LINE"
);
},
{
closed = 1;
nodes = (
"466 59 LINE",
"230 59 LINE SMOOTH",
"172 59 OFFCURVE",
"149 76 OFFCURVE",
"149 123 CURVE SMOOTH",
"149 347 LINE SMOOTH",
"149 394 OFFCURVE",
"172 412 OFFCURVE",
"230 412 CURVE SMOOTH",
"466 412 LINE"
);
}
);
width = 629;
}
);
unicode = 0647;
},
{
color = 4;
glyphname = "heh-ar.fina";
layers = (
{
anchors = (
{
name = bottom;
position = "{298, -80}";
},
{
name = entry;
position = "{610, 29}";
},
{
name = top;
position = "{298, 550}";
}
);
color = 1;
components = (
{
name = "heh-ar";
}
);
hints = (
{
horizontal = 1;
origin = "{0, 0}";
target = "{0, 3}";
}
);
layerId = "FC85C3E9-DF31-40AF-806C-BAFB081E1A8E";
paths = (
{
closed = 1;
nodes = (
"514 0 LINE",
"630 0 LINE",
"630 59 LINE",
"514 59 LINE"
);
}
);
width = 610;
}
);
unicode = FEEA;
},
{
color = 4;
glyphname = "heh-ar.medi";
layers = (
{
anchors = (
{
name = bottom;
position = "{310, -77}";
},
{
name = entry;
position = "{713, 29}";
},
{
name = exit;
position = "{0, 29}";
},
{
name = top;
position = "{310, 645}";
}
);
color = 2;
components = (
{
name = "heh-ar.init";
}
);
hints = (
{
horizontal = 1;
origin = "{0, 0}";
target = "{0, 3}";
},
{
origin = "{0, 0}";
target = "{0, 1}";
},
{
horizontal = 1;
origin = "{0, 1}";
target = "{0, 2}";
}
);
layerId = "FC85C3E9-DF31-40AF-806C-BAFB081E1A8E";
paths = (
{
closed = 1;
nodes = (
"640 -1 LINE",
"733 -1 LINE",
"733 57 LINE",
"640 57 LINE"
);
}
);
width = 713;
}
);
unicode = FEEC;
},
{
color = 4;
glyphname = "heh-ar.init";
layers = (
{
anchors = (
{
name = bottom;
position = "{310, -77}";
},
{
name = exit;
position = "{0, 29}";
},
{
name = top;
position = "{310, 645}";
}
);
color = 1;
hints = (
{
horizontal = 1;
origin = "{0, 12}";
target = "{0, 11}";
},
{
horizontal = 1;
origin = "{2, 5}";
target = "{1, 3}";
},
{
horizontal = 1;
origin = "{0, 6}";
target = "{0, 5}";
},
{
origin = "{1, 6}";
target = "{2, 1}";
},
{
origin = "{2, 0}";
target = "{1, 0}";
}
);
layerId = "FC85C3E9-DF31-40AF-806C-BAFB081E1A8E";
paths = (
{
closed = 1;
nodes = (
"663 0 LINE",
"663 44 LINE",
"597 297 LINE SMOOTH",
"549 486 OFFCURVE",
"435 526 OFFCURVE",
"242 526 CURVE",
"238 470 LINE",
"408 470 OFFCURVE",
"507 433 OFFCURVE",
"550 278 CURVE SMOOTH",
"607 59 LINE",
"-20 59 LINE",
"-20 0 LINE"
);
},
{
closed = 1;
nodes = (
"437 42 LINE",
"437 259 OFFCURVE",
"428 280 OFFCURVE",
"262 280 CURVE SMOOTH",
"110 280 OFFCURVE",
"101 259 OFFCURVE",
"101 42 CURVE"
);
},
{
closed = 1;
nodes = (
"391 42 LINE",
"146 42 LINE",
"146 195 LINE SMOOTH",
"146 228 OFFCURVE",
"159 238 OFFCURVE",
"204 238 CURVE SMOOTH",
"391 238 LINE"
);
}
);
width = 713;
}
);
unicode = FEEB;
},
{
color = 4;
glyphname = "hehgoal-ar.fina";
layers = (
{
anchors = (
{
name = bottom;
position = "{329, -80}";
},
{
name = entry;
position = "{644, 29}";
},
{
name = top;
position = "{329, 550}";
}
);
color = 1;
hints = (
{
horizontal = 1;
origin = "{0, 3}";
target = "{1, 4}";
},
{
horizontal = 1;
origin = "{0, 15}";
target = "{0, 8}";
},
{
origin = "{0, 3}";
target = "{0, 4}";
},
{
origin = "{1, 1}";
target = "{1, 4}";
}
);
layerId = "FC85C3E9-DF31-40AF-806C-BAFB081E1A8E";
paths = (
{
closed = 1;
nodes = (
"152 478 OFFCURVE",
"107 447 OFFCURVE",
"107 351 CURVE SMOOTH",
"107 0 LINE",
"159 0 LINE",
"159 406 LINE",
"208 416 OFFCURVE",
"262 420 OFFCURVE",
"331 420 CURVE SMOOTH",
"380 420 OFFCURVE",
"468 412 OFFCURVE",
"527 396 CURVE",
"534 450 LINE",
"502 466 OFFCURVE",
"390 478 OFFCURVE",
"315 478 CURVE SMOOTH"
);
},
{
closed = 1;
nodes = (
"481 450 LINE",
"481 0 LINE",
"664 0 LINE",
"664 59 LINE",
"534 59 LINE",
"534 450 LINE"
);
}
);
width = 644;
}
);
unicode = FBA7;
},
{
color = 4;
glyphname = "hehgoal-ar.medi";
layers = (
{
anchors = (
{
name = bottom;
position = "{357, -415}";
},
{
name = entry;
position = "{637, 29}";
},
{
name = exit;
position = "{0, 29}";
},
{
name = top;
position = "{357, 550}";
}
);
hints = (
{
horizontal = 1;
origin = "{0, 19}";
target = "{0, 4}";
},
{
horizontal = 1;
origin = "{2, 3}";
target = "{2, 2}";
},
{
origin = "{0, 13}";
target = "{0, 10}";
},
{
origin = "{0, 1}";
target = "{0, 22}";
}
);
layerId = "FC85C3E9-DF31-40AF-806C-BAFB081E1A8E";
paths = (
{
closed = 1;
nodes = (
"477 16 LINE",
"477 -291 LINE",
"442 -301 OFFCURVE",
"401 -305 OFFCURVE",
"351 -305 CURVE SMOOTH",
"312 -305 OFFCURVE",
"266 -299 OFFCURVE",
"217 -288 CURVE",
"197 -231 OFFCURVE",
"183 -166 OFFCURVE",
"183 -108 CURVE SMOOTH",
"183 0 LINE",
"128 0 LINE",
"128 -105 LINE SMOOTH",
"128 -189 OFFCURVE",
"148 -279 OFFCURVE",
"174 -337 CURVE",
"225 -363 OFFCURVE",
"303 -375 OFFCURVE",
"367 -375 CURVE SMOOTH",
"495 -375 OFFCURVE",
"529 -344 OFFCURVE",
"529 -247 CURVE SMOOTH",
"529 16 LINE"
);
},
{
closed = 1;
nodes = (
"660 0 LINE",
"660 59 LINE",
"477 59 LINE",
"477 0 LINE"
);
},
{
closed = 1;
nodes = (
"184 0 LINE",
"184 59 LINE",
"-20 59 LINE",
"-20 0 LINE"
);
}
);
width = 637;
}
);
unicode = FBA9;
},
{
color = 4;
glyphname = "hehDoachashmee-ar";
layers = (
{
anchors = (
{
name = bottom;
position = "{310, -77}";
},
{
name = top;
position = "{310, 645}";
}
);
hints = (
{
horizontal = 1;
origin = "{0, 12}";
target = "{0, 11}";
},
{
horizontal = 1;
origin = "{2, 5}";
target = "{1, 3}";
},
{
horizontal = 1;
origin = "{0, 6}";
target = "{0, 5}";
},
{
origin = "{1, 6}";
target = "{2, 1}";
},
{
origin = "{2, 0}";
target = "{1, 0}";
}
);
layerId = "FC85C3E9-DF31-40AF-806C-BAFB081E1A8E";
paths = (
{
closed = 1;
nodes = (
"663 0 LINE",
"663 44 LINE",
"597 297 LINE SMOOTH",
"549 486 OFFCURVE",
"435 526 OFFCURVE",
"242 526 CURVE",
"238 470 LINE",
"408 470 OFFCURVE",
"507 433 OFFCURVE",
"550 278 CURVE SMOOTH",
"607 59 LINE",
"20 59 LINE",
"20 0 LINE"
);
},
{
closed = 1;
nodes = (
"437 42 LINE",
"437 259 OFFCURVE",
"428 280 OFFCURVE",
"262 280 CURVE SMOOTH",
"110 280 OFFCURVE",
"101 259 OFFCURVE",
"101 42 CURVE"
);
},
{
closed = 1;
nodes = (
"391 42 LINE",
"146 42 LINE",
"146 195 LINE SMOOTH",
"146 228 OFFCURVE",
"159 238 OFFCURVE",
"204 238 CURVE SMOOTH",
"391 238 LINE"
);
}
);
width = 713;
}
);
unicode = 06BE;
},
{
color = 4;
glyphname = "hehDoachashmee-ar.fina";
layers = (
{
anchors = (
{
name = bottom;
position = "{310, -77}";
},
{
name = entry;
position = "{713, 28}";
},
{
name = top;
position = "{310, 645}";
}
);
components = (
{
name = "hehDoachashmee-ar";
}
);
hints = (
{
horizontal = 1;
origin = "{0, 0}";
target = "{0, 3}";
},
{
origin = "{0, 0}";
target = "{0, 1}";
}
);
layerId = "FC85C3E9-DF31-40AF-806C-BAFB081E1A8E";
paths = (
{
closed = 1;
nodes = (
"637 -1 LINE",
"733 -1 LINE",
"733 57 LINE",
"637 57 LINE"
);
}
);
width = 713;
}
);
unicode = FBAB;
},
{
color = 1;
glyphname = "waw-ar";
layers = (
{
anchors = (
{
name = bottom;
position = "{290, -330}";
},
{
name = top;
position = "{290, 550}";
}
);
hints = (
{
horizontal = 1;
origin = "{0, 11}";
target = "{1, 0}";
},
{
horizontal = 1;
origin = "{0, 5}";
target = "{1, 4}";
},
{
origin = "{0, 8}";
target = "{1, 0}";
},
{
origin = "{2, 3}";
target = "{0, 1}";
},
{
horizontal = 1;
origin = "{2, 7}";
target = up;
type = BottomGhost;
}
);
layerId = "FC85C3E9-DF31-40AF-806C-BAFB081E1A8E";
paths = (
{
closed = 1;
nodes = (
"469 0 LINE",
"488 59 LINE",
"488 450 LINE",
"420 471 OFFCURVE",
"369 478 OFFCURVE",
"290 478 CURVE SMOOTH",
"124 478 OFFCURVE",
"97 441 OFFCURVE",
"97 236 CURVE SMOOTH",
"97 41 OFFCURVE",
"115 0 OFFCURVE",
"216 0 CURVE SMOOTH"
);
},
{
closed = 1;
nodes = (
"152 59 LINE",
"152 359 LINE SMOOTH",
"152 408 OFFCURVE",
"161 420 OFFCURVE",
"193 420 CURVE SMOOTH",
"435 420 LINE",
"435 113 LINE SMOOTH",
"435 72 OFFCURVE",
"424 59 OFFCURVE",
"387 59 CURVE SMOOTH"
);
},
{
closed = 1;
nodes = (
"389 -192 OFFCURVE",
"488 -37 OFFCURVE",
"488 59 CURVE",
"436 59 LINE",
"436 -20 OFFCURVE",
"346 -146 OFFCURVE",
"250 -219 CURVE",
"280 -261 LINE"
);
}
);
width = 598;
}
);
unicode = 0648;
},
{
color = 4;
glyphname = "waw-ar.fina";
layers = (
{
anchors = (
{
name = bottom;
position = "{290, -330}";
},
{
name = entry;
position = "{608, 29}";
},
{
name = top;
position = "{290, 550}";
}
);
components = (
{
name = "waw-ar";
}
);
hints = (
{
horizontal = 1;
origin = "{0, 0}";
target = "{0, 3}";
}
);
layerId = "FC85C3E9-DF31-40AF-806C-BAFB081E1A8E";
paths = (
{
closed = 1;
nodes = (
"472 0 LINE",
"629 0 LINE",
"629 59 LINE",
"472 59 LINE"
);
}
);
width = 608;
}
);
unicode = FEEE;
},
{
color = 4;
glyphname = "alefMaksura-ar";
layers = (
{
anchors = (
{
name = bottom;
position = "{436, -330}";
},
{
name = top;
position = "{164, 240}";
}
);
color = 1;
hints = (
{
horizontal = 1;
origin = "{0, 2}";
target = "{0, 33}";
},
{
horizontal = 1;
origin = "{0, 21}";
target = "{0, 14}";
},
{
horizontal = 1;
origin = "{0, 21}";
target = down;
type = TopGhost;
},
{
origin = "{0, 43}";
target = "{0, 36}";
},
{
origin = "{0, 24}";
target = "{0, 10}";
},
{
origin = "{0, 29}";
target = "{0, 5}";
},
{
horizontal = 1;
origin = "{0, 40}";
target = down;
type = TopGhost;
}
);
layerId = "FC85C3E9-DF31-40AF-806C-BAFB081E1A8E";
paths = (
{
closed = 1;
nodes = (
"73 -269 OFFCURVE",
"130 -270 OFFCURVE",
"384 -270 CURVE SMOOTH",
"688 -270 OFFCURVE",
"742 -235 OFFCURVE",
"742 -95 CURVE SMOOTH",
"742 -27 LINE SMOOTH",
"742 101 OFFCURVE",
"718 151 OFFCURVE",
"616 161 CURVE SMOOTH",
"441 180 LINE",
"441 417 LINE",
"473 421 OFFCURVE",
"501 422 OFFCURVE",
"542 422 CURVE SMOOTH",
"599 422 OFFCURVE",
"652 418 OFFCURVE",
"711 407 CURVE",
"723 463 LINE",
"657 475 OFFCURVE",
"602 480 OFFCURVE",
"545 480 CURVE SMOOTH",
"426 480 OFFCURVE",
"386 428 OFFCURVE",
"386 295 CURVE SMOOTH",
"386 167 OFFCURVE",
"416 127 OFFCURVE",
"546 111 CURVE SMOOTH",
"690 93 LINE",
"690 -158 LINE SMOOTH",
"690 -201 OFFCURVE",
"632 -211 OFFCURVE",
"422 -211 CURVE SMOOTH",
"138 -211 LINE",
"128 -170 OFFCURVE",
"125 -137 OFFCURVE",
"125 -83 CURVE SMOOTH",
"125 -23 OFFCURVE",
"137 50 OFFCURVE",
"152 127 CURVE",
"102 137 LINE",
"85 81 OFFCURVE",
"73 -22 OFFCURVE",
"73 -102 CURVE SMOOTH"
);
}
);
width = 839;
}
);
unicode = 0649;
},
{
color = 4;
glyphname = "alefMaksura-ar.fina";
layers = (
{
anchors = (
{
name = bottom;
position = "{436, -330}";
},
{
name = entry;
position = "{853, 29}";
},
{
name = top;
position = "{164, 240}";
}
);
color = 1;
hints = (
{
horizontal = 1;
origin = "{0, 22}";
target = "{0, 9}";
},
{
horizontal = 1;
origin = "{1, 9}";
target = "{1, 2}";
},
{
origin = "{0, 19}";
target = "{0, 12}";
},
{
origin = "{0, 5}";
target = "{0, 2}";
}
);
layerId = "FC85C3E9-DF31-40AF-806C-BAFB081E1A8E";
paths = (
{
closed = 1;
nodes = (
"688 -270 OFFCURVE",
"742 -235 OFFCURVE",
"742 -95 CURVE SMOOTH",
"742 0 LINE",
"690 0 LINE",
"690 -158 LINE SMOOTH",
"690 -201 OFFCURVE",
"632 -211 OFFCURVE",
"422 -211 CURVE SMOOTH",
"138 -211 LINE",
"128 -170 OFFCURVE",
"125 -137 OFFCURVE",
"125 -83 CURVE SMOOTH",
"125 -23 OFFCURVE",
"137 50 OFFCURVE",
"152 127 CURVE",
"102 137 LINE",
"85 81 OFFCURVE",
"73 -22 OFFCURVE",
"73 -102 CURVE SMOOTH",
"73 -269 OFFCURVE",
"130 -270 OFFCURVE",
"384 -270 CURVE SMOOTH"
);
},
{
closed = 1;
nodes = (
"873 0 LINE",
"873 59 LINE",
"614 59 LINE SMOOTH",
"567 59 OFFCURVE",
"506 66 OFFCURVE",
"448 82 CURVE",
"439 29 LINE",
"481 12 OFFCURVE",
"559 0 OFFCURVE",
"623 0 CURVE"
);
}
);
width = 853;
}
);
unicode = FEF0;
},
{
color = 4;
glyphname = "yehbarree-ar";
layers = (
{
anchors = (
{
name = bottom;
position = "{378, -370}";
},
{
name = top;
position = "{305, 175}";
}
);
hints = (
{
horizontal = 1;
origin = "{1, 15}";
target = "{1, 6}";
},
{
horizontal = 1;
origin = "{0, 15}";
target = "{0, 14}";
},
{
origin = "{1, 12}";
target = "{1, 9}";
},
{
origin = "{0, 10}";
target = "{0, 3}";
},
{
horizontal = 1;
origin = "{0, 7}";
target = down;
type = TopGhost;
}
);
layerId = "FC85C3E9-DF31-40AF-806C-BAFB081E1A8E";
paths = (
{
closed = 1;
nodes = (
"502 0 LINE SMOOTH",
"643 0 OFFCURVE",
"670 45 OFFCURVE",
"670 270 CURVE SMOOTH",
"670 287 OFFCURVE",
"669 306 OFFCURVE",
"666 329 CURVE",
"615 329 LINE",
"617 298 OFFCURVE",
"618 269 OFFCURVE",
"618 242 CURVE SMOOTH",
"618 163 OFFCURVE",
"615 116 OFFCURVE",
"605 73 CURVE",
"53 73 LINE",
"53 0 LINE"
);
},
{
closed = 1;
nodes = (
"460 -270 OFFCURVE",
"572 -257 OFFCURVE",
"622 -241 CURVE",
"613 -188 LINE",
"501 -209 OFFCURVE",
"460 -211 OFFCURVE",
"332 -211 CURVE SMOOTH",
"154 -211 OFFCURVE",
"105 -201 OFFCURVE",
"105 -158 CURVE SMOOTH",
"105 0 LINE",
"53 0 LINE",
"53 -92 LINE SMOOTH",
"53 -238 OFFCURVE",
"108 -270 OFFCURVE",
"377 -270 CURVE SMOOTH"
);
}
);
width = 761;
}
);
unicode = 06D2;
},
{
color = 4;
glyphname = "yehbarree-ar.fina";
layers = (
{
anchors = (
{
name = bottom;
position = "{378, -370}";
},
{
name = entry;
position = "{667, 29}";
},
{
name = top;
position = "{305, 188}";
}
);
hints = (
{
horizontal = 1;
origin = "{1, 15}";
target = "{1, 6}";
},
{
horizontal = 1;
origin = "{0, 3}";
target = "{0, 2}";
},
{
origin = "{1, 12}";
target = "{1, 9}";
}
);
layerId = "FC85C3E9-DF31-40AF-806C-BAFB081E1A8E";
paths = (
{
closed = 1;
nodes = (
"687 0 LINE",
"687 59 LINE",
"53 59 LINE",
"53 0 LINE"
);
},
{
closed = 1;
nodes = (
"460 -270 OFFCURVE",
"572 -257 OFFCURVE",
"622 -241 CURVE",
"613 -188 LINE",
"501 -209 OFFCURVE",
"460 -211 OFFCURVE",
"332 -211 CURVE SMOOTH",
"154 -211 OFFCURVE",
"105 -201 OFFCURVE",
"105 -158 CURVE SMOOTH",
"105 0 LINE",
"53 0 LINE",
"53 -92 LINE SMOOTH",
"53 -238 OFFCURVE",
"108 -270 OFFCURVE",
"377 -270 CURVE SMOOTH"
);
}
);
width = 667;
}
);
unicode = FBAF;
},
{
color = 4;
glyphname = "kashida-ar";
layers = (
{
anchors = (
{
name = bottom;
position = "{122, -224}";
},
{
name = entry;
position = "{244, 29}";
},
{
name = exit;
position = "{0, 29}";
},
{
name = top;
position = "{122, 573}";
}
);
hints = (
{
horizontal = 1;
origin = "{0, 3}";
target = "{0, 2}";
}
);
layerId = "FC85C3E9-DF31-40AF-806C-BAFB081E1A8E";
paths = (
{
closed = 1;
nodes = (
"264 0 LINE",
"264 59 LINE",
"-20 59 LINE",
"-20 0 LINE"
);
}
);
width = 244;
}
);
unicode = 0640;
},
{
color = 4;
glyphname = "lam_alef-ar";
layers = (
{
anchors = (
{
name = bottom_1;
position = "{486, -80}";
},
{
name = bottom_2;
position = "{109, -80}";
},
{
name = caret_1;
position = "{332, 0}";
},
{
name = top_1;
position = "{486, 730}";
},
{
name = top_2;
position = "{169, 625}";
}
);
hints = (
{
horizontal = 1;
origin = "{0, 6}";
target = "{1, 9}";
},
{
horizontal = 1;
origin = "{0, 18}";
target = down;
type = TopGhost;
},
{
origin = "{0, 3}";
target = "{1, 9}";
},
{
origin = "{0, 19}";
target = "{0, 16}";
},
{
origin = "{1, 5}";
target = "{0, 9}";
}
);
layerId = "FC85C3E9-DF31-40AF-806C-BAFB081E1A8E";
paths = (
{
closed = 1;
nodes = (
"219 270 LINE SMOOTH",
"99 223 OFFCURVE",
"74 204 OFFCURVE",
"74 115 CURVE SMOOTH",
"74 16 OFFCURVE",
"121 -15 OFFCURVE",
"285 -15 CURVE SMOOTH",
"461 -15 OFFCURVE",
"538 35 OFFCURVE",
"538 148 CURVE SMOOTH",
"538 203 OFFCURVE",
"516 241 OFFCURVE",
"446 296 CURVE",
"446 303 LINE",
"494 320 OFFCURVE",
"512 368 OFFCURVE",
"512 415 CURVE SMOOTH",
"512 630 LINE",
"460 630 LINE",
"460 363 LINE"
);
},
{
closed = 1;
nodes = (
"129 177 LINE",
"384 274 LINE",
"432 237 LINE SMOOTH",
"463 211 OFFCURVE",
"482 173 OFFCURVE",
"482 138 CURVE SMOOTH",
"482 89 OFFCURVE",
"440 43 OFFCURVE",
"344 43 CURVE SMOOTH",
"129 43 LINE"
);
},
{
closed = 1;
nodes = (
"414 315 LINE",
"136 537 LINE",
"104 497 LINE",
"357 293 LINE"
);
}
);
width = 621;
}
);
unicode = FEFB;
},
{
color = 4;
glyphname = "lam_alef-ar.fina";
layers = (
{
anchors = (
{
name = bottom_1;
position = "{475, -80}";
},
{
name = bottom_2;
position = "{219, -80}";
},
{
name = caret_1;
position = "{323, 0}";
},
{
name = entry;
position = "{612, 29}";
},
{
name = top_1;
position = "{475, 730}";
},
{
name = top_2;
position = "{170, 625}";
}
);
color = 1;
hints = (
{
horizontal = 1;
origin = "{2, 1}";
target = "{2, 0}";
},
{
horizontal = 1;
origin = "{0, 2}";
target = down;
type = TopGhost;
},
{
horizontal = 1;
origin = "{1, 2}";
target = down;
type = TopGhost;
},
{
origin = "{1, 3}";
target = "{1, 0}";
}
);
layerId = "FC85C3E9-DF31-40AF-806C-BAFB081E1A8E";
paths = (
{
closed = 1;
nodes = (
"240 29 LINE",
"195 545 LINE",
"143 545 LINE",
"188 29 LINE"
);
},
{
closed = 1;
nodes = (
"501 29 LINE",
"501 630 LINE",
"449 630 LINE",
"449 29 LINE"
);
},
{
closed = 1;
nodes = (
"20 59 LINE",
"20 0 LINE",
"632 0 LINE",
"632 59 LINE"
);
}
);
width = 612;
}
);
note = "Inclinacion barra inicial 5 - bottom_2 - 50 derecha en regular";
unicode = FEFC;
},
{
color = 4;
glyphname = "seen_reh-ar";
lastChange = "2016-02-27 16:05:17 +0000";
layers = (
{
anchors = (
{
name = bottom;
position = "{110, -330}";
},
{
name = bottom_1;
position = "{781, -80}";
},
{
name = caret_1;
position = "{528, 0}";
},
{
name = top;
position = "{164, 550}";
},
{
name = top_1;
position = "{781, 550}";
}
);
hints = (
{
horizontal = 1;
origin = "{2, 5}";
target = "{4, 9}";
},
{
horizontal = 1;
origin = "{2, 4}";
target = "{1, 0}";
},
{
origin = "{2, 5}";
target = "{2, 2}";
},
{
origin = "{0, 3}";
target = "{0, 0}";
},
{
origin = "{4, 5}";
target = "{3, 16}";
},
{
origin = "{3, 9}";
target = "{3, 2}";
},
{
horizontal = 1;
origin = "{3, 18}";
target = down;
type = TopGhost;
}
);
layerId = "FC85C3E9-DF31-40AF-806C-BAFB081E1A8E";
paths = (
{
closed = 1;
nodes = (
"521 0 LINE",
"521 470 LINE",
"469 470 LINE",
"469 0 LINE"
);
},
{
closed = 1;
nodes = (
"190 412 LINE",
"469 412 LINE",
"469 470 LINE",
"190 470 LINE"
);
},
{
closed = 1;
nodes = (
"151 -201 OFFCURVE",
"190 -129 OFFCURVE",
"190 -10 CURVE SMOOTH",
"190 470 LINE",
"138 470 LINE",
"138 -10 LINE SMOOTH",
"138 -112 OFFCURVE",
"108 -167 OFFCURVE",
"32 -206 CURVE",
"58 -250 LINE"
);
},
{
closed = 1;
nodes = (
"1077 0 OFFCURVE",
"1092 61 OFFCURVE",
"1092 256 CURVE SMOOTH",
"1092 315 OFFCURVE",
"1077 418 OFFCURVE",
"1066 467 CURVE",
"1015 458 LINE",
"1031 385 OFFCURVE",
"1040 313 OFFCURVE",
"1040 255 CURVE SMOOTH",
"1040 174 OFFCURVE",
"1037 115 OFFCURVE",
"1027 59 CURVE",
"886 59 LINE SMOOTH",
"827 59 OFFCURVE",
"807 68 OFFCURVE",
"807 111 CURVE SMOOTH",
"807 380 LINE",
"755 380 LINE",
"755 165 LINE SMOOTH",
"755 30 OFFCURVE",
"782 0 OFFCURVE",
"942 0 CURVE SMOOTH"
);
},
{
closed = 1;
nodes = (
"781 0 OFFCURVE",
"806 30 OFFCURVE",
"806 165 CURVE SMOOTH",
"806 380 LINE",
"754 380 LINE",
"754 111 LINE SMOOTH",
"754 68 OFFCURVE",
"734 59 OFFCURVE",
"675 59 CURVE SMOOTH",
"521 59 LINE",
"521 0 LINE",
"629 0 LINE SMOOTH"
);
}
);
width = 1191;
}
);
leftMetricsKey = "=reh-ar";
rightMetricsKey = "=seen-ar.init";
unicode = FD0E;
},
{
color = 4;
glyphname = "seen_reh-ar.fina";
layers = (
{
anchors = (
{
name = bottom;
position = "{110, -330}";
},
{
name = bottom_1;
position = "{781, -80}";
},
{
name = caret_1;
position = "{528, 0}";
},
{
name = entry;
position = "{1202, 29}";
},
{
name = top;
position = "{164, 550}";
},
{
name = top_1;
position = "{781, 550}";
}
);
color = 1;
components = (
{
name = "seen_reh-ar";
}
);
hints = (
{
horizontal = 1;
origin = "{0, 3}";
target = "{0, 2}";
}
);
layerId = "FC85C3E9-DF31-40AF-806C-BAFB081E1A8E";
paths = (
{
closed = 1;
nodes = (
"1222 0 LINE",
"1222 59 LINE",
"1036 59 LINE",
"942 0 LINE"
);
}
);
width = 1202;
}
);
leftMetricsKey = "=reh-ar";
unicode = FD2A;
},
{
color = 4;
glyphname = "seen_alefMaksura-ar";
layers = (
{
anchors = (
{
name = bottom;
position = "{1261, -80}";
},
{
name = bottom_2;
position = "{436, -330}";
},
{
name = caret_1;
position = "{771, 0}";
},
{
name = top;
position = "{1261, 550}";
},
{
name = top_2;
position = "{164, 240}";
}
);
hints = (
{
horizontal = 1;
origin = "{1, 2}";
target = "{1, 26}";
},
{
horizontal = 1;
origin = "{0, 3}";
target = "{3, 9}";
},
{
horizontal = 1;
origin = "{1, 14}";
target = "{1, 11}";
},
{
origin = "{1, 36}";
target = "{1, 29}";
},
{
origin = "{1, 17}";
target = "{1, 10}";
},
{
origin = "{1, 22}";
target = "{1, 5}";
},
{
origin = "{0, 3}";
target = "{0, 0}";
},
{
origin = "{3, 5}";
target = "{2, 16}";
},
{
origin = "{2, 9}";
target = "{2, 2}";
},
{
horizontal = 1;
origin = "{2, 18}";
target = down;
type = TopGhost;
}
);
layerId = "FC85C3E9-DF31-40AF-806C-BAFB081E1A8E";
paths = (
{
closed = 1;
nodes = (
"1002 0 LINE",
"1002 470 LINE",
"950 470 LINE",
"950 0 LINE"
);
},
{
closed = 1;
nodes = (
"73 -269 OFFCURVE",
"130 -270 OFFCURVE",
"384 -270 CURVE SMOOTH",
"688 -270 OFFCURVE",
"742 -235 OFFCURVE",
"742 -95 CURVE SMOOTH",
"742 -27 LINE SMOOTH",
"742 101 OFFCURVE",
"718 151 OFFCURVE",
"616 161 CURVE SMOOTH",
"441 180 LINE",
"441 412 LINE",
"949 412 LINE",
"949 470 LINE",
"545 470 LINE",
"426 470 OFFCURVE",
"386 420 OFFCURVE",
"386 295 CURVE SMOOTH",
"386 171 OFFCURVE",
"416 127 OFFCURVE",
"546 111 CURVE SMOOTH",
"690 93 LINE",
"690 -158 LINE SMOOTH",
"690 -201 OFFCURVE",
"632 -211 OFFCURVE",
"422 -211 CURVE SMOOTH",
"138 -211 LINE",
"128 -170 OFFCURVE",
"125 -137 OFFCURVE",
"125 -83 CURVE SMOOTH",
"125 -23 OFFCURVE",
"137 50 OFFCURVE",
"152 127 CURVE",
"102 137 LINE",
"85 81 OFFCURVE",
"73 -22 OFFCURVE",
"73 -102 CURVE SMOOTH"
);
},
{
closed = 1;
nodes = (
"1557 0 OFFCURVE",
"1572 61 OFFCURVE",
"1572 256 CURVE SMOOTH",
"1572 315 OFFCURVE",
"1557 418 OFFCURVE",
"1546 467 CURVE",
"1495 458 LINE",
"1511 385 OFFCURVE",
"1520 313 OFFCURVE",
"1520 255 CURVE SMOOTH",
"1520 174 OFFCURVE",
"1517 115 OFFCURVE",
"1507 59 CURVE",
"1366 59 LINE SMOOTH",
"1307 59 OFFCURVE",
"1287 68 OFFCURVE",
"1287 111 CURVE SMOOTH",
"1287 380 LINE",
"1235 380 LINE",
"1235 165 LINE SMOOTH",
"1235 30 OFFCURVE",
"1262 0 OFFCURVE",
"1422 0 CURVE SMOOTH"
);
},
{
closed = 1;
nodes = (
"1262 0 OFFCURVE",
"1287 30 OFFCURVE",
"1287 165 CURVE SMOOTH",
"1287 380 LINE",
"1235 380 LINE",
"1235 111 LINE SMOOTH",
"1235 68 OFFCURVE",
"1215 59 OFFCURVE",
"1156 59 CURVE SMOOTH",
"1002 59 LINE",
"1002 0 LINE",
"1110 0 LINE SMOOTH"
);
}
);
width = 1671;
}
);
leftMetricsKey = "alefMaksura-ar";
rightMetricsKey = "seen-ar.init";
unicode = FCFB;
},
{
color = 4;
glyphname = "seen_alefMaksura-ar.fina";
layers = (
{
anchors = (
{
name = bottom;
position = "{1261, -80}";
},
{
name = bottom_2;
position = "{436, -330}";
},
{
name = caret_1;
position = "{771, 0}";
},
{
name = entry;
position = "{1683, 29}";
},
{
name = top;
position = "{1261, 550}";
},
{
name = top_2;
position = "{164, 240}";
}
);
color = 1;
components = (
{
name = "seen_alefMaksura-ar";
}
);
hints = (
{
horizontal = 1;
origin = "{0, 0}";
target = "{0, 3}";
}
);
layerId = "FC85C3E9-DF31-40AF-806C-BAFB081E1A8E";
paths = (
{
closed = 1;
nodes = (
"1422 0 LINE",
"1702 0 LINE",
"1702 59 LINE",
"1516 59 LINE"
);
}
);
width = 1683;
}
);
leftMetricsKey = "alefMaksura-ar";
unicode = FD17;
},
{
color = 4;
glyphname = "sad_reh-ar";
lastChange = "2016-02-27 16:05:17 +0000";
layers = (
{
anchors = (
{
name = bottom;
position = "{110, -330}";
},
{
name = bottom_1;
position = "{785, -80}";
},
{
name = caret_1;
position = "{528, 0}";
},
{
name = top;
position = "{164, 550}";
},
{
name = top_1;
position = "{785, 550}";
}
);
hints = (
{
horizontal = 1;
origin = "{1, 5}";
target = "{2, 0}";
},
{
horizontal = 1;
origin = "{3, 4}";
target = "{3, 14}";
},
{
horizontal = 1;
origin = "{1, 4}";
target = "{0, 0}";
},
{
origin = "{1, 5}";
target = "{1, 2}";
},
{
origin = "{2, 1}";
target = "{3, 11}";
},
{
origin = "{3, 18}";
target = "{2, 2}";
}
);
layerId = "FC85C3E9-DF31-40AF-806C-BAFB081E1A8E";
paths = (
{
closed = 1;
nodes = (
"190 412 LINE",
"469 412 LINE",
"469 470 LINE",
"190 470 LINE"
);
},
{
closed = 1;
nodes = (
"151 -201 OFFCURVE",
"190 -128 OFFCURVE",
"190 -9 CURVE SMOOTH",
"190 470 LINE",
"138 470 LINE",
"138 -9 LINE SMOOTH",
"138 -112 OFFCURVE",
"108 -167 OFFCURVE",
"32 -205 CURVE",
"58 -250 LINE"
);
},
{
closed = 1;
nodes = (
"469 59 LINE",
"469 0 LINE",
"1013 0 LINE",
"1013 59 LINE"
);
},
{
closed = 1;
nodes = (
"1013 0 LINE",
"1013 385 LINE SMOOTH",
"1013 457 OFFCURVE",
"979 480 OFFCURVE",
"880 480 CURVE SMOOTH",
"693 480 OFFCURVE",
"568 405 OFFCURVE",
"521 266 CURVE",
"521 470 LINE",
"469 470 LINE",
"469 30 LINE",
"521 30 LINE",
"521 297 OFFCURVE",
"627 422 OFFCURVE",
"854 422 CURVE SMOOTH",
"903 422 OFFCURVE",
"939 418 OFFCURVE",
"961 411 CURVE",
"961 0 LINE"
);
}
);
width = 1116;
}
);
leftMetricsKey = "=reh-ar";
rightMetricsKey = "=sad-ar.init";
unicode = FD0F;
},
{
color = 4;
glyphname = "sad_reh-ar.fina";
layers = (
{
anchors = (
{
name = bottom;
position = "{103, -330}";
},
{
name = bottom_1;
position = "{778, -80}";
},
{
name = caret_1;
position = "{521, 0}";
},
{
name = entry;
position = "{1124, 29}";
},
{
name = top;
position = "{164, 550}";
},
{
name = top_1;
position = "{778, 550}";
}
);
components = (
{
name = "sad_reh-ar";
}
);
hints = (
{
horizontal = 1;
origin = "{0, 0}";
target = "{0, 3}";
}
);
layerId = "FC85C3E9-DF31-40AF-806C-BAFB081E1A8E";
paths = (
{
closed = 1;
nodes = (
"1013 0 LINE",
"1144 0 LINE",
"1144 59 LINE",
"1013 59 LINE"
);
}
);
width = 1124;
}
);
leftMetricsKey = "=reh-ar";
rightMetricsKey = "reh-ar.fina";
unicode = FD2B;
},
{
color = 4;
glyphname = "meem_reh-ar.fina";
lastChange = "2016-02-27 16:05:17 +0000";
layers = (
{
anchors = (
{
name = bottom;
position = "{111, -330}";
},
{
name = bottom_1;
position = "{649, -80}";
},
{
name = caret_1;
position = "{423, 0}";
},
{
name = top;
position = "{163, 550}";
},
{
name = top_1;
position = "{649, 550}";
}
);
components = (
{
name = "reh-ar";
}
);
hints = (
{
horizontal = 1;
place = "{-13.5, 106.65}";
},
{
horizontal = 1;
place = "{634.5, -94.5}";
},
{
place = "{579.15, 129.6}";
},
{
place = "{1045, 136.35}";
}
);
layerId = "FC85C3E9-DF31-40AF-806C-BAFB081E1A8E";
paths = (
{
closed = 1;
nodes = (
"443 412 LINE",
"439 378 OFFCURVE",
"437 324 OFFCURVE",
"437 224 CURVE SMOOTH",
"437 34 OFFCURVE",
"463 -8 OFFCURVE",
"629 -8 CURVE SMOOTH",
"694 -8 OFFCURVE",
"746 -1 OFFCURVE",
"828 20 CURVE",
"828 470 LINE",
"190 470 LINE SMOOTH",
"190 412 LINE"
);
},
{
closed = 1;
nodes = (
"775 412 LINE",
"775 114 LINE SMOOTH",
"775 65 OFFCURVE",
"765 53 OFFCURVE",
"727 53 CURVE SMOOTH",
"492 53 LINE",
"492 357 LINE SMOOTH",
"492 398 OFFCURVE",
"503 412 OFFCURVE",
"540 412 CURVE SMOOTH"
);
}
);
width = 935;
}
);
leftMetricsKey = "=reh-ar";
rightMetricsKey = "meem-ar.init";
},
{
color = 4;
glyphname = "alefMaksura_reh-ar.fina";
layers = (
{
anchors = (
{
name = bottom;
position = "{110, -330}";
},
{
name = bottom_1;
position = "{496, -80}";
},
{
name = caret_1;
position = "{330, 0}";
},
{
name = entry;
position = "{633, 29}";
},
{
name = top;
position = "{164, 550}";
},
{
name = top_1;
position = "{496, 550}";
}
);
hints = (
{
horizontal = 1;
place = "{-310.5, 110.7}";
},
{
horizontal = 1;
origin = "{0, 5}";
target = "{0, 2}";
},
{
horizontal = 1;
origin = "{1, 3}";
target = "{1, 0}";
},
{
place = "{163.35, 135}";
},
{
origin = "{0, 5}";
target = "{0, 2}";
}
);
layerId = "FC85C3E9-DF31-40AF-806C-BAFB081E1A8E";
paths = (
{
closed = 1;
nodes = (
"652 0 LINE",
"652 59 LINE",
"521 59 LINE",
"521 470 LINE",
"469 470 LINE",
"469 0 LINE"
);
},
{
closed = 1;
nodes = (
"190 412 LINE",
"469 412 LINE",
"469 470 LINE",
"190 470 LINE"
);
},
{
closed = 1;
nodes = (
"151 -201 OFFCURVE",
"190 -129 OFFCURVE",
"190 -10 CURVE SMOOTH",
"190 470 LINE",
"138 470 LINE",
"138 -10 LINE SMOOTH",
"138 -112 OFFCURVE",
"108 -167 OFFCURVE",
"32 -206 CURVE",
"58 -250 LINE"
);
}
);
width = 632;
}
);
leftMetricsKey = "=reh-ar";
rightMetricsKey = "reh-ar.fina";
},
{
color = 4;
glyphname = "alefMaksura_meem-ar.init";
layers = (
{
anchors = (
{
name = bottom;
position = "{320, -330}";
},
{
name = bottom_1;
position = "{851, -80}";
},
{
name = caret_1;
position = "{552, 0}";
},
{
name = entry;
position = "{988, 29}";
},
{
name = top;
position = "{314, 705}";
},
{
name = top_1;
position = "{851, 550}";
}
);
color = 1;
components = (
{
name = "noonghunna-ar";
},
{
name = "dotabove-ar";
transform = "{1, 0, 0, 1, 231, 0}";
}
);
hints = (
{
horizontal = 1;
origin = "{0, 5}";
target = "{0, 2}";
},
{
horizontal = 1;
origin = "{1, 3}";
target = "{1, 0}";
},
{
origin = "{0, 5}";
target = "{0, 2}";
}
);
layerId = "FC85C3E9-DF31-40AF-806C-BAFB081E1A8E";
paths = (
{
closed = 1;
nodes = (
"1004 0 LINE",
"1004 59 LINE",
"874 59 LINE",
"874 470 LINE",
"822 470 LINE",
"822 0 LINE"
);
},
{
closed = 1;
nodes = (
"542 412 LINE",
"821 412 LINE",
"821 470 LINE",
"542 470 LINE"
);
}
);
width = 984;
}
);
leftMetricsKey = "noonghunna-ar";
rightMetricsKey = "meem-ar.fina";
},
{
color = 10;
glyphname = zero;
layers = (
{
hints = (
{
horizontal = 1;
origin = "{0, 2}";
target = "{1, 5}";
},
{
horizontal = 1;
origin = "{0, 8}";
target = "{1, 9}";
},
{
origin = "{0, 11}";
target = "{1, 8}";
},
{
origin = "{1, 4}";
target = "{0, 5}";
},
{
horizontal = 1;
origin = "{0, 2}";
target = up;
type = BottomGhost;
},
{
horizontal = 1;
origin = "{0, 8}";
target = down;
type = TopGhost;
}
);
layerId = "FC85C3E9-DF31-40AF-806C-BAFB081E1A8E";
paths = (
{
closed = 1;
nodes = (
"67 17 OFFCURVE",
"88 -15 OFFCURVE",
"303 -15 CURVE SMOOTH",
"518 -15 OFFCURVE",
"538 16 OFFCURVE",
"538 312 CURVE SMOOTH",
"538 603 OFFCURVE",
"513 640 OFFCURVE",
"303 640 CURVE SMOOTH",
"92 640 OFFCURVE",
"67 602 OFFCURVE",
"67 312 CURVE SMOOTH"
);
},
{
closed = 1;
nodes = (
"359 585 LINE SMOOTH",
"446 585 OFFCURVE",
"468 574 OFFCURVE",
"468 532 CURVE SMOOTH",
"468 40 LINE",
"240 40 LINE SMOOTH",
"155 40 OFFCURVE",
"136 50 OFFCURVE",
"136 93 CURVE SMOOTH",
"136 585 LINE"
);
}
);
width = 605;
}
);
leftKerningGroup = zero;
rightKerningGroup = zero;
unicode = 0030;
},
{
color = 10;
glyphname = one;
layers = (
{
hints = (
{
horizontal = 1;
origin = "{0, 9}";
target = "{0, 8}";
},
{
origin = "{0, 7}";
target = "{0, 2}";
},
{
horizontal = 1;
origin = "{0, 9}";
target = up;
type = BottomGhost;
},
{
horizontal = 1;
origin = "{0, 3}";
target = down;
type = TopGhost;
}
);
layerId = "FC85C3E9-DF31-40AF-806C-BAFB081E1A8E";
paths = (
{
closed = 1;
nodes = (
"366 0 LINE",
"366 54 LINE",
"244 54 LINE",
"244 640 LINE",
"28 610 LINE",
"28 554 LINE",
"179 574 LINE",
"179 54 LINE",
"38 54 LINE",
"38 0 LINE"
);
}
);
width = 400;
}
);
leftKerningGroup = one;
rightKerningGroup = one;
unicode = 0031;
},
{
color = 10;
glyphname = two;
layers = (
{
hints = (
{
horizontal = 1;
origin = "{0, 24}";
target = "{0, 2}";
},
{
horizontal = 1;
origin = "{0, 9}";
target = "{0, 16}";
},
{
origin = "{0, 24}";
target = "{0, 2}";
},
{
origin = "{0, 20}";
target = "{0, 6}";
},
{
horizontal = 1;
origin = "{0, 24}";
target = up;
type = BottomGhost;
},
{
horizontal = 1;
origin = "{0, 9}";
target = down;
type = TopGhost;
}
);
layerId = "FC85C3E9-DF31-40AF-806C-BAFB081E1A8E";
paths = (
{
closed = 1;
nodes = (
"456 0 LINE",
"456 54 LINE",
"124 54 LINE",
"124 200 LINE",
"434 331 OFFCURVE",
"467 358 OFFCURVE",
"467 488 CURVE SMOOTH",
"467 594 OFFCURVE",
"407 640 OFFCURVE",
"269 640 CURVE SMOOTH",
"194 640 OFFCURVE",
"126 632 OFFCURVE",
"78 616 CURVE",
"87 566 LINE",
"156 578 OFFCURVE",
"237 585 OFFCURVE",
"304 585 CURVE SMOOTH",
"350 585 OFFCURVE",
"377 583 OFFCURVE",
"398 578 CURVE",
"398 386 LINE",
"77 252 OFFCURVE",
"62 235 OFFCURVE",
"62 62 CURVE SMOOTH",
"62 0 LINE"
);
}
);
width = 534;
}
);
leftKerningGroup = two;
rightKerningGroup = two;
unicode = 0032;
},
{
color = 10;
glyphname = three;
layers = (
{
hints = (
{
horizontal = 1;
origin = "{0, 37}";
target = "{0, 30}";
},
{
horizontal = 1;
origin = "{0, 12}";
target = "{0, 19}";
},
{
origin = "{0, 27}";
target = "{0, 2}";
},
{
horizontal = 1;
origin = "{0, 37}";
target = up;
type = BottomGhost;
},
{
horizontal = 1;
origin = "{0, 12}";
target = down;
type = TopGhost;
}
);
layerId = "FC85C3E9-DF31-40AF-806C-BAFB081E1A8E";
paths = (
{
closed = 1;
nodes = (
"374 -15 OFFCURVE",
"425 27 OFFCURVE",
"425 163 CURVE SMOOTH",
"425 239 OFFCURVE",
"404 285 OFFCURVE",
"354 315 CURVE",
"354 320 LINE",
"398 345 OFFCURVE",
"425 402 OFFCURVE",
"425 468 CURVE SMOOTH",
"425 582 OFFCURVE",
"364 640 OFFCURVE",
"246 640 CURVE SMOOTH",
"168 640 OFFCURVE",
"105 632 OFFCURVE",
"64 616 CURVE",
"69 566 LINE",
"125 578 OFFCURVE",
"203 585 OFFCURVE",
"269 585 CURVE SMOOTH",
"312 585 OFFCURVE",
"337 583 OFFCURVE",
"356 578 CURVE",
"356 363 LINE",
"181 335 LINE",
"181 301 LINE",
"356 280 LINE",
"356 47 LINE",
"337 42 OFFCURVE",
"302 40 OFFCURVE",
"242 40 CURVE SMOOTH",
"177 40 OFFCURVE",
"99 47 OFFCURVE",
"44 59 CURVE",
"37 9 LINE",
"75 -7 OFFCURVE",
"134 -15 OFFCURVE",
"207 -15 CURVE SMOOTH"
);
}
);
width = 482;
}
);
leftKerningGroup = three;
rightKerningGroup = three;
unicode = 0033;
},
{
color = 10;
glyphname = four;
layers = (
{
hints = (
{
horizontal = 1;
origin = "{0, 9}";
target = "{1, 3}";
},
{
horizontal = 1;
origin = "{0, 7}";
target = "{1, 0}";
},
{
origin = "{0, 0}";
target = "{0, 1}";
},
{
horizontal = 1;
origin = "{0, 0}";
target = up;
type = BottomGhost;
},
{
horizontal = 1;
origin = "{0, 7}";
target = down;
type = TopGhost;
}
);
layerId = "FC85C3E9-DF31-40AF-806C-BAFB081E1A8E";
paths = (
{
closed = 1;
nodes = (
"370 0 LINE",
"435 0 LINE",
"435 150 LINE",
"498 150 LINE",
"498 205 LINE",
"435 205 LINE",
"435 625 LINE",
"287 625 LINE",
"37 176 LINE",
"37 150 LINE",
"370 150 LINE"
);
},
{
closed = 1;
nodes = (
"326 576 LINE",
"369 576 LINE",
"369 205 LINE",
"123 205 LINE"
);
}
);
width = 555;
}
);
leftKerningGroup = four;
rightKerningGroup = four;
unicode = 0034;
},
{
color = 10;
glyphname = five;
layers = (
{
hints = (
{
horizontal = 1;
origin = "{0, 26}";
target = "{0, 19}";
},
{
horizontal = 1;
origin = "{0, 7}";
target = "{0, 10}";
},
{
origin = "{0, 11}";
target = "{0, 6}";
},
{
origin = "{0, 16}";
target = "{0, 2}";
},
{
horizontal = 1;
origin = "{0, 26}";
target = up;
type = BottomGhost;
},
{
horizontal = 1;
origin = "{0, 10}";
target = down;
type = TopGhost;
}
);
layerId = "FC85C3E9-DF31-40AF-806C-BAFB081E1A8E";
paths = (
{
closed = 1;
nodes = (
"392 -15 OFFCURVE",
"452 37 OFFCURVE",
"452 157 CURVE SMOOTH",
"452 278 OFFCURVE",
"406 311 OFFCURVE",
"221 329 CURVE SMOOTH",
"162 335 LINE",
"162 571 LINE",
"422 571 LINE",
"428 625 LINE",
"97 625 LINE",
"87 385 LINE",
"87 299 OFFCURVE",
"119 281 OFFCURVE",
"297 261 CURVE SMOOTH",
"383 253 LINE",
"383 47 LINE",
"361 42 OFFCURVE",
"332 40 OFFCURVE",
"282 40 CURVE SMOOTH",
"216 40 OFFCURVE",
"137 47 OFFCURVE",
"75 59 CURVE",
"67 9 LINE",
"114 -7 OFFCURVE",
"182 -15 OFFCURVE",
"254 -15 CURVE SMOOTH"
);
}
);
width = 509;
}
);
leftKerningGroup = five;
rightKerningGroup = five;
unicode = 0035;
},
{
color = 10;
glyphname = six;
layers = (
{
hints = (
{
horizontal = 1;
origin = "{1, 20}";
target = "{0, 4}";
},
{
horizontal = 1;
origin = "{0, 8}";
target = "{1, 3}";
},
{
horizontal = 1;
origin = "{1, 14}";
target = "{1, 7}";
},
{
origin = "{1, 17}";
target = "{0, 4}";
},
{
origin = "{0, 0}";
target = "{1, 23}";
},
{
horizontal = 1;
origin = "{1, 20}";
target = up;
type = BottomGhost;
},
{
horizontal = 1;
origin = "{1, 14}";
target = down;
type = TopGhost;
}
);
layerId = "FC85C3E9-DF31-40AF-806C-BAFB081E1A8E";
paths = (
{
closed = 1;
nodes = (
"415 79 LINE SMOOTH",
"415 45 OFFCURVE",
"401 37 OFFCURVE",
"344 37 CURVE SMOOTH",
"131 37 LINE",
"131 254 LINE SMOOTH",
"131 288 OFFCURVE",
"144 296 OFFCURVE",
"202 296 CURVE SMOOTH",
"415 296 LINE"
);
},
{
closed = 1;
nodes = (
"484 301 OFFCURVE",
"431 353 OFFCURVE",
"309 353 CURVE SMOOTH",
"131 353 LINE",
"131 579 LINE",
"147 582 OFFCURVE",
"208 585 OFFCURVE",
"265 585 CURVE SMOOTH",
"326 585 OFFCURVE",
"404 577 OFFCURVE",
"449 566 CURVE",
"457 616 LINE",
"422 628 OFFCURVE",
"336 640 OFFCURVE",
"286 640 CURVE SMOOTH",
"102 640 OFFCURVE",
"62 579 OFFCURVE",
"62 312 CURVE SMOOTH",
"62 27 OFFCURVE",
"87 -15 OFFCURVE",
"273 -15 CURVE SMOOTH",
"433 -15 OFFCURVE",
"484 33 OFFCURVE",
"484 180 CURVE SMOOTH"
);
}
);
width = 546;
}
);
leftKerningGroup = six;
rightKerningGroup = six;
unicode = 0036;
},
{
color = 10;
glyphname = seven;
layers = (
{
hints = (
{
horizontal = 1;
origin = "{0, 3}";
target = "{0, 2}";
},
{
horizontal = 1;
origin = "{0, 5}";
target = up;
type = BottomGhost;
},
{
horizontal = 1;
origin = "{0, 2}";
target = down;
type = TopGhost;
}
);
layerId = "FC85C3E9-DF31-40AF-806C-BAFB081E1A8E";
paths = (
{
closed = 1;
nodes = (
"408 585 LINE",
"408 625 LINE",
"32 625 LINE",
"38 571 LINE",
"338 571 LINE",
"128 0 LINE",
"193 0 LINE"
);
}
);
width = 455;
}
);
leftKerningGroup = seven;
rightKerningGroup = seven;
unicode = 0037;
},
{
color = 10;
glyphname = eight;
layers = (
{
hints = (
{
horizontal = 1;
origin = "{0, 12}";
target = "{1, 5}";
},
{
horizontal = 1;
origin = "{0, 25}";
target = "{2, 4}";
},
{
origin = "{0, 9}";
target = "{1, 5}";
},
{
origin = "{1, 0}";
target = "{0, 22}";
},
{
origin = "{1, 1}";
target = "{0, 15}";
},
{
horizontal = 1;
origin = "{0, 12}";
target = up;
type = BottomGhost;
},
{
horizontal = 1;
origin = "{0, 25}";
target = down;
type = TopGhost;
}
);
layerId = "FC85C3E9-DF31-40AF-806C-BAFB081E1A8E";
paths = (
{
closed = 1;
nodes = (
"123 640 OFFCURVE",
"68 597 OFFCURVE",
"68 473 CURVE SMOOTH",
"68 417 OFFCURVE",
"86 369 OFFCURVE",
"116 343 CURVE",
"116 336 LINE",
"83 306 OFFCURVE",
"62 241 OFFCURVE",
"62 171 CURVE SMOOTH",
"62 16 OFFCURVE",
"97 -15 OFFCURVE",
"285 -15 CURVE SMOOTH",
"472 -15 OFFCURVE",
"505 14 OFFCURVE",
"505 171 CURVE SMOOTH",
"505 223 OFFCURVE",
"487 270 OFFCURVE",
"457 290 CURVE",
"457 297 LINE",
"483 336 OFFCURVE",
"500 403 OFFCURVE",
"500 473 CURVE SMOOTH",
"500 599 OFFCURVE",
"446 640 OFFCURVE",
"285 640 CURVE SMOOTH"
);
},
{
closed = 1;
nodes = (
"436 235 LINE",
"435 82 LINE SMOOTH",
"435 45 OFFCURVE",
"419 37 OFFCURVE",
"355 37 CURVE SMOOTH",
"131 37 LINE",
"131 313 LINE SMOOTH",
"131 326 OFFCURVE",
"135 330 OFFCURVE",
"143 330 CURVE SMOOTH",
"149 330 OFFCURVE",
"157 328 OFFCURVE",
"167 324 CURVE SMOOTH"
);
},
{
closed = 1;
nodes = (
"131 403 LINE",
"130 543 LINE SMOOTH",
"130 580 OFFCURVE",
"146 588 OFFCURVE",
"210 588 CURVE SMOOTH",
"436 588 LINE",
"436 329 LINE SMOOTH",
"436 319 OFFCURVE",
"425 311 OFFCURVE",
"412 311 CURVE SMOOTH",
"408 311 OFFCURVE",
"401 313 OFFCURVE",
"395 315 CURVE SMOOTH"
);
}
);
width = 567;
}
);
leftKerningGroup = eight;
rightKerningGroup = eight;
unicode = 0038;
},
{
color = 10;
glyphname = nine;
layers = (
{
hints = (
{
horizontal = 1;
origin = "{1, 14}";
target = "{1, 7}";
},
{
horizontal = 1;
origin = "{1, 2}";
target = "{0, 5}";
},
{
horizontal = 1;
origin = "{0, 9}";
target = "{1, 20}";
},
{
origin = "{1, 23}";
target = "{0, 8}";
},
{
origin = "{1, 4}";
target = "{1, 17}";
},
{
horizontal = 1;
origin = "{1, 14}";
target = up;
type = BottomGhost;
},
{
horizontal = 1;
origin = "{1, 20}";
target = down;
type = TopGhost;
}
);
layerId = "FC85C3E9-DF31-40AF-806C-BAFB081E1A8E";
paths = (
{
closed = 1;
nodes = (
"358 590 LINE SMOOTH",
"403 590 OFFCURVE",
"415 582 OFFCURVE",
"415 548 CURVE SMOOTH",
"415 332 LINE",
"188 332 LINE SMOOTH",
"142 332 OFFCURVE",
"131 340 OFFCURVE",
"131 374 CURVE SMOOTH",
"131 590 LINE"
);
},
{
closed = 1;
nodes = (
"62 327 OFFCURVE",
"116 273 OFFCURVE",
"237 273 CURVE SMOOTH",
"415 273 LINE",
"415 48 LINE",
"399 44 OFFCURVE",
"336 41 OFFCURVE",
"279 41 CURVE SMOOTH",
"216 41 OFFCURVE",
"134 49 OFFCURVE",
"85 60 CURVE",
"79 10 LINE",
"116 -3 OFFCURVE",
"207 -15 OFFCURVE",
"258 -15 CURVE SMOOTH",
"443 -15 OFFCURVE",
"484 46 OFFCURVE",
"484 314 CURVE SMOOTH",
"484 598 OFFCURVE",
"459 640 OFFCURVE",
"273 640 CURVE SMOOTH",
"113 640 OFFCURVE",
"62 592 OFFCURVE",
"62 447 CURVE SMOOTH"
);
}
);
width = 546;
}
);
leftKerningGroup = nine;
rightKerningGroup = nine;
unicode = 0039;
},
{
color = 10;
glyphname = fraction;
layers = (
{
layerId = "FC85C3E9-DF31-40AF-806C-BAFB081E1A8E";
paths = (
{
closed = 1;
nodes = (
"235 665 LINE",
"225 665 LINE",
"197 665 OFFCURVE",
"186 657 OFFCURVE",
"182 640 CURVE SMOOTH",
"-47 -40 LINE",
"-37 -40 LINE SMOOTH",
"-8 -40 OFFCURVE",
"-2 -31 OFFCURVE",
"7 -15 CURVE"
);
}
);
width = 189;
}
);
leftKerningGroup = fraction;
rightKerningGroup = fraction;
unicode = 2044;
},
{
color = 10;
glyphname = zero.dnom;
layers = (
{
layerId = "FC85C3E9-DF31-40AF-806C-BAFB081E1A8E";
paths = (
{
closed = 1;
nodes = (
"69 12 OFFCURVE",
"84 -10 OFFCURVE",
"234 -10 CURVE SMOOTH",
"385 -10 OFFCURVE",
"398 12 OFFCURVE",
"398 203 CURVE SMOOTH",
"398 391 OFFCURVE",
"381 416 OFFCURVE",
"234 416 CURVE SMOOTH",
"86 416 OFFCURVE",
"69 390 OFFCURVE",
"69 203 CURVE SMOOTH"
);
},
{
closed = 1;
nodes = (
"273 378 LINE SMOOTH",
"335 378 OFFCURVE",
"351 371 OFFCURVE",
"351 343 CURVE SMOOTH",
"351 29 LINE",
"190 29 LINE SMOOTH",
"130 29 OFFCURVE",
"117 35 OFFCURVE",
"117 63 CURVE SMOOTH",
"117 378 LINE"
);
}
);
width = 467;
}
);
leftKerningGroup = zero.dnom;
rightKerningGroup = zero.dnom;
userData = {
RMXScaler = {
source = zero;
};
};
},
{
color = 10;
glyphname = one.dnom;
layers = (
{
hints = (
{
horizontal = 1;
origin = "{0, 9}";
target = "{0, 8}";
},
{
origin = "{0, 7}";
target = "{0, 2}";
}
);
layerId = "FC85C3E9-DF31-40AF-806C-BAFB081E1A8E";
paths = (
{
closed = 1;
nodes = (
"283 0 LINE",
"283 38 LINE",
"196 38 LINE",
"196 416 LINE",
"47 397 LINE",
"47 357 LINE",
"153 370 LINE",
"153 38 LINE",
"54 38 LINE",
"54 0 LINE"
);
}
);
width = 335;
}
);
leftKerningGroup = one.dnom;
rightKerningGroup = one.dnom;
userData = {
RMXScaler = {
source = one;
};
};
},
{
color = 10;
glyphname = two.dnom;
layers = (
{
hints = (
{
horizontal = 1;
origin = "{0, 24}";
target = "{0, 2}";
},
{
horizontal = 1;
origin = "{0, 16}";
target = "{0, 9}";
},
{
origin = "{0, 24}";
target = "{0, 2}";
},
{
origin = "{0, 20}";
target = "{0, 6}";
}
);
layerId = "FC85C3E9-DF31-40AF-806C-BAFB081E1A8E";
paths = (
{
closed = 1;
nodes = (
"341 0 LINE",
"341 38 LINE",
"109 38 LINE",
"109 129 LINE",
"336 218 OFFCURVE",
"349 235 OFFCURVE",
"349 317 CURVE SMOOTH",
"349 385 OFFCURVE",
"307 416 OFFCURVE",
"211 416 CURVE SMOOTH",
"160 416 OFFCURVE",
"112 411 OFFCURVE",
"79 400 CURVE",
"84 365 LINE",
"134 373 OFFCURVE",
"191 378 OFFCURVE",
"236 378 CURVE SMOOTH",
"267 378 OFFCURVE",
"287 376 OFFCURVE",
"303 373 CURVE",
"303 251 LINE",
"77 166 OFFCURVE",
"67 154 OFFCURVE",
"67 42 CURVE SMOOTH",
"67 0 LINE"
);
}
);
width = 418;
}
);
leftKerningGroup = two.dnom;
rightKerningGroup = two.dnom;
userData = {
RMXScaler = {
source = two;
};
};
},
{
color = 10;
glyphname = three.dnom;
layers = (
{
hints = (
{
horizontal = 1;
origin = "{0, 37}";
target = "{0, 30}";
},
{
horizontal = 1;
origin = "{0, 19}";
target = "{0, 12}";
},
{
origin = "{0, 27}";
target = "{0, 2}";
}
);
layerId = "FC85C3E9-DF31-40AF-806C-BAFB081E1A8E";
paths = (
{
closed = 1;
nodes = (
"303 -10 OFFCURVE",
"322 30 OFFCURVE",
"322 106 CURVE SMOOTH",
"322 156 OFFCURVE",
"308 185 OFFCURVE",
"273 205 CURVE",
"273 208 LINE",
"304 225 OFFCURVE",
"322 261 OFFCURVE",
"322 304 CURVE SMOOTH",
"322 379 OFFCURVE",
"280 416 OFFCURVE",
"199 416 CURVE SMOOTH",
"147 416 OFFCURVE",
"102 411 OFFCURVE",
"72 400 CURVE",
"76 365 LINE",
"117 373 OFFCURVE",
"172 378 OFFCURVE",
"215 378 CURVE SMOOTH",
"245 378 OFFCURVE",
"263 376 OFFCURVE",
"275 373 CURVE",
"275 236 LINE",
"153 219 LINE",
"153 195 LINE",
"275 181 LINE",
"275 33 LINE",
"262 30 OFFCURVE",
"235 29 OFFCURVE",
"196 29 CURVE SMOOTH",
"154 29 OFFCURVE",
"100 33 OFFCURVE",
"57 41 CURVE",
"53 6 LINE",
"81 -5 OFFCURVE",
"122 -10 OFFCURVE",
"170 -10 CURVE SMOOTH"
);
}
);
width = 388;
}
);
leftKerningGroup = three.dnom;
rightKerningGroup = three.dnom;
userData = {
RMXScaler = {
source = three;
};
};
},
{
color = 10;
glyphname = four.dnom;
layers = (
{
hints = (
{
horizontal = 1;
origin = "{0, 9}";
target = "{1, 3}";
},
{
horizontal = 1;
origin = "{1, 0}";
target = "{0, 7}";
},
{
origin = "{0, 0}";
target = "{0, 1}";
},
{
horizontal = 1;
origin = "{0, 0}";
target = up;
type = BottomGhost;
}
);
layerId = "FC85C3E9-DF31-40AF-806C-BAFB081E1A8E";
paths = (
{
closed = 1;
nodes = (
"286 0 LINE",
"329 0 LINE",
"329 96 LINE",
"375 96 LINE",
"375 134 LINE",
"329 134 LINE",
"329 406 LINE",
"229 406 LINE",
"53 116 LINE",
"53 96 LINE",
"286 96 LINE"
);
},
{
closed = 1;
nodes = (
"257 373 LINE",
"287 373 LINE",
"287 134 LINE",
"113 134 LINE"
);
}
);
width = 439;
}
);
leftKerningGroup = four.dnom;
rightKerningGroup = four.dnom;
userData = {
RMXScaler = {
source = four;
};
};
},
{
color = 10;
glyphname = five.dnom;
layers = (
{
hints = (
{
horizontal = 1;
origin = "{0, 26}";
target = "{0, 19}";
},
{
horizontal = 1;
place = "{217.35, 87.75}";
},
{
horizontal = 1;
origin = "{0, 7}";
target = "{0, 10}";
},
{
origin = "{0, 11}";
target = "{0, 6}";
},
{
origin = "{0, 16}";
target = "{0, 2}";
}
);
layerId = "FC85C3E9-DF31-40AF-806C-BAFB081E1A8E";
paths = (
{
closed = 1;
nodes = (
"296 -10 OFFCURVE",
"338 25 OFFCURVE",
"338 103 CURVE SMOOTH",
"338 181 OFFCURVE",
"305 204 OFFCURVE",
"175 216 CURVE SMOOTH",
"134 220 LINE",
"135 368 LINE",
"317 368 LINE",
"321 406 LINE",
"90 406 LINE",
"83 249 LINE",
"83 194 OFFCURVE",
"106 182 OFFCURVE",
"230 169 CURVE SMOOTH",
"291 163 LINE",
"291 33 LINE",
"275 30 OFFCURVE",
"255 29 OFFCURVE",
"221 29 CURVE SMOOTH",
"175 29 OFFCURVE",
"120 33 OFFCURVE",
"76 41 CURVE",
"69 6 LINE",
"104 -4 OFFCURVE",
"152 -10 OFFCURVE",
"200 -10 CURVE SMOOTH"
);
}
);
width = 401;
}
);
leftKerningGroup = five.dnom;
rightKerningGroup = five.dnom;
userData = {
RMXScaler = {
source = five;
};
};
},
{
color = 10;
glyphname = six.dnom;
layers = (
{
hints = (
{
horizontal = 1;
origin = "{1, 20}";
target = "{0, 4}";
},
{
horizontal = 1;
origin = "{0, 8}";
target = "{1, 3}";
},
{
horizontal = 1;
origin = "{1, 7}";
target = "{1, 14}";
},
{
origin = "{1, 17}";
target = "{0, 4}";
},
{
origin = "{0, 0}";
target = "{1, 23}";
}
);
layerId = "FC85C3E9-DF31-40AF-806C-BAFB081E1A8E";
paths = (
{
closed = 1;
nodes = (
"314 54 LINE SMOOTH",
"314 32 OFFCURVE",
"305 27 OFFCURVE",
"264 27 CURVE SMOOTH",
"114 27 LINE",
"114 165 LINE SMOOTH",
"114 187 OFFCURVE",
"124 192 OFFCURVE",
"165 192 CURVE SMOOTH",
"314 192 LINE"
);
},
{
closed = 1;
nodes = (
"361 196 OFFCURVE",
"324 230 OFFCURVE",
"240 230 CURVE SMOOTH",
"114 230 LINE",
"114 373 LINE",
"125 376 OFFCURVE",
"169 378 OFFCURVE",
"208 378 CURVE SMOOTH",
"251 378 OFFCURVE",
"305 373 OFFCURVE",
"338 365 CURVE",
"343 400 LINE",
"316 409 OFFCURVE",
"256 416 OFFCURVE",
"222 416 CURVE SMOOTH",
"95 416 OFFCURVE",
"67 375 OFFCURVE",
"67 203 CURVE SMOOTH",
"67 18 OFFCURVE",
"84 -10 OFFCURVE",
"214 -10 CURVE SMOOTH",
"325 -10 OFFCURVE",
"361 22 OFFCURVE",
"361 117 CURVE SMOOTH"
);
}
);
width = 428;
}
);
leftKerningGroup = six.dnom;
rightKerningGroup = six.dnom;
userData = {
RMXScaler = {
source = six;
};
};
},
{
color = 10;
glyphname = seven.dnom;
layers = (
{
hints = (
{
horizontal = 1;
origin = "{0, 3}";
target = "{0, 2}";
},
{
horizontal = 1;
origin = "{0, 5}";
target = up;
type = BottomGhost;
}
);
layerId = "FC85C3E9-DF31-40AF-806C-BAFB081E1A8E";
paths = (
{
closed = 1;
nodes = (
"313 378 LINE",
"313 406 LINE",
"50 406 LINE",
"53 368 LINE",
"265 368 LINE",
"118 0 LINE",
"161 0 LINE"
);
}
);
width = 371;
}
);
leftKerningGroup = seven.dnom;
rightKerningGroup = seven.dnom;
userData = {
RMXScaler = {
source = seven;
};
};
},
{
color = 10;
glyphname = eight.dnom;
layers = (
{
hints = (
{
horizontal = 1;
origin = "{0, 12}";
target = "{1, 5}";
},
{
horizontal = 1;
origin = "{2, 4}";
target = "{0, 25}";
},
{
origin = "{0, 9}";
target = "{1, 5}";
},
{
origin = "{1, 0}";
target = "{0, 22}";
},
{
origin = "{0, 2}";
target = "{1, 5}";
},
{
origin = "{1, 1}";
target = "{0, 15}";
}
);
layerId = "FC85C3E9-DF31-40AF-806C-BAFB081E1A8E";
paths = (
{
closed = 1;
nodes = (
"129 416 OFFCURVE",
"71 401 OFFCURVE",
"71 307 CURVE SMOOTH",
"71 271 OFFCURVE",
"84 240 OFFCURVE",
"105 222 CURVE",
"105 218 LINE",
"83 200 OFFCURVE",
"67 157 OFFCURVE",
"67 111 CURVE SMOOTH",
"67 8 OFFCURVE",
"95 -10 OFFCURVE",
"223 -10 CURVE SMOOTH",
"351 -10 OFFCURVE",
"376 8 OFFCURVE",
"376 111 CURVE SMOOTH",
"376 146 OFFCURVE",
"363 175 OFFCURVE",
"343 190 CURVE",
"343 193 LINE",
"359 216 OFFCURVE",
"372 258 OFFCURVE",
"372 307 CURVE SMOOTH",
"372 401 OFFCURVE",
"315 416 OFFCURVE",
"223 416 CURVE SMOOTH"
);
},
{
closed = 1;
nodes = (
"330 152 LINE",
"328 56 LINE SMOOTH",
"328 28 OFFCURVE",
"309 27 OFFCURVE",
"273 27 CURVE SMOOTH",
"114 27 LINE",
"114 202 LINE SMOOTH",
"114 209 OFFCURVE",
"117 213 OFFCURVE",
"123 213 CURVE SMOOTH",
"129 213 OFFCURVE",
"135 211 OFFCURVE",
"140 209 CURVE SMOOTH"
);
},
{
closed = 1;
nodes = (
"113 262 LINE",
"113 350 LINE SMOOTH",
"113 378 OFFCURVE",
"133 380 OFFCURVE",
"170 380 CURVE SMOOTH",
"329 380 LINE",
"329 215 LINE SMOOTH",
"329 209 OFFCURVE",
"322 204 OFFCURVE",
"313 204 CURVE SMOOTH",
"310 204 OFFCURVE",
"306 206 OFFCURVE",
"300 206 CURVE SMOOTH"
);
}
);
width = 443;
}
);
leftKerningGroup = eight.dnom;
rightKerningGroup = eight.dnom;
userData = {
RMXScaler = {
source = eight;
};
};
},
{
color = 10;
glyphname = nine.dnom;
layers = (
{
hints = (
{
horizontal = 1;
origin = "{1, 14}";
target = "{1, 7}";
},
{
horizontal = 1;
origin = "{1, 2}";
target = "{0, 5}";
},
{
horizontal = 1;
origin = "{0, 9}";
target = "{1, 20}";
},
{
origin = "{1, 23}";
target = "{0, 8}";
},
{
origin = "{1, 4}";
target = "{1, 17}";
}
);
layerId = "FC85C3E9-DF31-40AF-806C-BAFB081E1A8E";
paths = (
{
closed = 1;
nodes = (
"274 382 LINE SMOOTH",
"306 382 OFFCURVE",
"314 377 OFFCURVE",
"314 355 CURVE SMOOTH",
"314 217 LINE",
"154 217 LINE SMOOTH",
"121 217 OFFCURVE",
"114 222 OFFCURVE",
"114 244 CURVE SMOOTH",
"114 382 LINE"
);
},
{
closed = 1;
nodes = (
"67 211 OFFCURVE",
"104 177 OFFCURVE",
"188 177 CURVE SMOOTH",
"314 177 LINE",
"314 34 LINE",
"303 31 OFFCURVE",
"259 29 OFFCURVE",
"219 29 CURVE SMOOTH",
"174 29 OFFCURVE",
"118 34 OFFCURVE",
"84 43 CURVE",
"78 7 LINE",
"107 -2 OFFCURVE",
"170 -9 OFFCURVE",
"204 -9 CURVE SMOOTH",
"333 -9 OFFCURVE",
"361 31 OFFCURVE",
"361 204 CURVE SMOOTH",
"361 389 OFFCURVE",
"344 417 OFFCURVE",
"214 417 CURVE SMOOTH",
"102 417 OFFCURVE",
"67 385 OFFCURVE",
"67 290 CURVE SMOOTH"
);
}
);
width = 428;
}
);
leftKerningGroup = nine.dnom;
rightKerningGroup = nine.dnom;
userData = {
RMXScaler = {
source = nine;
};
};
},
{
color = 4;
glyphname = "zero-ar";
lastChange = "2016-02-27 16:05:17 +0000";
layers = (
{
layerId = "FC85C3E9-DF31-40AF-806C-BAFB081E1A8E";
paths = (
{
closed = 1;
nodes = (
"59 287 OFFCURVE",
"72 274 OFFCURVE",
"108 274 CURVE SMOOTH",
"144 274 OFFCURVE",
"158 288 OFFCURVE",
"158 328 CURVE SMOOTH",
"158 364 OFFCURVE",
"143 379 OFFCURVE",
"108 379 CURVE SMOOTH",
"72 379 OFFCURVE",
"59 365 OFFCURVE",
"59 328 CURVE SMOOTH"
);
}
);
width = 217;
}
);
leftMetricsKey = "=dotcenter-ar+30";
rightMetricsKey = "=dotcenter-ar+30";
unicode = 0660;
},
{
color = 4;
glyphname = "one-ar";
lastChange = "2016-02-27 16:05:17 +0000";
layers = (
{
hints = (
{
horizontal = 1;
origin = "{0, 3}";
target = down;
type = TopGhost;
},
{
origin = "{0, 0}";
target = "{0, 1}";
}
);
layerId = "FC85C3E9-DF31-40AF-806C-BAFB081E1A8E";
paths = (
{
closed = 1;
nodes = (
"104 0 LINE",
"156 0 LINE",
"156 625 LINE",
"104 625 LINE"
);
}
);
width = 261;
}
);
leftMetricsKey = H;
rightMetricsKey = H;
unicode = 0661;
},
{
color = 4;
glyphname = "two-ar";
layers = (
{
hints = (
{
horizontal = 1;
origin = "{0, 7}";
target = up;
type = BottomGhost;
},
{
horizontal = 1;
origin = "{0, 12}";
target = "{0, 1}";
},
{
horizontal = 1;
origin = "{0, 6}";
target = down;
type = TopGhost;
},
{
origin = "{0, 7}";
target = "{0, 8}";
},
{
origin = "{0, 0}";
target = "{0, 15}";
}
);
layerId = "FC85C3E9-DF31-40AF-806C-BAFB081E1A8E";
paths = (
{
closed = 1;
nodes = (
"405 247 LINE",
"267 247 LINE SMOOTH",
"190 247 OFFCURVE",
"156 259 OFFCURVE",
"156 308 CURVE SMOOTH",
"156 625 LINE",
"104 625 LINE",
"104 0 LINE",
"156 0 LINE",
"156 229 LINE",
"201 200 OFFCURVE",
"257 187 OFFCURVE",
"325 187 CURVE SMOOTH",
"417 187 OFFCURVE",
"457 211 OFFCURVE",
"457 261 CURVE SMOOTH",
"457 625 LINE",
"405 625 LINE"
);
}
);
width = 521;
}
);
leftMetricsKey = H;
unicode = 0662;
},
{
color = 4;
glyphname = "three-ar";
layers = (
{
hints = (
{
horizontal = 1;
origin = "{0, 30}";
target = up;
type = BottomGhost;
},
{
horizontal = 1;
origin = "{0, 4}";
target = "{0, 24}";
},
{
horizontal = 1;
origin = "{0, 29}";
target = down;
type = TopGhost;
},
{
origin = "{0, 30}";
target = "{0, 0}";
},
{
origin = "{0, 23}";
target = "{0, 21}";
},
{
origin = "{0, 16}";
target = "{0, 13}";
}
);
layerId = "FC85C3E9-DF31-40AF-806C-BAFB081E1A8E";
paths = (
{
closed = 1;
nodes = (
"156 0 LINE",
"156 219 LINE",
"200 187 OFFCURVE",
"247 173 OFFCURVE",
"315 173 CURVE SMOOTH",
"387 173 OFFCURVE",
"429 190 OFFCURVE",
"440 226 CURVE",
"484 188 OFFCURVE",
"536 173 OFFCURVE",
"605 173 CURVE SMOOTH",
"692 173 OFFCURVE",
"737 196 OFFCURVE",
"737 248 CURVE SMOOTH",
"737 625 LINE",
"685 625 LINE",
"685 232 LINE",
"557 232 LINE SMOOTH",
"473 232 OFFCURVE",
"447 247 OFFCURVE",
"447 293 CURVE SMOOTH",
"447 625 LINE",
"395 625 LINE",
"395 232 LINE",
"267 232 LINE SMOOTH",
"183 232 OFFCURVE",
"156 247 OFFCURVE",
"156 293 CURVE SMOOTH",
"156 625 LINE",
"104 625 LINE",
"104 0 LINE"
);
}
);
width = 801;
}
);
leftMetricsKey = H;
unicode = 0663;
},
{
color = 4;
glyphname = "four-ar";
layers = (
{
hints = (
{
horizontal = 1;
origin = "{1, 3}";
target = "{1, 6}";
},
{
horizontal = 1;
origin = "{0, 14}";
target = "{0, 7}";
},
{
origin = "{0, 17}";
target = "{0, 0}";
},
{
horizontal = 1;
origin = "{0, 1}";
target = "{0, 2}";
}
);
layerId = "FC85C3E9-DF31-40AF-806C-BAFB081E1A8E";
paths = (
{
closed = 1;
nodes = (
"154 301 LINE",
"314 301 LINE",
"314 335 LINE",
"132 363 LINE",
"132 575 LINE",
"151 580 OFFCURVE",
"183 582 OFFCURVE",
"226 582 CURVE SMOOTH",
"287 582 OFFCURVE",
"365 575 OFFCURVE",
"426 563 CURVE",
"431 616 LINE",
"387 632 OFFCURVE",
"323 640 OFFCURVE",
"249 640 CURVE SMOOTH",
"122 640 OFFCURVE",
"77 580 OFFCURVE",
"77 470 CURVE SMOOTH",
"77 406 OFFCURVE",
"88 347 OFFCURVE",
"141 320 CURVE",
"141 315 LINE"
);
},
{
closed = 1;
nodes = (
"88 226 OFFCURVE",
"56 135 OFFCURVE",
"43 45 CURVE",
"43 0 LINE",
"450 0 LINE",
"450 59 LINE",
"94 59 LINE",
"107 143 OFFCURVE",
"138 231 OFFCURVE",
"191 315 CURVE",
"141 315 LINE"
);
}
);
width = 486;
}
);
unicode = 0664;
},
{
color = 4;
glyphname = "five-ar";
layers = (
{
layerId = "FC85C3E9-DF31-40AF-806C-BAFB081E1A8E";
paths = (
{
closed = 1;
nodes = (
"67 17 OFFCURVE",
"81 -15 OFFCURVE",
"296 -15 CURVE SMOOTH",
"511 -15 OFFCURVE",
"524 16 OFFCURVE",
"524 312 CURVE SMOOTH",
"524 603 OFFCURVE",
"506 640 OFFCURVE",
"296 640 CURVE SMOOTH",
"85 640 OFFCURVE",
"67 602 OFFCURVE",
"67 312 CURVE SMOOTH"
);
},
{
closed = 1;
nodes = (
"468 93 LINE SMOOTH",
"468 50 OFFCURVE",
"446 40 OFFCURVE",
"378 40 CURVE SMOOTH",
"122 40 LINE",
"122 532 LINE SMOOTH",
"122 574 OFFCURVE",
"146 585 OFFCURVE",
"218 585 CURVE SMOOTH",
"468 585 LINE"
);
}
);
width = 591;
}
);
leftMetricsKey = zero;
rightMetricsKey = zero;
unicode = 0665;
},
{
color = 4;
glyphname = "six-ar";
lastChange = "2016-02-27 16:05:17 +0000";
layers = (
{
color = 1;
hints = (
{
horizontal = 1;
origin = "{0, 3}";
target = up;
type = BottomGhost;
},
{
horizontal = 1;
origin = "{0, 1}";
target = "{0, 0}";
},
{
origin = "{0, 3}";
target = "{0, 4}";
}
);
layerId = "FC85C3E9-DF31-40AF-806C-BAFB081E1A8E";
paths = (
{
closed = 1;
nodes = (
"18 625 LINE",
"18 567 LINE",
"269 567 LINE",
"269 0 LINE",
"321 0 LINE",
"321 625 LINE"
);
}
);
width = 426;
}
);
leftMetricsKey = T;
rightMetricsKey = H;
unicode = 0666;
},
{
color = 4;
glyphname = "seven-ar";
layers = (
{
layerId = "FC85C3E9-DF31-40AF-806C-BAFB081E1A8E";
paths = (
{
closed = 1;
nodes = (
"72 417 OFFCURVE",
"136 208 OFFCURVE",
"208 0 CURVE",
"278 0 LINE",
"350 208 OFFCURVE",
"414 417 OFFCURVE",
"466 625 CURVE",
"409 625 LINE",
"365 434 OFFCURVE",
"312 242 OFFCURVE",
"247 50 CURVE",
"239 50 LINE",
"174 242 OFFCURVE",
"121 434 OFFCURVE",
"77 625 CURVE",
"20 625 LINE"
);
}
);
width = 486;
}
);
unicode = 0667;
},
{
color = 4;
glyphname = "nine-ar";
lastChange = "2016-02-27 16:05:17 +0000";
layers = (
{
hints = (
{
horizontal = 1;
origin = "{0, 0}";
target = up;
type = BottomGhost;
},
{
horizontal = 1;
origin = "{0, 9}";
target = "{1, 0}";
},
{
horizontal = 1;
origin = "{1, 7}";
target = "{0, 3}";
},
{
origin = "{0, 6}";
target = "{1, 3}";
},
{
origin = "{0, 0}";
target = "{0, 1}";
}
);
layerId = "FC85C3E9-DF31-40AF-806C-BAFB081E1A8E";
paths = (
{
closed = 1;
nodes = (
"340 0 LINE",
"392 0 LINE",
"392 625 LINE",
"168 625 LINE SMOOTH",
"48 625 OFFCURVE",
"22 576 OFFCURVE",
"22 428 CURVE SMOOTH",
"22 284 OFFCURVE",
"46 232 OFFCURVE",
"153 232 CURVE SMOOTH",
"340 232 LINE"
);
},
{
closed = 1;
nodes = (
"126 291 LINE SMOOTH",
"96 291 OFFCURVE",
"77 301 OFFCURVE",
"77 333 CURVE SMOOTH",
"77 532 LINE SMOOTH",
"77 563 OFFCURVE",
"96 574 OFFCURVE",
"126 574 CURVE SMOOTH",
"340 574 LINE",
"340 291 LINE"
);
}
);
width = 497;
}
);
leftMetricsKey = "=|P";
rightMetricsKey = H;
unicode = 0669;
},
{
color = 4;
glyphname = "four-persian";
layers = (
{
hints = (
{
horizontal = 1;
origin = "{0, 26}";
target = up;
type = BottomGhost;
},
{
horizontal = 1;
origin = "{0, 31}";
target = "{0, 20}";
},
{
horizontal = 1;
origin = "{0, 15}";
target = "{0, 8}";
},
{
horizontal = 1;
origin = "{0, 12}";
target = up;
type = BottomGhost;
},
{
horizontal = 1;
origin = "{0, 25}";
target = down;
type = TopGhost;
},
{
origin = "{0, 26}";
target = "{0, 27}";
},
{
origin = "{0, 19}";
target = "{0, 34}";
},
{
origin = "{0, 0}";
target = "{0, 40}";
}
);
layerId = "FC85C3E9-DF31-40AF-806C-BAFB081E1A8E";
paths = (
{
closed = 1;
nodes = (
"685 230 LINE",
"554 230 LINE SMOOTH",
"487 230 OFFCURVE",
"447 242 OFFCURVE",
"447 275 CURVE SMOOTH",
"447 568 LINE",
"480 578 OFFCURVE",
"521 582 OFFCURVE",
"573 582 CURVE SMOOTH",
"610 582 OFFCURVE",
"645 579 OFFCURVE",
"679 573 CURVE",
"687 630 LINE",
"656 637 OFFCURVE",
"619 640 OFFCURVE",
"583 640 CURVE SMOOTH",
"422 640 OFFCURVE",
"395 613 OFFCURVE",
"395 473 CURVE SMOOTH",
"395 230 LINE",
"264 230 LINE SMOOTH",
"191 230 OFFCURVE",
"156 244 OFFCURVE",
"156 296 CURVE SMOOTH",
"156 625 LINE",
"104 625 LINE",
"104 0 LINE",
"156 0 LINE",
"156 214 LINE",
"198 186 OFFCURVE",
"252 172 OFFCURVE",
"315 172 CURVE SMOOTH",
"387 172 OFFCURVE",
"433 188 OFFCURVE",
"448 218 CURVE",
"487 185 OFFCURVE",
"535 172 OFFCURVE",
"605 172 CURVE SMOOTH",
"697 172 OFFCURVE",
"737 196 OFFCURVE",
"737 246 CURVE SMOOTH",
"737 419 LINE",
"685 419 LINE"
);
}
);
width = 801;
}
);
leftMetricsKey = H;
unicode = 06F4;
},
{
color = 4;
glyphname = "four-persian.urdu";
layers = (
{
hints = (
{
horizontal = 1;
origin = "{0, 17}";
target = up;
type = BottomGhost;
},
{
horizontal = 1;
origin = "{0, 11}";
target = "{0, 4}";
},
{
horizontal = 1;
origin = "{0, 16}";
target = "{0, 4}";
},
{
origin = "{0, 17}";
target = "{0, 0}";
},
{
origin = "{0, 6}";
target = "{0, 7}";
}
);
layerId = "FC85C3E9-DF31-40AF-806C-BAFB081E1A8E";
paths = (
{
closed = 1;
nodes = (
"156 0 LINE",
"156 517 LINE SMOOTH",
"156 568 OFFCURVE",
"191 582 OFFCURVE",
"264 582 CURVE SMOOTH",
"368 582 LINE",
"368 387 LINE",
"420 387 LINE",
"420 555 LINE SMOOTH",
"420 605 OFFCURVE",
"380 640 OFFCURVE",
"288 640 CURVE SMOOTH",
"255 640 OFFCURVE",
"194 628 OFFCURVE",
"156 600 CURVE",
"156 625 LINE",
"104 625 LINE",
"104 0 LINE"
);
},
{
closed = 1;
nodes = (
"420 387 LINE",
"420 517 LINE SMOOTH",
"420 566 OFFCURVE",
"456 582 OFFCURVE",
"528 582 CURVE SMOOTH",
"568 582 LINE",
"579 640 LINE",
"504 640 OFFCURVE",
"452 622 OFFCURVE",
"408 582 CURVE"
);
}
);
width = 598;
}
);
leftMetricsKey = H;
},
{
color = 4;
glyphname = "five-persian";
layers = (
{
color = 1;
layerId = "FC85C3E9-DF31-40AF-806C-BAFB081E1A8E";
paths = (
{
closed = 1;
nodes = (
"212 0 LINE SMOOTH",
"260 0 OFFCURVE",
"289 14 OFFCURVE",
"309 49 CURVE",
"312 49 LINE",
"328 18 OFFCURVE",
"366 0 OFFCURVE",
"410 0 CURVE SMOOTH",
"520 0 LINE SMOOTH",
"549 0 OFFCURVE",
"565 12 OFFCURVE",
"565 31 CURVE SMOOTH",
"565 147 OFFCURVE",
"462 430 OFFCURVE",
"349 625 CURVE",
"299 604 LINE",
"403 420 OFFCURVE",
"469 243 OFFCURVE",
"501 59 CURVE",
"379 59 LINE SMOOTH",
"356 59 OFFCURVE",
"343 71 OFFCURVE",
"338 93 CURVE SMOOTH",
"320 181 LINE",
"301 181 LINE",
"284 93 LINE SMOOTH",
"278 71 OFFCURVE",
"266 59 OFFCURVE",
"242 59 CURVE SMOOTH",
"121 59 LINE",
"147 204 OFFCURVE",
"206 350 OFFCURVE",
"295 495 CURVE",
"235 495 LINE",
"145 352 OFFCURVE",
"57 120 OFFCURVE",
"57 31 CURVE SMOOTH",
"57 12 OFFCURVE",
"73 0 OFFCURVE",
"101 0 CURVE SMOOTH"
);
}
);
width = 622;
}
);
unicode = 06F5;
},
{
color = 4;
glyphname = "six-persian";
layers = (
{
hints = (
{
horizontal = 1;
place = "{0, 94.5}";
},
{
horizontal = 1;
place = "{864, -114.75}";
},
{
origin = "{0, 2}";
target = "{0, 7}";
},
{
horizontal = 1;
origin = "{0, 6}";
target = "{0, 6}";
}
);
layerId = "FC85C3E9-DF31-40AF-806C-BAFB081E1A8E";
paths = (
{
closed = 1;
nodes = (
"88 259 OFFCURVE",
"56 163 OFFCURVE",
"43 70 CURVE",
"100 70 LINE",
"114 163 OFFCURVE",
"145 259 OFFCURVE",
"198 352 CURVE",
"141 352 LINE"
);
},
{
closed = 1;
nodes = (
"154 301 LINE",
"314 301 LINE",
"314 335 LINE",
"132 363 LINE",
"132 575 LINE",
"151 580 OFFCURVE",
"183 582 OFFCURVE",
"226 582 CURVE SMOOTH",
"287 582 OFFCURVE",
"365 575 OFFCURVE",
"426 563 CURVE",
"431 616 LINE",
"387 632 OFFCURVE",
"323 640 OFFCURVE",
"249 640 CURVE SMOOTH",
"122 640 OFFCURVE",
"77 580 OFFCURVE",
"77 470 CURVE SMOOTH",
"77 406 OFFCURVE",
"88 347 OFFCURVE",
"141 320 CURVE",
"141 315 LINE"
);
}
);
width = 473;
}
);
unicode = 06F6;
},
{
color = 4;
glyphname = "seven-persian.urdu";
layers = (
{
layerId = "FC85C3E9-DF31-40AF-806C-BAFB081E1A8E";
paths = (
{
closed = 1;
nodes = (
"151 430 OFFCURVE",
"79 235 OFFCURVE",
"47 40 CURVE",
"47 0 LINE",
"423 0 LINE",
"418 67 LINE",
"111 67 LINE",
"143 254 OFFCURVE",
"215 438 OFFCURVE",
"323 625 CURVE",
"263 625 LINE"
);
}
);
width = 455;
}
);
leftMetricsKey = "=|seven";
rightMetricsKey = "=|seven";
},
{
color = 10;
glyphname = asterisk;
layers = (
{
layerId = "FC85C3E9-DF31-40AF-806C-BAFB081E1A8E";
paths = (
{
closed = 1;
nodes = (
"400 394 LINE",
"376 430 LINE",
"265 536 LINE",
"247 522 LINE",
"313 385 LINE",
"338 348 LINE"
);
},
{
closed = 1;
nodes = (
"199 385 LINE",
"265 522 LINE",
"247 536 LINE",
"136 430 LINE",
"112 394 LINE",
"175 348 LINE"
);
},
{
closed = 1;
nodes = (
"259 539 LINE",
"126 611 LINE",
"83 625 LINE",
"59 552 LINE",
"102 539 LINE",
"253 518 LINE"
);
},
{
closed = 1;
nodes = (
"266 529 LINE",
"294 680 LINE",
"294 724 LINE",
"217 724 LINE",
"217 680 LINE",
"245 529 LINE"
);
},
{
closed = 1;
nodes = (
"410 539 LINE",
"453 552 LINE",
"429 625 LINE",
"386 611 LINE",
"253 539 LINE",
"259 518 LINE"
);
}
);
width = 512;
}
);
leftKerningGroup = asterisk;
rightKerningGroup = asterisk;
unicode = 002A;
},
{
color = 10;
glyphname = backslash;
layers = (
{
layerId = "FC85C3E9-DF31-40AF-806C-BAFB081E1A8E";
paths = (
{
closed = 1;
nodes = (
"301 -15 LINE",
"310 -31 OFFCURVE",
"316 -40 OFFCURVE",
"344 -40 CURVE SMOOTH",
"389 -40 LINE",
"81 640 LINE SMOOTH",
"72 656 OFFCURVE",
"66 665 OFFCURVE",
"38 665 CURVE SMOOTH",
"-7 665 LINE"
);
}
);
width = 382;
}
);
leftKerningGroup = backslash;
rightKerningGroup = backslash;
unicode = 005C;
},
{
color = 10;
glyphname = bullet;
layers = (
{
layerId = "FC85C3E9-DF31-40AF-806C-BAFB081E1A8E";
paths = (
{
closed = 1;
nodes = (
"72 300 OFFCURVE",
"82 286 OFFCURVE",
"126 286 CURVE SMOOTH",
"169 286 OFFCURVE",
"179 300 OFFCURVE",
"179 337 CURVE SMOOTH",
"179 374 OFFCURVE",
"169 389 OFFCURVE",
"126 389 CURVE SMOOTH",
"82 389 OFFCURVE",
"72 374 OFFCURVE",
"72 337 CURVE SMOOTH"
);
}
);
width = 251;
}
);
leftKerningGroup = bullet;
rightKerningGroup = bullet;
unicode = 2022;
},
{
color = 10;
glyphname = comma;
layers = (
{
layerId = "FC85C3E9-DF31-40AF-806C-BAFB081E1A8E";
paths = (
{
closed = 1;
nodes = (
"133 -31 LINE SMOOTH",
"149 10 OFFCURVE",
"158 38 OFFCURVE",
"157 49 CURVE SMOOTH",
"157 91 OFFCURVE",
"144 105 OFFCURVE",
"109 105 CURVE SMOOTH",
"70 105 OFFCURVE",
"57 91 OFFCURVE",
"57 49 CURVE SMOOTH",
"57 11 OFFCURVE",
"65 -1 OFFCURVE",
"91 -6 CURVE",
"76 -84 LINE",
"106 -93 LINE"
);
}
);
width = 214;
}
);
leftKerningGroup = period;
rightKerningGroup = period;
unicode = 002C;
},
{
color = 10;
glyphname = exclam;
layers = (
{
components = (
{
name = period;
transform = "{1.045, 0, 0, 1.045, 4, 0}";
}
);
layerId = "FC85C3E9-DF31-40AF-806C-BAFB081E1A8E";
paths = (
{
closed = 1;
nodes = (
"136 184 LINE",
"163 630 LINE",
"163 638 OFFCURVE",
"158 645 OFFCURVE",
"142 645 CURVE SMOOTH",
"89 645 LINE SMOOTH",
"73 645 OFFCURVE",
"70 638 OFFCURVE",
"70 630 CURVE",
"97 184 LINE"
);
}
);
width = 234;
}
);
leftKerningGroup = exclam;
rightKerningGroup = exclam;
unicode = 0021;
},
{
color = 10;
glyphname = numbersign;
layers = (
{
layerId = "FC85C3E9-DF31-40AF-806C-BAFB081E1A8E";
paths = (
{
closed = 1;
nodes = (
"337 -40 LINE SMOOTH",
"365 -40 OFFCURVE",
"373 -32 OFFCURVE",
"380 -15 CURVE SMOOTH",
"649 665 LINE",
"629 665 LINE SMOOTH",
"601 665 OFFCURVE",
"593 657 OFFCURVE",
"586 640 CURVE SMOOTH",
"317 -40 LINE"
);
},
{
closed = 1;
nodes = (
"535 169 LINE SMOOTH",
"554 169 OFFCURVE",
"565 169 OFFCURVE",
"577 196 CURVE SMOOTH",
"585 215 LINE",
"84 215 LINE SMOOTH",
"65 215 OFFCURVE",
"51 213 OFFCURVE",
"41 188 CURVE SMOOTH",
"33 169 LINE"
);
},
{
closed = 1;
nodes = (
"87 -40 LINE SMOOTH",
"115 -40 OFFCURVE",
"123 -32 OFFCURVE",
"130 -15 CURVE SMOOTH",
"399 665 LINE",
"379 665 LINE SMOOTH",
"351 665 OFFCURVE",
"343 657 OFFCURVE",
"336 640 CURVE SMOOTH",
"67 -40 LINE"
);
},
{
closed = 1;
nodes = (
"633 408 LINE SMOOTH",
"652 408 OFFCURVE",
"663 409 OFFCURVE",
"675 435 CURVE SMOOTH",
"683 455 LINE",
"182 455 LINE SMOOTH",
"163 455 OFFCURVE",
"149 453 OFFCURVE",
"139 428 CURVE SMOOTH",
"131 408 LINE"
);
}
);
width = 712;
}
);
leftKerningGroup = numbersign;
rightKerningGroup = numbersign;
unicode = 0023;
},
{
color = 10;
glyphname = period;
layers = (
{
layerId = "FC85C3E9-DF31-40AF-806C-BAFB081E1A8E";
paths = (
{
closed = 1;
nodes = (
"57 9 OFFCURVE",
"65 -6 OFFCURVE",
"107 -6 CURVE SMOOTH",
"147 -6 OFFCURVE",
"157 9 OFFCURVE",
"157 49 CURVE SMOOTH",
"157 87 OFFCURVE",
"147 105 OFFCURVE",
"107 105 CURVE SMOOTH",
"65 105 OFFCURVE",
"57 87 OFFCURVE",
"57 49 CURVE SMOOTH"
);
}
);
width = 214;
}
);
leftKerningGroup = period;
rightKerningGroup = period;
unicode = 002E;
},
{
color = 10;
glyphname = question;
layers = (
{
components = (
{
name = period;
transform = "{1.045, 0, 0, 1.045, 54, 0}";
}
);
layerId = "FC85C3E9-DF31-40AF-806C-BAFB081E1A8E";
paths = (
{
closed = 1;
nodes = (
"186 184 LINE",
"190 343 LINE",
"352 403 OFFCURVE",
"364 419 OFFCURVE",
"364 510 CURVE SMOOTH",
"364 605 OFFCURVE",
"315 640 OFFCURVE",
"184 640 CURVE SMOOTH",
"138 640 OFFCURVE",
"86 632 OFFCURVE",
"32 615 CURVE",
"40 572 LINE",
"114 586 OFFCURVE",
"170 592 OFFCURVE",
"200 592 CURVE SMOOTH",
"233 592 OFFCURVE",
"268 590 OFFCURVE",
"298 585 CURVE",
"298 442 LINE",
"202 407 LINE SMOOTH",
"149 388 OFFCURVE",
"135 381 OFFCURVE",
"137 366 CURVE SMOOTH",
"146 184 LINE"
);
}
);
width = 380;
}
);
leftKerningGroup = question;
rightKerningGroup = question;
unicode = 003F;
},
{
color = 10;
glyphname = quotedbl;
layers = (
{
layerId = "FC85C3E9-DF31-40AF-806C-BAFB081E1A8E";
paths = (
{
closed = 1;
nodes = (
"273 411 LINE",
"303 576 LINE",
"303 623 LINE SMOOTH",
"303 638 OFFCURVE",
"295 650 OFFCURVE",
"266 650 CURVE SMOOTH",
"258 650 LINE SMOOTH",
"229 650 OFFCURVE",
"221 638 OFFCURVE",
"221 623 CURVE SMOOTH",
"221 576 LINE",
"251 411 LINE"
);
},
{
closed = 1;
nodes = (
"117 411 LINE",
"147 576 LINE",
"147 623 LINE SMOOTH",
"147 638 OFFCURVE",
"139 650 OFFCURVE",
"110 650 CURVE SMOOTH",
"102 650 LINE SMOOTH",
"73 650 OFFCURVE",
"65 638 OFFCURVE",
"65 623 CURVE SMOOTH",
"65 576 LINE",
"95 411 LINE"
);
}
);
width = 368;
}
);
leftKerningGroup = quotedbl;
rightKerningGroup = quotedbl;
unicode = 0022;
},
{
color = 10;
glyphname = quotesingle;
layers = (
{
layerId = "FC85C3E9-DF31-40AF-806C-BAFB081E1A8E";
paths = (
{
closed = 1;
nodes = (
"117 411 LINE",
"147 576 LINE",
"147 623 LINE SMOOTH",
"147 638 OFFCURVE",
"139 650 OFFCURVE",
"110 650 CURVE SMOOTH",
"102 650 LINE SMOOTH",
"73 650 OFFCURVE",
"65 638 OFFCURVE",
"65 623 CURVE SMOOTH",
"65 576 LINE",
"95 411 LINE"
);
}
);
width = 213;
}
);
leftKerningGroup = quotedbl;
rightKerningGroup = quotedbl;
unicode = 0027;
},
{
color = 10;
glyphname = slash;
layers = (
{
anchors = (
{
name = _center;
position = "{202, 313}";
}
);
layerId = "FC85C3E9-DF31-40AF-806C-BAFB081E1A8E";
paths = (
{
closed = 1;
nodes = (
"404 665 LINE",
"380 665 LINE SMOOTH",
"357 665 OFFCURVE",
"347 660 OFFCURVE",
"337 640 CURVE SMOOTH",
"0 -40 LINE",
"24 -40 LINE SMOOTH",
"47 -40 OFFCURVE",
"57 -35 OFFCURVE",
"67 -15 CURVE SMOOTH"
);
}
);
width = 404;
}
);
leftKerningGroup = slash;
rightKerningGroup = slash;
unicode = 002F;
},
{
color = 10;
glyphname = underscore;
layers = (
{
layerId = "FC85C3E9-DF31-40AF-806C-BAFB081E1A8E";
paths = (
{
closed = 1;
nodes = (
"25 -59 LINE",
"380 -59 LINE SMOOTH",
"420 -59 OFFCURVE",
"435 -56 OFFCURVE",
"435 -17 CURVE SMOOTH",
"435 1 LINE",
"81 1 LINE SMOOTH",
"41 1 OFFCURVE",
"25 -2 OFFCURVE",
"25 -41 CURVE SMOOTH"
);
}
);
width = 460;
}
);
leftKerningGroup = underscore;
rightKerningGroup = underscore;
unicode = 005F;
},
{
color = 10;
glyphname = braceleft;
layers = (
{
layerId = "FC85C3E9-DF31-40AF-806C-BAFB081E1A8E";
paths = (
{
closed = 1;
nodes = (
"180 175 LINE SMOOTH",
"186 236 OFFCURVE",
"166 278 OFFCURVE",
"124 305 CURVE",
"124 317 LINE",
"166 344 OFFCURVE",
"186 386 OFFCURVE",
"180 447 CURVE SMOOTH",
"161 648 LINE",
"244 655 LINE",
"239 709 LINE",
"116 709 OFFCURVE",
"91 704 OFFCURVE",
"97 598 CURVE SMOOTH",
"112 359 LINE",
"47 342 LINE",
"47 280 LINE",
"112 263 LINE",
"97 27 LINE SMOOTH",
"91 -79 OFFCURVE",
"128 -84 OFFCURVE",
"239 -84 CURVE",
"244 -30 LINE",
"161 -23 LINE"
);
}
);
width = 301;
}
);
leftKerningGroup = braceleft;
rightKerningGroup = braceleft;
unicode = 007B;
},
{
color = 10;
glyphname = bracketleft;
layers = (
{
layerId = "FC85C3E9-DF31-40AF-806C-BAFB081E1A8E";
paths = (
{
closed = 1;
nodes = (
"77 21 LINE SMOOTH",
"77 -59 OFFCURVE",
"111 -84 OFFCURVE",
"222 -84 CURVE",
"228 -32 LINE",
"145 -24 LINE",
"145 649 LINE",
"228 657 LINE",
"222 709 LINE",
"111 709 OFFCURVE",
"77 684 OFFCURVE",
"77 604 CURVE SMOOTH"
);
}
);
width = 258;
}
);
leftKerningGroup = bracketleft;
rightKerningGroup = bracketleft;
unicode = 005B;
},
{
color = 10;
glyphname = parenleft;
layers = (
{
layerId = "FC85C3E9-DF31-40AF-806C-BAFB081E1A8E";
paths = (
{
closed = 1;
nodes = (
"239 -39 LINE",
"173 29 OFFCURVE",
"119 102 OFFCURVE",
"119 312 CURVE SMOOTH",
"119 521 OFFCURVE",
"173 595 OFFCURVE",
"239 662 CURVE",
"227 711 LINE",
"125 660 OFFCURVE",
"47 552 OFFCURVE",
"47 312 CURVE SMOOTH",
"47 71 OFFCURVE",
"125 -37 OFFCURVE",
"227 -87 CURVE"
);
}
);
width = 296;
}
);
leftKerningGroup = parenleft;
rightKerningGroup = parenleft;
unicode = 0028;
},
{
color = 10;
glyphname = emdash;
layers = (
{
layerId = "FC85C3E9-DF31-40AF-806C-BAFB081E1A8E";
paths = (
{
closed = 1;
nodes = (
"36 245 LINE",
"693 245 LINE SMOOTH",
"726 245 OFFCURVE",
"737 246 OFFCURVE",
"737 276 CURVE SMOOTH",
"737 305 LINE",
"81 305 LINE SMOOTH",
"47 305 OFFCURVE",
"36 304 OFFCURVE",
"36 274 CURVE SMOOTH"
);
}
);
width = 773;
}
);
leftKerningGroup = hyphen;
rightKerningGroup = hyphen;
unicode = 2014;
},
{
color = 10;
glyphname = endash;
layers = (
{
layerId = "FC85C3E9-DF31-40AF-806C-BAFB081E1A8E";
paths = (
{
closed = 1;
nodes = (
"36 245 LINE",
"434 245 LINE SMOOTH",
"467 245 OFFCURVE",
"478 246 OFFCURVE",
"478 276 CURVE SMOOTH",
"478 305 LINE",
"81 305 LINE SMOOTH",
"47 305 OFFCURVE",
"36 304 OFFCURVE",
"36 274 CURVE SMOOTH"
);
}
);
width = 514;
}
);
leftKerningGroup = hyphen;
rightKerningGroup = hyphen;
unicode = 2013;
},
{
color = 10;
glyphname = hyphen;
layers = (
{
layerId = "FC85C3E9-DF31-40AF-806C-BAFB081E1A8E";
paths = (
{
closed = 1;
nodes = (
"36 245 LINE",
"270 245 LINE SMOOTH",
"303 245 OFFCURVE",
"314 246 OFFCURVE",
"314 276 CURVE SMOOTH",
"314 305 LINE",
"81 305 LINE SMOOTH",
"47 305 OFFCURVE",
"36 304 OFFCURVE",
"36 274 CURVE SMOOTH"
);
}
);
width = 350;
}
);
leftKerningGroup = hyphen;
rightKerningGroup = hyphen;
unicode = 002D;
},
{
color = 10;
glyphname = guillemotleft;
layers = (
{
layerId = "FC85C3E9-DF31-40AF-806C-BAFB081E1A8E";
paths = (
{
closed = 1;
nodes = (
"357 85 LINE",
"262 250 LINE",
"357 415 LINE",
"338 433 LINE",
"202 287 LINE",
"202 212 LINE",
"338 67 LINE"
);
},
{
closed = 1;
nodes = (
"180 85 LINE",
"85 250 LINE",
"180 415 LINE",
"161 433 LINE",
"25 287 LINE",
"25 212 LINE",
"161 67 LINE"
);
}
);
width = 382;
}
);
leftKerningGroup = guillemotleft;
rightKerningGroup = guillemotleft;
unicode = 00AB;
},
{
color = 10;
glyphname = guilsinglleft;
layers = (
{
layerId = "FC85C3E9-DF31-40AF-806C-BAFB081E1A8E";
paths = (
{
closed = 1;
nodes = (
"180 85 LINE",
"85 250 LINE",
"180 415 LINE",
"161 433 LINE",
"25 287 LINE",
"25 212 LINE",
"161 67 LINE"
);
}
);
width = 205;
}
);
leftKerningGroup = guillemotleft;
rightKerningGroup = guillemotleft;
unicode = 2039;
},
{
color = 4;
glyphname = "parenleft-ar";
layers = (
{
layerId = "FC85C3E9-DF31-40AF-806C-BAFB081E1A8E";
paths = (
{
closed = 1;
nodes = (
"87 236 LINE",
"284 563 LINE",
"229 583 LINE",
"33 261 LINE",
"33 240 LINE",
"229 -82 LINE",
"284 -62 LINE",
"87 265 LINE"
);
}
);
width = 352;
}
);
unicode = FD3E;
},
{
color = 10;
glyphname = Euro;
layers = (
{
components = (
{
name = C;
transform = "{1, 0, 0, 1, 30, 0}";
}
);
layerId = "FC85C3E9-DF31-40AF-806C-BAFB081E1A8E";
paths = (
{
closed = 1;
nodes = (
"378 219 LINE",
"384 266 LINE",
"41 266 LINE",
"34 219 LINE"
);
},
{
closed = 1;
nodes = (
"392 360 LINE",
"399 409 LINE",
"56 409 LINE",
"49 360 LINE"
);
}
);
width = 512;
}
);
leftKerningGroup = Euro;
rightKerningGroup = Euro;
rightMetricsKey = C;
unicode = 20AC;
},
